<svg class="main-svg" xmlns="http://www.w3.org/2000/svg" xmlns:xlink="http://www.w3.org/1999/xlink" width="2600" height="1200" style="" viewBox="0 0 2600 1200"><rect x="0" y="0" width="2600" height="1200" style="fill: rgb(255, 255, 255); fill-opacity: 1;"/><defs id="defs-11545d"><g class="clips"><clipPath id="clip11545dxyplot" class="plotclip"><rect width="2478" height="1140"/></clipPath><clipPath class="axesclip" id="clip11545dx"><rect x="5" y="0" width="2478" height="1200"/></clipPath><clipPath class="axesclip" id="clip11545dy"><rect x="0" y="40" width="2600" height="1140"/></clipPath><clipPath class="axesclip" id="clip11545dxy"><rect x="5" y="40" width="2478" height="1140"/></clipPath></g><g class="gradients"><linearGradient x1="0" y1="1" x2="0" y2="0" gradientUnits="objectBoundingBox" id="g11545d-cbb784ac"><stop offset="0%" stop-color="rgb(8, 29, 88)" stop-opacity="1"/><stop offset="12.5%" stop-color="rgb(37, 52, 148)" stop-opacity="1"/><stop offset="25%" stop-color="rgb(34, 94, 168)" stop-opacity="1"/><stop offset="37.5%" stop-color="rgb(29, 145, 192)" stop-opacity="1"/><stop offset="50%" stop-color="rgb(65, 182, 196)" stop-opacity="1"/><stop offset="62.5%" stop-color="rgb(127, 205, 187)" stop-opacity="1"/><stop offset="75%" stop-color="rgb(199, 233, 180)" stop-opacity="1"/><stop offset="87.5%" stop-color="rgb(237, 248, 177)" stop-opacity="1"/><stop offset="100%" stop-color="rgb(255, 255, 217)" stop-opacity="1"/></linearGradient></g><g class="patterns"/></defs><g class="bglayer"><rect class="bg" x="5" y="40" width="2478" height="1140" style="fill: rgb(229, 236, 246); fill-opacity: 1; stroke-width: 0px;"/></g><g class="layer-below"><g class="imagelayer"/><g class="shapelayer"/></g><g class="cartesianlayer"><g class="subplot xy"><g class="layer-subplot"><g class="shapelayer"/><g class="imagelayer"/></g><g class="minor-gridlayer"><g class="x"/><g class="y"/></g><g class="gridlayer"><g class="x"/><g class="y"/></g><g class="zerolinelayer"/><g class="layer-between"><g class="shapelayer"/><g class="imagelayer"/></g><path class="xlines-below"/><path class="ylines-below"/><g class="overlines-below"/><g class="xaxislayer-below"/><g class="yaxislayer-below"/><g class="overaxes-below"/><g class="overplot"><g class="xy" transform="translate(5,40)" clip-path="url(#clip11545dxyplot)"><g class="scatterlayer mlayer"><g class="trace scatter trace633233" style="stroke-miterlimit: 2; opacity: 1;"><g class="fills"/><g class="errorbars"/><g class="lines"><path class="js-line" style="vector-effect: none; fill: none; stroke: rgb(136, 136, 136); stroke-opacity: 1; stroke-width: 0.5px; opacity: 1;" d="M1220.99,506.65L560.42,667.58"/><path class="js-line" style="vector-effect: none; fill: none; stroke: rgb(136, 136, 136); stroke-opacity: 1; stroke-width: 0.5px; opacity: 1;" d="M1220.99,506.65L525.12,560.89"/><path class="js-line" style="vector-effect: none; fill: none; stroke: rgb(136, 136, 136); stroke-opacity: 1; stroke-width: 0.5px; opacity: 1;" d="M1220.99,506.65L1040.66,576.16"/><path class="js-line" style="vector-effect: none; fill: none; stroke: rgb(136, 136, 136); stroke-opacity: 1; stroke-width: 0.5px; opacity: 1;" d="M1220.99,506.65L919.18,606.71"/><path class="js-line" style="vector-effect: none; fill: none; stroke: rgb(136, 136, 136); stroke-opacity: 1; stroke-width: 0.5px; opacity: 1;" d="M1220.99,506.65L810.38,101.26"/><path class="js-line" style="vector-effect: none; fill: none; stroke: rgb(136, 136, 136); stroke-opacity: 1; stroke-width: 0.5px; opacity: 1;" d="M1220.99,506.65L1447.39,680.82"/><path class="js-line" style="vector-effect: none; fill: none; stroke: rgb(136, 136, 136); stroke-opacity: 1; stroke-width: 0.5px; opacity: 1;" d="M1220.99,506.65L1002.64,661.63"/><path class="js-line" style="vector-effect: none; fill: none; stroke: rgb(136, 136, 136); stroke-opacity: 1; stroke-width: 0.5px; opacity: 1;" d="M1220.99,506.65L1193.88,664.32"/><path class="js-line" style="vector-effect: none; fill: none; stroke: rgb(136, 136, 136); stroke-opacity: 1; stroke-width: 0.5px; opacity: 1;" d="M1220.99,506.65L1122.94,648.55"/><path class="js-line" style="vector-effect: none; fill: none; stroke: rgb(136, 136, 136); stroke-opacity: 1; stroke-width: 0.5px; opacity: 1;" d="M1220.99,506.65L1444.03,578.76"/><path class="js-line" style="vector-effect: none; fill: none; stroke: rgb(136, 136, 136); stroke-opacity: 1; stroke-width: 0.5px; opacity: 1;" d="M1220.99,506.65L1698.83,303.81"/><path class="js-line" style="vector-effect: none; fill: none; stroke: rgb(136, 136, 136); stroke-opacity: 1; stroke-width: 0.5px; opacity: 1;" d="M1220.99,506.65L1975.57,291.56"/><path class="js-line" style="vector-effect: none; fill: none; stroke: rgb(136, 136, 136); stroke-opacity: 1; stroke-width: 0.5px; opacity: 1;" d="M1220.99,506.65L1701.31,161.77"/><path class="js-line" style="vector-effect: none; fill: none; stroke: rgb(136, 136, 136); stroke-opacity: 1; stroke-width: 0.5px; opacity: 1;" d="M1220.99,506.65L1884.84,200.67"/><path class="js-line" style="vector-effect: none; fill: none; stroke: rgb(136, 136, 136); stroke-opacity: 1; stroke-width: 0.5px; opacity: 1;" d="M1220.99,506.65L1243.75,66.37"/><path class="js-line" style="vector-effect: none; fill: none; stroke: rgb(136, 136, 136); stroke-opacity: 1; stroke-width: 0.5px; opacity: 1;" d="M1220.99,506.65L1283.86,394.35"/><path class="js-line" style="vector-effect: none; fill: none; stroke: rgb(136, 136, 136); stroke-opacity: 1; stroke-width: 0.5px; opacity: 1;" d="M1220.99,506.65L1212.77,742.19"/><path class="js-line" style="vector-effect: none; fill: none; stroke: rgb(136, 136, 136); stroke-opacity: 1; stroke-width: 0.5px; opacity: 1;" d="M1220.99,506.65L1102.63,709.19"/><path class="js-line" style="vector-effect: none; fill: none; stroke: rgb(136, 136, 136); stroke-opacity: 1; stroke-width: 0.5px; opacity: 1;" d="M1220.99,506.65L962.03,514.5"/><path class="js-line" style="vector-effect: none; fill: none; stroke: rgb(136, 136, 136); stroke-opacity: 1; stroke-width: 0.5px; opacity: 1;" d="M1220.99,506.65L751.18,365.52"/><path class="js-line" style="vector-effect: none; fill: none; stroke: rgb(136, 136, 136); stroke-opacity: 1; stroke-width: 0.5px; opacity: 1;" d="M1220.99,506.65L1020.68,268.89"/><path class="js-line" style="vector-effect: none; fill: none; stroke: rgb(136, 136, 136); stroke-opacity: 1; stroke-width: 0.5px; opacity: 1;" d="M1220.99,506.65L919.27,689.37"/><path class="js-line" style="vector-effect: none; fill: none; stroke: rgb(136, 136, 136); stroke-opacity: 1; stroke-width: 0.5px; opacity: 1;" d="M1220.99,506.65L1103.03,822.26"/><path class="js-line" style="vector-effect: none; fill: none; stroke: rgb(136, 136, 136); stroke-opacity: 1; stroke-width: 0.5px; opacity: 1;" d="M1220.99,506.65L1506.38,390.9"/><path class="js-line" style="vector-effect: none; fill: none; stroke: rgb(136, 136, 136); stroke-opacity: 1; stroke-width: 0.5px; opacity: 1;" d="M2039.31,622.5L1444.03,578.76"/><path class="js-line" style="vector-effect: none; fill: none; stroke: rgb(136, 136, 136); stroke-opacity: 1; stroke-width: 0.5px; opacity: 1;" d="M2039.31,622.5L1979.09,725.55"/><path class="js-line" style="vector-effect: none; fill: none; stroke: rgb(136, 136, 136); stroke-opacity: 1; stroke-width: 0.5px; opacity: 1;" d="M1506.38,390.9L1444.03,578.76"/><path class="js-line" style="vector-effect: none; fill: none; stroke: rgb(136, 136, 136); stroke-opacity: 1; stroke-width: 0.5px; opacity: 1;" d="M962.03,514.5L1040.66,576.16"/><path class="js-line" style="vector-effect: none; fill: none; stroke: rgb(136, 136, 136); stroke-opacity: 1; stroke-width: 0.5px; opacity: 1;" d="M962.03,514.5L919.18,606.71"/><path class="js-line" style="vector-effect: none; fill: none; stroke: rgb(136, 136, 136); stroke-opacity: 1; stroke-width: 0.5px; opacity: 1;" d="M962.03,514.5L1002.64,661.63"/><path class="js-line" style="vector-effect: none; fill: none; stroke: rgb(136, 136, 136); stroke-opacity: 1; stroke-width: 0.5px; opacity: 1;" d="M962.03,514.5L1122.94,648.55"/><path class="js-line" style="vector-effect: none; fill: none; stroke: rgb(136, 136, 136); stroke-opacity: 1; stroke-width: 0.5px; opacity: 1;" d="M962.03,514.5L1193.88,664.32"/><path class="js-line" style="vector-effect: none; fill: none; stroke: rgb(136, 136, 136); stroke-opacity: 1; stroke-width: 0.5px; opacity: 1;" d="M962.03,514.5L751.18,365.52"/><path class="js-line" style="vector-effect: none; fill: none; stroke: rgb(136, 136, 136); stroke-opacity: 1; stroke-width: 0.5px; opacity: 1;" d="M962.03,514.5L1020.68,268.89"/><path class="js-line" style="vector-effect: none; fill: none; stroke: rgb(136, 136, 136); stroke-opacity: 1; stroke-width: 0.5px; opacity: 1;" d="M962.03,514.5L1102.63,709.19"/><path class="js-line" style="vector-effect: none; fill: none; stroke: rgb(136, 136, 136); stroke-opacity: 1; stroke-width: 0.5px; opacity: 1;" d="M962.03,514.5L1212.77,742.19"/><path class="js-line" style="vector-effect: none; fill: none; stroke: rgb(136, 136, 136); stroke-opacity: 1; stroke-width: 0.5px; opacity: 1;" d="M926.26,882.01L1103.03,822.26"/><path class="js-line" style="vector-effect: none; fill: none; stroke: rgb(136, 136, 136); stroke-opacity: 1; stroke-width: 0.5px; opacity: 1;" d="M926.26,882.01L1002.64,661.63"/><path class="js-line" style="vector-effect: none; fill: none; stroke: rgb(136, 136, 136); stroke-opacity: 1; stroke-width: 0.5px; opacity: 1;" d="M926.26,882.01L1193.88,664.32"/><path class="js-line" style="vector-effect: none; fill: none; stroke: rgb(136, 136, 136); stroke-opacity: 1; stroke-width: 0.5px; opacity: 1;" d="M926.26,882.01L1122.94,648.55"/><path class="js-line" style="vector-effect: none; fill: none; stroke: rgb(136, 136, 136); stroke-opacity: 1; stroke-width: 0.5px; opacity: 1;" d="M926.26,882.01L919.18,606.71"/><path class="js-line" style="vector-effect: none; fill: none; stroke: rgb(136, 136, 136); stroke-opacity: 1; stroke-width: 0.5px; opacity: 1;" d="M1122.94,648.55L1447.39,680.82"/><path class="js-line" style="vector-effect: none; fill: none; stroke: rgb(136, 136, 136); stroke-opacity: 1; stroke-width: 0.5px; opacity: 1;" d="M1122.94,648.55L1193.88,664.32"/><path class="js-line" style="vector-effect: none; fill: none; stroke: rgb(136, 136, 136); stroke-opacity: 1; stroke-width: 0.5px; opacity: 1;" d="M1122.94,648.55L1002.64,661.63"/><path class="js-line" style="vector-effect: none; fill: none; stroke: rgb(136, 136, 136); stroke-opacity: 1; stroke-width: 0.5px; opacity: 1;" d="M1122.94,648.55L1444.03,578.76"/><path class="js-line" style="vector-effect: none; fill: none; stroke: rgb(136, 136, 136); stroke-opacity: 1; stroke-width: 0.5px; opacity: 1;" d="M1122.94,648.55L1040.66,576.16"/><path class="js-line" style="vector-effect: none; fill: none; stroke: rgb(136, 136, 136); stroke-opacity: 1; stroke-width: 0.5px; opacity: 1;" d="M1122.94,648.55L919.18,606.71"/><path class="js-line" style="vector-effect: none; fill: none; stroke: rgb(136, 136, 136); stroke-opacity: 1; stroke-width: 0.5px; opacity: 1;" d="M1122.94,648.55L1102.63,709.19"/><path class="js-line" style="vector-effect: none; fill: none; stroke: rgb(136, 136, 136); stroke-opacity: 1; stroke-width: 0.5px; opacity: 1;" d="M1122.94,648.55L1212.77,742.19"/><path class="js-line" style="vector-effect: none; fill: none; stroke: rgb(136, 136, 136); stroke-opacity: 1; stroke-width: 0.5px; opacity: 1;" d="M1122.94,648.55L1103.03,822.26"/><path class="js-line" style="vector-effect: none; fill: none; stroke: rgb(136, 136, 136); stroke-opacity: 1; stroke-width: 0.5px; opacity: 1;" d="M1122.94,648.55L919.27,689.37"/><path class="js-line" style="vector-effect: none; fill: none; stroke: rgb(136, 136, 136); stroke-opacity: 1; stroke-width: 0.5px; opacity: 1;" d="M1102.63,709.19L1193.88,664.32"/><path class="js-line" style="vector-effect: none; fill: none; stroke: rgb(136, 136, 136); stroke-opacity: 1; stroke-width: 0.5px; opacity: 1;" d="M1102.63,709.19L1002.64,661.63"/><path class="js-line" style="vector-effect: none; fill: none; stroke: rgb(136, 136, 136); stroke-opacity: 1; stroke-width: 0.5px; opacity: 1;" d="M1102.63,709.19L919.18,606.71"/><path class="js-line" style="vector-effect: none; fill: none; stroke: rgb(136, 136, 136); stroke-opacity: 1; stroke-width: 0.5px; opacity: 1;" d="M1102.63,709.19L1444.03,578.76"/><path class="js-line" style="vector-effect: none; fill: none; stroke: rgb(136, 136, 136); stroke-opacity: 1; stroke-width: 0.5px; opacity: 1;" d="M1102.63,709.19L1040.66,576.16"/><path class="js-line" style="vector-effect: none; fill: none; stroke: rgb(136, 136, 136); stroke-opacity: 1; stroke-width: 0.5px; opacity: 1;" d="M1102.63,709.19L1212.77,742.19"/><path class="js-line" style="vector-effect: none; fill: none; stroke: rgb(136, 136, 136); stroke-opacity: 1; stroke-width: 0.5px; opacity: 1;" d="M1102.63,709.19L1103.03,822.26"/><path class="js-line" style="vector-effect: none; fill: none; stroke: rgb(136, 136, 136); stroke-opacity: 1; stroke-width: 0.5px; opacity: 1;" d="M1102.63,709.19L919.27,689.37"/><path class="js-line" style="vector-effect: none; fill: none; stroke: rgb(136, 136, 136); stroke-opacity: 1; stroke-width: 0.5px; opacity: 1;" d="M537.5,1041.92L1002.64,661.63"/><path class="js-line" style="vector-effect: none; fill: none; stroke: rgb(136, 136, 136); stroke-opacity: 1; stroke-width: 0.5px; opacity: 1;" d="M1979.09,725.55L1444.03,578.76"/><path class="js-line" style="vector-effect: none; fill: none; stroke: rgb(136, 136, 136); stroke-opacity: 1; stroke-width: 0.5px; opacity: 1;" d="M1002.64,661.63L1444.03,578.76"/><path class="js-line" style="vector-effect: none; fill: none; stroke: rgb(136, 136, 136); stroke-opacity: 1; stroke-width: 0.5px; opacity: 1;" d="M1002.64,661.63L1040.66,576.16"/><path class="js-line" style="vector-effect: none; fill: none; stroke: rgb(136, 136, 136); stroke-opacity: 1; stroke-width: 0.5px; opacity: 1;" d="M1002.64,661.63L1447.39,680.82"/><path class="js-line" style="vector-effect: none; fill: none; stroke: rgb(136, 136, 136); stroke-opacity: 1; stroke-width: 0.5px; opacity: 1;" d="M1002.64,661.63L688.62,452.61"/><path class="js-line" style="vector-effect: none; fill: none; stroke: rgb(136, 136, 136); stroke-opacity: 1; stroke-width: 0.5px; opacity: 1;" d="M1002.64,661.63L1193.88,664.32"/><path class="js-line" style="vector-effect: none; fill: none; stroke: rgb(136, 136, 136); stroke-opacity: 1; stroke-width: 0.5px; opacity: 1;" d="M1002.64,661.63L919.18,606.71"/><path class="js-line" style="vector-effect: none; fill: none; stroke: rgb(136, 136, 136); stroke-opacity: 1; stroke-width: 0.5px; opacity: 1;" d="M1002.64,661.63L133.28,477.91"/><path class="js-line" style="vector-effect: none; fill: none; stroke: rgb(136, 136, 136); stroke-opacity: 1; stroke-width: 0.5px; opacity: 1;" d="M1002.64,661.63L1212.77,742.19"/><path class="js-line" style="vector-effect: none; fill: none; stroke: rgb(136, 136, 136); stroke-opacity: 1; stroke-width: 0.5px; opacity: 1;" d="M1002.64,661.63L1103.03,822.26"/><path class="js-line" style="vector-effect: none; fill: none; stroke: rgb(136, 136, 136); stroke-opacity: 1; stroke-width: 0.5px; opacity: 1;" d="M1002.64,661.63L919.27,689.37"/><path class="js-line" style="vector-effect: none; fill: none; stroke: rgb(136, 136, 136); stroke-opacity: 1; stroke-width: 0.5px; opacity: 1;" d="M1193.88,664.32L1447.39,680.82"/><path class="js-line" style="vector-effect: none; fill: none; stroke: rgb(136, 136, 136); stroke-opacity: 1; stroke-width: 0.5px; opacity: 1;" d="M1193.88,664.32L1524.35,1073.63"/><path class="js-line" style="vector-effect: none; fill: none; stroke: rgb(136, 136, 136); stroke-opacity: 1; stroke-width: 0.5px; opacity: 1;" d="M1193.88,664.32L1444.03,578.76"/><path class="js-line" style="vector-effect: none; fill: none; stroke: rgb(136, 136, 136); stroke-opacity: 1; stroke-width: 0.5px; opacity: 1;" d="M1193.88,664.32L1040.66,576.16"/><path class="js-line" style="vector-effect: none; fill: none; stroke: rgb(136, 136, 136); stroke-opacity: 1; stroke-width: 0.5px; opacity: 1;" d="M1193.88,664.32L919.18,606.71"/><path class="js-line" style="vector-effect: none; fill: none; stroke: rgb(136, 136, 136); stroke-opacity: 1; stroke-width: 0.5px; opacity: 1;" d="M1193.88,664.32L1212.77,742.19"/><path class="js-line" style="vector-effect: none; fill: none; stroke: rgb(136, 136, 136); stroke-opacity: 1; stroke-width: 0.5px; opacity: 1;" d="M1193.88,664.32L1103.03,822.26"/><path class="js-line" style="vector-effect: none; fill: none; stroke: rgb(136, 136, 136); stroke-opacity: 1; stroke-width: 0.5px; opacity: 1;" d="M1193.88,664.32L919.27,689.37"/><path class="js-line" style="vector-effect: none; fill: none; stroke: rgb(136, 136, 136); stroke-opacity: 1; stroke-width: 0.5px; opacity: 1;" d="M1444.03,578.76L688.62,452.61"/><path class="js-line" style="vector-effect: none; fill: none; stroke: rgb(136, 136, 136); stroke-opacity: 1; stroke-width: 0.5px; opacity: 1;" d="M1444.03,578.76L1447.39,680.82"/><path class="js-line" style="vector-effect: none; fill: none; stroke: rgb(136, 136, 136); stroke-opacity: 1; stroke-width: 0.5px; opacity: 1;" d="M1444.03,578.76L1212.77,742.19"/><path class="js-line" style="vector-effect: none; fill: none; stroke: rgb(136, 136, 136); stroke-opacity: 1; stroke-width: 0.5px; opacity: 1;" d="M1444.03,578.76L2344.73,668.98"/><path class="js-line" style="vector-effect: none; fill: none; stroke: rgb(136, 136, 136); stroke-opacity: 1; stroke-width: 0.5px; opacity: 1;" d="M1447.39,680.82L1040.66,576.16"/><path class="js-line" style="vector-effect: none; fill: none; stroke: rgb(136, 136, 136); stroke-opacity: 1; stroke-width: 0.5px; opacity: 1;" d="M1698.83,303.81L1975.57,291.56"/><path class="js-line" style="vector-effect: none; fill: none; stroke: rgb(136, 136, 136); stroke-opacity: 1; stroke-width: 0.5px; opacity: 1;" d="M1698.83,303.81L1701.31,161.77"/><path class="js-line" style="vector-effect: none; fill: none; stroke: rgb(136, 136, 136); stroke-opacity: 1; stroke-width: 0.5px; opacity: 1;" d="M1698.83,303.81L1884.84,200.67"/><path class="js-line" style="vector-effect: none; fill: none; stroke: rgb(136, 136, 136); stroke-opacity: 1; stroke-width: 0.5px; opacity: 1;" d="M1975.57,291.56L1701.31,161.77"/><path class="js-line" style="vector-effect: none; fill: none; stroke: rgb(136, 136, 136); stroke-opacity: 1; stroke-width: 0.5px; opacity: 1;" d="M1975.57,291.56L1884.84,200.67"/><path class="js-line" style="vector-effect: none; fill: none; stroke: rgb(136, 136, 136); stroke-opacity: 1; stroke-width: 0.5px; opacity: 1;" d="M1701.31,161.77L1884.84,200.67"/><path class="js-line" style="vector-effect: none; fill: none; stroke: rgb(136, 136, 136); stroke-opacity: 1; stroke-width: 0.5px; opacity: 1;" d="M560.42,667.58L525.12,560.89"/><path class="js-line" style="vector-effect: none; fill: none; stroke: rgb(136, 136, 136); stroke-opacity: 1; stroke-width: 0.5px; opacity: 1;" d="M560.42,667.58L1040.66,576.16"/><path class="js-line" style="vector-effect: none; fill: none; stroke: rgb(136, 136, 136); stroke-opacity: 1; stroke-width: 0.5px; opacity: 1;" d="M560.42,667.58L919.18,606.71"/><path class="js-line" style="vector-effect: none; fill: none; stroke: rgb(136, 136, 136); stroke-opacity: 1; stroke-width: 0.5px; opacity: 1;" d="M525.12,560.89L1040.66,576.16"/><path class="js-line" style="vector-effect: none; fill: none; stroke: rgb(136, 136, 136); stroke-opacity: 1; stroke-width: 0.5px; opacity: 1;" d="M525.12,560.89L919.18,606.71"/><path class="js-line" style="vector-effect: none; fill: none; stroke: rgb(136, 136, 136); stroke-opacity: 1; stroke-width: 0.5px; opacity: 1;" d="M280.43,669.57L1040.66,576.16"/><path class="js-line" style="vector-effect: none; fill: none; stroke: rgb(136, 136, 136); stroke-opacity: 1; stroke-width: 0.5px; opacity: 1;" d="M280.43,669.57L919.18,606.71"/><path class="js-line" style="vector-effect: none; fill: none; stroke: rgb(136, 136, 136); stroke-opacity: 1; stroke-width: 0.5px; opacity: 1;" d="M1283.86,394.35L1040.66,576.16"/><path class="js-line" style="vector-effect: none; fill: none; stroke: rgb(136, 136, 136); stroke-opacity: 1; stroke-width: 0.5px; opacity: 1;" d="M1103.03,822.26L919.18,606.71"/><path class="js-line" style="vector-effect: none; fill: none; stroke: rgb(136, 136, 136); stroke-opacity: 1; stroke-width: 0.5px; opacity: 1;" d="M1103.03,822.26L919.27,689.37"/><path class="js-line" style="vector-effect: none; fill: none; stroke: rgb(136, 136, 136); stroke-opacity: 1; stroke-width: 0.5px; opacity: 1;" d="M751.18,365.52L919.18,606.71"/><path class="js-line" style="vector-effect: none; fill: none; stroke: rgb(136, 136, 136); stroke-opacity: 1; stroke-width: 0.5px; opacity: 1;" d="M751.18,365.52L1040.66,576.16"/><path class="js-line" style="vector-effect: none; fill: none; stroke: rgb(136, 136, 136); stroke-opacity: 1; stroke-width: 0.5px; opacity: 1;" d="M919.27,689.37L919.18,606.71"/><path class="js-line" style="vector-effect: none; fill: none; stroke: rgb(136, 136, 136); stroke-opacity: 1; stroke-width: 0.5px; opacity: 1;" d="M919.27,689.37L1040.66,576.16"/><path class="js-line" style="vector-effect: none; fill: none; stroke: rgb(136, 136, 136); stroke-opacity: 1; stroke-width: 0.5px; opacity: 1;" d="M1040.66,576.16L919.18,606.71"/></g><g class="points"/><g class="text"/></g><g class="trace scatter traceb784ac" style="stroke-miterlimit: 2; opacity: 1;"><g class="fills"/><g class="errorbars"/><g class="lines"/><g class="points"><path class="point" transform="translate(1220.99,506.65)" style="opacity: 0.7; stroke-width: 2px; fill: rgb(255, 255, 217); fill-opacity: 1; stroke: rgb(255, 255, 255); stroke-opacity: 1;" d="M65,0A65,65 0 1,1 0,-65A65,65 0 0,1 65,0Z"/><path class="point" transform="translate(2039.31,622.5)" style="opacity: 0.7; stroke-width: 2px; fill: rgb(18, 37, 109); fill-opacity: 1; stroke: rgb(255, 255, 255); stroke-opacity: 1;" d="M10,0A10,10 0 1,1 0,-10A10,10 0 0,1 10,0Z"/><path class="point" transform="translate(1506.38,390.9)" style="opacity: 0.7; stroke-width: 2px; fill: rgb(18, 37, 109); fill-opacity: 1; stroke: rgb(255, 255, 255); stroke-opacity: 1;" d="M10,0A10,10 0 1,1 0,-10A10,10 0 0,1 10,0Z"/><path class="point" transform="translate(962.03,514.5)" style="opacity: 0.7; stroke-width: 2px; fill: rgb(34, 150, 193); fill-opacity: 1; stroke: rgb(255, 255, 255); stroke-opacity: 1;" d="M30,0A30,30 0 1,1 0,-30A30,30 0 0,1 30,0Z"/><path class="point" transform="translate(926.26,882.01)" style="opacity: 0.7; stroke-width: 2px; fill: rgb(36, 68, 156); fill-opacity: 1; stroke: rgb(255, 255, 255); stroke-opacity: 1;" d="M17.5,0A17.5,17.5 0 1,1 0,-17.5A17.5,17.5 0 0,1 17.5,0Z"/><path class="point" transform="translate(1122.94,648.55)" style="opacity: 0.7; stroke-width: 2px; fill: rgb(76, 186, 194); fill-opacity: 1; stroke: rgb(255, 255, 255); stroke-opacity: 1;" d="M37.5,0A37.5,37.5 0 1,1 0,-37.5A37.5,37.5 0 0,1 37.5,0Z"/><path class="point" transform="translate(1102.63,709.19)" style="opacity: 0.7; stroke-width: 2px; fill: rgb(46, 163, 194); fill-opacity: 1; stroke: rgb(255, 255, 255); stroke-opacity: 1;" d="M32.5,0A32.5,32.5 0 1,1 0,-32.5A32.5,32.5 0 0,1 32.5,0Z"/><path class="point" transform="translate(537.5,1041.92)" style="opacity: 0.7; stroke-width: 2px; fill: rgb(8, 29, 88); fill-opacity: 1; stroke: rgb(255, 255, 255); stroke-opacity: 1;" d="M7.5,0A7.5,7.5 0 1,1 0,-7.5A7.5,7.5 0 0,1 7.5,0Z"/><path class="point" transform="translate(1979.09,725.55)" style="opacity: 0.7; stroke-width: 2px; fill: rgb(18, 37, 109); fill-opacity: 1; stroke: rgb(255, 255, 255); stroke-opacity: 1;" d="M10,0A10,10 0 1,1 0,-10A10,10 0 0,1 10,0Z"/><path class="point" transform="translate(1002.64,661.63)" style="opacity: 0.7; stroke-width: 2px; fill: rgb(143, 211, 185); fill-opacity: 1; stroke: rgb(255, 255, 255); stroke-opacity: 1;" d="M45,0A45,45 0 1,1 0,-45A45,45 0 0,1 45,0Z"/><path class="point" transform="translate(1193.88,664.32)" style="opacity: 0.7; stroke-width: 2px; fill: rgb(97, 194, 191); fill-opacity: 1; stroke: rgb(255, 255, 255); stroke-opacity: 1;" d="M40,0A40,40 0 1,1 0,-40A40,40 0 0,1 40,0Z"/><path class="point" transform="translate(1444.03,578.76)" style="opacity: 0.7; stroke-width: 2px; fill: rgb(59, 176, 195); fill-opacity: 1; stroke: rgb(255, 255, 255); stroke-opacity: 1;" d="M35,0A35,35 0 1,1 0,-35A35,35 0 0,1 35,0Z"/><path class="point" transform="translate(1447.39,680.82)" style="opacity: 0.7; stroke-width: 2px; fill: rgb(35, 83, 163); fill-opacity: 1; stroke: rgb(255, 255, 255); stroke-opacity: 1;" d="M20,0A20,20 0 1,1 0,-20A20,20 0 0,1 20,0Z"/><path class="point" transform="translate(688.62,452.61)" style="opacity: 0.7; stroke-width: 2px; fill: rgb(18, 37, 109); fill-opacity: 1; stroke: rgb(255, 255, 255); stroke-opacity: 1;" d="M10,0A10,10 0 1,1 0,-10A10,10 0 0,1 10,0Z"/><path class="point" transform="translate(1698.83,303.81)" style="opacity: 0.7; stroke-width: 2px; fill: rgb(37, 54, 149); fill-opacity: 1; stroke: rgb(255, 255, 255); stroke-opacity: 1;" d="M15,0A15,15 0 1,1 0,-15A15,15 0 0,1 15,0Z"/><path class="point" transform="translate(1975.57,291.56)" style="opacity: 0.7; stroke-width: 2px; fill: rgb(37, 54, 149); fill-opacity: 1; stroke: rgb(255, 255, 255); stroke-opacity: 1;" d="M15,0A15,15 0 1,1 0,-15A15,15 0 0,1 15,0Z"/><path class="point" transform="translate(1701.31,161.77)" style="opacity: 0.7; stroke-width: 2px; fill: rgb(37, 54, 149); fill-opacity: 1; stroke: rgb(255, 255, 255); stroke-opacity: 1;" d="M15,0A15,15 0 1,1 0,-15A15,15 0 0,1 15,0Z"/><path class="point" transform="translate(1884.84,200.67)" style="opacity: 0.7; stroke-width: 2px; fill: rgb(37, 54, 149); fill-opacity: 1; stroke: rgb(255, 255, 255); stroke-opacity: 1;" d="M15,0A15,15 0 1,1 0,-15A15,15 0 0,1 15,0Z"/><path class="point" transform="translate(1524.35,1073.63)" style="opacity: 0.7; stroke-width: 2px; fill: rgb(8, 29, 88); fill-opacity: 1; stroke: rgb(255, 255, 255); stroke-opacity: 1;" d="M7.5,0A7.5,7.5 0 1,1 0,-7.5A7.5,7.5 0 0,1 7.5,0Z"/><path class="point" transform="translate(560.42,667.58)" style="opacity: 0.7; stroke-width: 2px; fill: rgb(37, 54, 149); fill-opacity: 1; stroke: rgb(255, 255, 255); stroke-opacity: 1;" d="M15,0A15,15 0 1,1 0,-15A15,15 0 0,1 15,0Z"/><path class="point" transform="translate(525.12,560.89)" style="opacity: 0.7; stroke-width: 2px; fill: rgb(37, 54, 149); fill-opacity: 1; stroke: rgb(255, 255, 255); stroke-opacity: 1;" d="M15,0A15,15 0 1,1 0,-15A15,15 0 0,1 15,0Z"/><path class="point" transform="translate(280.43,669.57)" style="opacity: 0.7; stroke-width: 2px; fill: rgb(18, 37, 109); fill-opacity: 1; stroke: rgb(255, 255, 255); stroke-opacity: 1;" d="M10,0A10,10 0 1,1 0,-10A10,10 0 0,1 10,0Z"/><path class="point" transform="translate(810.38,101.26)" style="opacity: 0.7; stroke-width: 2px; fill: rgb(8, 29, 88); fill-opacity: 1; stroke: rgb(255, 255, 255); stroke-opacity: 1;" d="M7.5,0A7.5,7.5 0 1,1 0,-7.5A7.5,7.5 0 0,1 7.5,0Z"/><path class="point" transform="translate(1283.86,394.35)" style="opacity: 0.7; stroke-width: 2px; fill: rgb(18, 37, 109); fill-opacity: 1; stroke: rgb(255, 255, 255); stroke-opacity: 1;" d="M10,0A10,10 0 1,1 0,-10A10,10 0 0,1 10,0Z"/><path class="point" transform="translate(1212.77,742.19)" style="opacity: 0.7; stroke-width: 2px; fill: rgb(34, 98, 170); fill-opacity: 1; stroke: rgb(255, 255, 255); stroke-opacity: 1;" d="M22.5,0A22.5,22.5 0 1,1 0,-22.5A22.5,22.5 0 0,1 22.5,0Z"/><path class="point" transform="translate(2344.73,668.98)" style="opacity: 0.7; stroke-width: 2px; fill: rgb(8, 29, 88); fill-opacity: 1; stroke: rgb(255, 255, 255); stroke-opacity: 1;" d="M7.5,0A7.5,7.5 0 1,1 0,-7.5A7.5,7.5 0 0,1 7.5,0Z"/><path class="point" transform="translate(1243.75,66.37)" style="opacity: 0.7; stroke-width: 2px; fill: rgb(8, 29, 88); fill-opacity: 1; stroke: rgb(255, 255, 255); stroke-opacity: 1;" d="M7.5,0A7.5,7.5 0 1,1 0,-7.5A7.5,7.5 0 0,1 7.5,0Z"/><path class="point" transform="translate(133.28,477.91)" style="opacity: 0.7; stroke-width: 2px; fill: rgb(8, 29, 88); fill-opacity: 1; stroke: rgb(255, 255, 255); stroke-opacity: 1;" d="M7.5,0A7.5,7.5 0 1,1 0,-7.5A7.5,7.5 0 0,1 7.5,0Z"/><path class="point" transform="translate(1103.03,822.26)" style="opacity: 0.7; stroke-width: 2px; fill: rgb(32, 116, 178); fill-opacity: 1; stroke: rgb(255, 255, 255); stroke-opacity: 1;" d="M25,0A25,25 0 1,1 0,-25A25,25 0 0,1 25,0Z"/><path class="point" transform="translate(751.18,365.52)" style="opacity: 0.7; stroke-width: 2px; fill: rgb(37, 54, 149); fill-opacity: 1; stroke: rgb(255, 255, 255); stroke-opacity: 1;" d="M15,0A15,15 0 1,1 0,-15A15,15 0 0,1 15,0Z"/><path class="point" transform="translate(919.27,689.37)" style="opacity: 0.7; stroke-width: 2px; fill: rgb(32, 116, 178); fill-opacity: 1; stroke: rgb(255, 255, 255); stroke-opacity: 1;" d="M25,0A25,25 0 1,1 0,-25A25,25 0 0,1 25,0Z"/><path class="point" transform="translate(1020.68,268.89)" style="opacity: 0.7; stroke-width: 2px; fill: rgb(18, 37, 109); fill-opacity: 1; stroke: rgb(255, 255, 255); stroke-opacity: 1;" d="M10,0A10,10 0 1,1 0,-10A10,10 0 0,1 10,0Z"/><path class="point" transform="translate(1040.66,576.16)" style="opacity: 0.7; stroke-width: 2px; fill: rgb(97, 194, 191); fill-opacity: 1; stroke: rgb(255, 255, 255); stroke-opacity: 1;" d="M40,0A40,40 0 1,1 0,-40A40,40 0 0,1 40,0Z"/><path class="point" transform="translate(919.18,606.71)" style="opacity: 0.7; stroke-width: 2px; fill: rgb(97, 194, 191); fill-opacity: 1; stroke: rgb(255, 255, 255); stroke-opacity: 1;" d="M40,0A40,40 0 1,1 0,-40A40,40 0 0,1 40,0Z"/></g><g class="text"><g class="textpoint" transform="translate(0,-84.75)"><text x="1220.99" y="506.65" style="font-family: TOBESTRIPPEDOpen SansTOBESTRIPPED, verdana, arial, sans-serif; font-size: 10px; fill: rgb(42, 63, 95); fill-opacity: 1; white-space: pre;" text-anchor="middle">Luke Skywalker: 24 connections</text></g><g class="textpoint" transform="translate(0,-16)"><text x="2039.31" y="622.5" style="font-family: TOBESTRIPPEDOpen SansTOBESTRIPPED, verdana, arial, sans-serif; font-size: 10px; fill: rgb(42, 63, 95); fill-opacity: 1; white-space: pre;" text-anchor="middle">Admiral Piett: 2 connections</text></g><g class="textpoint" transform="translate(0,-16)"><text x="1506.38" y="390.9" style="font-family: TOBESTRIPPEDOpen SansTOBESTRIPPED, verdana, arial, sans-serif; font-size: 10px; fill: rgb(42, 63, 95); fill-opacity: 1; white-space: pre;" text-anchor="middle">Emperor Palpatine: 2 connections</text></g><g class="textpoint" transform="translate(0,-41)"><text x="962.03" y="514.5" style="font-family: TOBESTRIPPEDOpen SansTOBESTRIPPED, verdana, arial, sans-serif; font-size: 10px; fill: rgb(42, 63, 95); fill-opacity: 1; white-space: pre;" text-anchor="middle">Jabba the Hutt: 10 connections</text></g><g class="textpoint" transform="translate(0,-25.375)"><text x="926.26" y="882.01" style="font-family: TOBESTRIPPEDOpen SansTOBESTRIPPED, verdana, arial, sans-serif; font-size: 10px; fill: rgb(42, 63, 95); fill-opacity: 1; white-space: pre;" text-anchor="middle">Mon Mothma: 5 connections</text></g><g class="textpoint" transform="translate(0,-50.375)"><text x="1122.94" y="648.55" style="font-family: TOBESTRIPPEDOpen SansTOBESTRIPPED, verdana, arial, sans-serif; font-size: 10px; fill: rgb(42, 63, 95); fill-opacity: 1; white-space: pre;" text-anchor="middle">Chewbacca: 13 connections</text></g><g class="textpoint" transform="translate(0,-44.125)"><text x="1102.63" y="709.19" style="font-family: TOBESTRIPPEDOpen SansTOBESTRIPPED, verdana, arial, sans-serif; font-size: 10px; fill: rgb(42, 63, 95); fill-opacity: 1; white-space: pre;" text-anchor="middle">Lando Calrissian: 11 connections</text></g><g class="textpoint" transform="translate(0,-12.875)"><text x="537.5" y="1041.92" style="font-family: TOBESTRIPPEDOpen SansTOBESTRIPPED, verdana, arial, sans-serif; font-size: 10px; fill: rgb(42, 63, 95); fill-opacity: 1; white-space: pre;" text-anchor="middle">Wicket W. Warrick: 1 connections</text></g><g class="textpoint" transform="translate(0,-16)"><text x="1979.09" y="725.55" style="font-family: TOBESTRIPPEDOpen SansTOBESTRIPPED, verdana, arial, sans-serif; font-size: 10px; fill: rgb(42, 63, 95); fill-opacity: 1; white-space: pre;" text-anchor="middle">Admiral Ozzel: 2 connections</text></g><g class="textpoint" transform="translate(0,-59.75)"><text x="1002.64" y="661.63" style="font-family: TOBESTRIPPEDOpen SansTOBESTRIPPED, verdana, arial, sans-serif; font-size: 10px; fill: rgb(42, 63, 95); fill-opacity: 1; white-space: pre;" text-anchor="middle">Leia Organa: 16 connections</text></g><g class="textpoint" transform="translate(0,-53.5)"><text x="1193.88" y="664.32" style="font-family: TOBESTRIPPEDOpen SansTOBESTRIPPED, verdana, arial, sans-serif; font-size: 10px; fill: rgb(42, 63, 95); fill-opacity: 1; white-space: pre;" text-anchor="middle">Han Solo: 14 connections</text></g><g class="textpoint" transform="translate(0,-47.25)"><text x="1444.03" y="578.76" style="font-family: TOBESTRIPPEDOpen SansTOBESTRIPPED, verdana, arial, sans-serif; font-size: 10px; fill: rgb(42, 63, 95); fill-opacity: 1; white-space: pre;" text-anchor="middle">Darth Vader: 12 connections</text></g><g class="textpoint" transform="translate(0,-28.5)"><text x="1447.39" y="680.82" style="font-family: TOBESTRIPPEDOpen SansTOBESTRIPPED, verdana, arial, sans-serif; font-size: 10px; fill: rgb(42, 63, 95); fill-opacity: 1; white-space: pre;" text-anchor="middle">Obi-Wan Kenobi: 6 connections</text></g><g class="textpoint" transform="translate(0,-16)"><text x="688.62" y="452.61" style="font-family: TOBESTRIPPEDOpen SansTOBESTRIPPED, verdana, arial, sans-serif; font-size: 10px; fill: rgb(42, 63, 95); fill-opacity: 1; white-space: pre;" text-anchor="middle">Grand Moff Tarkin: 2 connections</text></g><g class="textpoint" transform="translate(0,-22.25)"><text x="1698.83" y="303.81" style="font-family: TOBESTRIPPEDOpen SansTOBESTRIPPED, verdana, arial, sans-serif; font-size: 10px; fill: rgb(42, 63, 95); fill-opacity: 1; white-space: pre;" text-anchor="middle">Biggs Darklighter: 4 connections</text></g><g class="textpoint" transform="translate(0,-22.25)"><text x="1975.57" y="291.56" style="font-family: TOBESTRIPPEDOpen SansTOBESTRIPPED, verdana, arial, sans-serif; font-size: 10px; fill: rgb(42, 63, 95); fill-opacity: 1; white-space: pre;" text-anchor="middle">Wedge Antilles: 4 connections</text></g><g class="textpoint" transform="translate(0,-22.25)"><text x="1701.31" y="161.77" style="font-family: TOBESTRIPPEDOpen SansTOBESTRIPPED, verdana, arial, sans-serif; font-size: 10px; fill: rgb(42, 63, 95); fill-opacity: 1; white-space: pre;" text-anchor="middle">Garven Dreis: 4 connections</text></g><g class="textpoint" transform="translate(0,-22.25)"><text x="1884.84" y="200.67" style="font-family: TOBESTRIPPEDOpen SansTOBESTRIPPED, verdana, arial, sans-serif; font-size: 10px; fill: rgb(42, 63, 95); fill-opacity: 1; white-space: pre;" text-anchor="middle">Jon Vander: 4 connections</text></g><g class="textpoint" transform="translate(0,-12.875)"><text x="1524.35" y="1073.63" style="font-family: TOBESTRIPPEDOpen SansTOBESTRIPPED, verdana, arial, sans-serif; font-size: 10px; fill: rgb(42, 63, 95); fill-opacity: 1; white-space: pre;" text-anchor="middle">Greedo: 1 connections</text></g><g class="textpoint" transform="translate(0,-22.25)"><text x="560.42" y="667.58" style="font-family: TOBESTRIPPEDOpen SansTOBESTRIPPED, verdana, arial, sans-serif; font-size: 10px; fill: rgb(42, 63, 95); fill-opacity: 1; white-space: pre;" text-anchor="middle">Owen Lars: 4 connections</text></g><g class="textpoint" transform="translate(0,-22.25)"><text x="525.12" y="560.89" style="font-family: TOBESTRIPPEDOpen SansTOBESTRIPPED, verdana, arial, sans-serif; font-size: 10px; fill: rgb(42, 63, 95); fill-opacity: 1; white-space: pre;" text-anchor="middle">Beru Lars: 4 connections</text></g><g class="textpoint" transform="translate(0,-16)"><text x="280.43" y="669.57" style="font-family: TOBESTRIPPEDOpen SansTOBESTRIPPED, verdana, arial, sans-serif; font-size: 10px; fill: rgb(42, 63, 95); fill-opacity: 1; white-space: pre;" text-anchor="middle">Jawas: 2 connections</text></g><g class="textpoint" transform="translate(0,-12.875)"><text x="810.38" y="101.26" style="font-family: TOBESTRIPPEDOpen SansTOBESTRIPPED, verdana, arial, sans-serif; font-size: 10px; fill: rgb(42, 63, 95); fill-opacity: 1; white-space: pre;" text-anchor="middle">Tusken Raiders: 1 connections</text></g><g class="textpoint" transform="translate(0,-16)"><text x="1283.86" y="394.35" style="font-family: TOBESTRIPPEDOpen SansTOBESTRIPPED, verdana, arial, sans-serif; font-size: 10px; fill: rgb(42, 63, 95); fill-opacity: 1; white-space: pre;" text-anchor="middle">Yoda: 2 connections</text></g><g class="textpoint" transform="translate(0,-31.625)"><text x="1212.77" y="742.19" style="font-family: TOBESTRIPPEDOpen SansTOBESTRIPPED, verdana, arial, sans-serif; font-size: 10px; fill: rgb(42, 63, 95); fill-opacity: 1; white-space: pre;" text-anchor="middle">Boba Fett: 7 connections</text></g><g class="textpoint" transform="translate(0,-12.875)"><text x="2344.73" y="668.98" style="font-family: TOBESTRIPPEDOpen SansTOBESTRIPPED, verdana, arial, sans-serif; font-size: 10px; fill: rgb(42, 63, 95); fill-opacity: 1; white-space: pre;" text-anchor="middle">Captain Needa: 1 connections</text></g><g class="textpoint" transform="translate(0,-12.875)"><text x="1243.75" y="66.37" style="font-family: TOBESTRIPPEDOpen SansTOBESTRIPPED, verdana, arial, sans-serif; font-size: 10px; fill: rgb(42, 63, 95); fill-opacity: 1; white-space: pre;" text-anchor="middle">Wampa: 1 connections</text></g><g class="textpoint" transform="translate(0,-12.875)"><text x="133.28" y="477.91" style="font-family: TOBESTRIPPEDOpen SansTOBESTRIPPED, verdana, arial, sans-serif; font-size: 10px; fill: rgb(42, 63, 95); fill-opacity: 1; white-space: pre;" text-anchor="middle">Rebel Officer: 1 connections</text></g><g class="textpoint" transform="translate(0,-34.75)"><text x="1103.03" y="822.26" style="font-family: TOBESTRIPPEDOpen SansTOBESTRIPPED, verdana, arial, sans-serif; font-size: 10px; fill: rgb(42, 63, 95); fill-opacity: 1; white-space: pre;" text-anchor="middle">Admiral Ackbar: 8 connections</text></g><g class="textpoint" transform="translate(0,-22.25)"><text x="751.18" y="365.52" style="font-family: TOBESTRIPPEDOpen SansTOBESTRIPPED, verdana, arial, sans-serif; font-size: 10px; fill: rgb(42, 63, 95); fill-opacity: 1; white-space: pre;" text-anchor="middle">Bib Fortuna: 4 connections</text></g><g class="textpoint" transform="translate(0,-34.75)"><text x="919.27" y="689.37" style="font-family: TOBESTRIPPEDOpen SansTOBESTRIPPED, verdana, arial, sans-serif; font-size: 10px; fill: rgb(42, 63, 95); fill-opacity: 1; white-space: pre;" text-anchor="middle">Ewoks: 8 connections</text></g><g class="textpoint" transform="translate(0,-16)"><text x="1020.68" y="268.89" style="font-family: TOBESTRIPPEDOpen SansTOBESTRIPPED, verdana, arial, sans-serif; font-size: 10px; fill: rgb(42, 63, 95); fill-opacity: 1; white-space: pre;" text-anchor="middle">Rancor: 2 connections</text></g><g class="textpoint" transform="translate(0,-53.5)"><text x="1040.66" y="576.16" style="font-family: TOBESTRIPPEDOpen SansTOBESTRIPPED, verdana, arial, sans-serif; font-size: 10px; fill: rgb(42, 63, 95); fill-opacity: 1; white-space: pre;" text-anchor="middle">R2-D2: 14 connections</text></g><g class="textpoint" transform="translate(0,-53.5)"><text x="919.18" y="606.71" style="font-family: TOBESTRIPPEDOpen SansTOBESTRIPPED, verdana, arial, sans-serif; font-size: 10px; fill: rgb(42, 63, 95); fill-opacity: 1; white-space: pre;" text-anchor="middle">C-3PO: 14 connections</text></g></g></g></g></g></g><path class="xlines-above crisp" style="fill: none;" d="M0,0"/><path class="ylines-above crisp" style="fill: none;" d="M0,0"/><g class="overlines-above"/><g class="xaxislayer-above"/><g class="yaxislayer-above"/><g class="overaxes-above"/></g></g><g class="polarlayer"/><g class="smithlayer"/><g class="ternarylayer"/><g class="geolayer"/><g class="funnelarealayer"/><g class="pielayer"/><g class="iciclelayer"/><g class="treemaplayer"/><g class="sunburstlayer"/><g class="glimages"/><defs id="topdefs-11545d"><g class="clips"/></defs><g class="layer-above"><g class="imagelayer"/><g class="shapelayer"/></g><g class="infolayer"><g class="cbb784ac colorbar" transform="translate(5,40)"><rect class="cbbg" x="2527.5" y="0" width="62.599945068359375" height="1141" style="fill: rgb(0, 0, 0); fill-opacity: 0; stroke: rgb(68, 68, 68); stroke-opacity: 1; stroke-width: 0px;"/><g class="cbfills" transform="translate(0,10)"><rect class="cbfill gradient_filled" style="fill: url('#g11545d-cbb784ac');" x="2538" y="0" width="15" height="1120"/></g><g class="cblines" transform="translate(0,10)"/><g class="cbaxis crisp" transform="translate(0,-40)"><g class="ycbb784actick"><text text-anchor="start" x="2556.4" y="4.199999999999999" style="font-family: TOBESTRIPPEDOpen SansTOBESTRIPPED, verdana, arial, sans-serif; font-size: 12px; fill: rgb(42, 63, 95); fill-opacity: 1; white-space: pre; opacity: 1;" transform="translate(0,975.22)">5</text></g><g class="ycbb784actick"><text text-anchor="start" x="2556.4" y="4.199999999999999" style="font-family: TOBESTRIPPEDOpen SansTOBESTRIPPED, verdana, arial, sans-serif; font-size: 12px; fill: rgb(42, 63, 95); fill-opacity: 1; white-space: pre; opacity: 1;" transform="translate(0,731.74)">10</text></g><g class="ycbb784actick"><text text-anchor="start" x="2556.4" y="4.199999999999999" style="font-family: TOBESTRIPPEDOpen SansTOBESTRIPPED, verdana, arial, sans-serif; font-size: 12px; fill: rgb(42, 63, 95); fill-opacity: 1; white-space: pre; opacity: 1;" transform="translate(0,488.26)">15</text></g><g class="ycbb784actick"><text text-anchor="start" x="2556.4" y="4.199999999999999" style="font-family: TOBESTRIPPEDOpen SansTOBESTRIPPED, verdana, arial, sans-serif; font-size: 12px; fill: rgb(42, 63, 95); fill-opacity: 1; white-space: pre; opacity: 1;" transform="translate(0,244.78000000000003)">20</text></g></g><g class="cbtitleunshift" transform="translate(-5,-40)"><g class="cbtitle"><text class="hycbb784actitle" transform="rotate(-90,2581.56,610)" style="opacity: 1; font-family: TOBESTRIPPEDOpen SansTOBESTRIPPED, verdana, arial, sans-serif; font-size: 14px; fill: rgb(42, 63, 95); fill-opacity: 1; white-space: pre;" x="2581.56" y="610" text-anchor="middle">Number of Connections</text></g></g><rect class="cboutline" x="2538" y="10" width="15" height="1120" style="stroke: rgb(68, 68, 68); stroke-opacity: 1; fill: none; stroke-width: 1px;"/></g><g class="g-gtitle"><text class="gtitle" style="opacity: 1; font-family: TOBESTRIPPEDOpen SansTOBESTRIPPED, verdana, arial, sans-serif; font-size: 16px; fill: rgb(42, 63, 95); fill-opacity: 1; white-space: pre;" x="130" y="20" text-anchor="start" dy="0em">Character Interaction Network in Star Wars Trilogy</text></g><g class="g-xtitle"/><g class="g-ytitle"/></g></svg>