<svg class="main-svg" xmlns="http://www.w3.org/2000/svg" xmlns:xlink="http://www.w3.org/1999/xlink" width="2940.23" height="525" style="" viewBox="0 0 2940.23 525"><rect x="0" y="0" width="2940.23" height="525" style="fill: rgb(255, 255, 255); fill-opacity: 1;"/><defs id="defs-88d319"><g class="clips"><clipPath id="clip88d319xyplot" class="plotclip"><rect width="2780" height="345"/></clipPath><clipPath class="axesclip" id="clip88d319x"><rect x="80" y="0" width="2780" height="525"/></clipPath><clipPath class="axesclip" id="clip88d319y"><rect x="0" y="100" width="2940.23" height="345"/></clipPath><clipPath class="axesclip" id="clip88d319xy"><rect x="80" y="100" width="2780" height="345"/></clipPath></g><g class="gradients"/><g class="patterns"/></defs><g class="bglayer"><rect class="bg" x="80" y="100" width="2780" height="345" style="fill: rgb(229, 236, 246); fill-opacity: 1; stroke-width: 0px;"/></g><g class="layer-below"><g class="imagelayer"/><g class="shapelayer"/></g><g class="cartesianlayer"><g class="subplot xy"><g class="layer-subplot"><g class="shapelayer"/><g class="imagelayer"/></g><g class="minor-gridlayer"><g class="x"/><g class="y"/></g><g class="gridlayer"><g class="x"><path class="xgrid crisp" transform="translate(226.5,0)" d="M0,100v345" style="stroke: rgb(255, 255, 255); stroke-opacity: 1; stroke-width: 1px;"/><path class="xgrid crisp" transform="translate(452.59,0)" d="M0,100v345" style="stroke: rgb(255, 255, 255); stroke-opacity: 1; stroke-width: 1px;"/><path class="xgrid crisp" transform="translate(678.68,0)" d="M0,100v345" style="stroke: rgb(255, 255, 255); stroke-opacity: 1; stroke-width: 1px;"/><path class="xgrid crisp" transform="translate(904.77,0)" d="M0,100v345" style="stroke: rgb(255, 255, 255); stroke-opacity: 1; stroke-width: 1px;"/><path class="xgrid crisp" transform="translate(1130.86,0)" d="M0,100v345" style="stroke: rgb(255, 255, 255); stroke-opacity: 1; stroke-width: 1px;"/><path class="xgrid crisp" transform="translate(1356.95,0)" d="M0,100v345" style="stroke: rgb(255, 255, 255); stroke-opacity: 1; stroke-width: 1px;"/><path class="xgrid crisp" transform="translate(1583.05,0)" d="M0,100v345" style="stroke: rgb(255, 255, 255); stroke-opacity: 1; stroke-width: 1px;"/><path class="xgrid crisp" transform="translate(1809.14,0)" d="M0,100v345" style="stroke: rgb(255, 255, 255); stroke-opacity: 1; stroke-width: 1px;"/><path class="xgrid crisp" transform="translate(2035.23,0)" d="M0,100v345" style="stroke: rgb(255, 255, 255); stroke-opacity: 1; stroke-width: 1px;"/><path class="xgrid crisp" transform="translate(2261.32,0)" d="M0,100v345" style="stroke: rgb(255, 255, 255); stroke-opacity: 1; stroke-width: 1px;"/><path class="xgrid crisp" transform="translate(2487.41,0)" d="M0,100v345" style="stroke: rgb(255, 255, 255); stroke-opacity: 1; stroke-width: 1px;"/><path class="xgrid crisp" transform="translate(2713.5,0)" d="M0,100v345" style="stroke: rgb(255, 255, 255); stroke-opacity: 1; stroke-width: 1px;"/></g><g class="y"/></g><g class="zerolinelayer"/><g class="layer-between"><g class="shapelayer"/><g class="imagelayer"/></g><path class="xlines-below"/><path class="ylines-below"/><g class="overlines-below"/><g class="xaxislayer-below"/><g class="yaxislayer-below"/><g class="overaxes-below"/><g class="overplot"><g class="xy" transform="translate(80,100)" clip-path="url(#clip88d319xyplot)"><g class="scatterlayer mlayer"><g class="trace scatter tracef781cb" style="stroke-miterlimit: 2; opacity: 1;"><g class="fills"/><g class="errorbars"/><g class="lines"><path class="js-line" style="vector-effect: none; fill: none; stroke: rgb(220, 176, 242); stroke-opacity: 1; stroke-dasharray: 3px, 3px; stroke-width: 1px; opacity: 1;" d="M146.5,172.5L2633.5,172.5"/></g><g class="points"><path class="point" transform="translate(146.5,172.5)" style="opacity: 1; stroke-width: 0px; fill: rgb(248, 156, 116); fill-opacity: 1;" d="M6,0A6,6 0 1,1 0,-6A6,6 0 0,1 6,0Z"/><path class="point" transform="translate(372.59,172.5)" style="opacity: 1; stroke-width: 0px; fill: rgb(248, 156, 116); fill-opacity: 1;" d="M6,0A6,6 0 1,1 0,-6A6,6 0 0,1 6,0Z"/><path class="point" transform="translate(598.68,172.5)" style="opacity: 1; stroke-width: 0px; fill: rgb(248, 156, 116); fill-opacity: 1;" d="M6,0A6,6 0 1,1 0,-6A6,6 0 0,1 6,0Z"/><path class="point" transform="translate(824.77,172.5)" style="opacity: 1; stroke-width: 0px; fill: rgb(248, 156, 116); fill-opacity: 1;" d="M6,0A6,6 0 1,1 0,-6A6,6 0 0,1 6,0Z"/><path class="point" transform="translate(1050.86,172.5)" style="opacity: 1; stroke-width: 0px; fill: rgb(248, 156, 116); fill-opacity: 1;" d="M6,0A6,6 0 1,1 0,-6A6,6 0 0,1 6,0Z"/><path class="point" transform="translate(1276.95,172.5)" style="opacity: 1; stroke-width: 0px; fill: rgb(248, 156, 116); fill-opacity: 1;" d="M6,0A6,6 0 1,1 0,-6A6,6 0 0,1 6,0Z"/><path class="point" transform="translate(1503.05,172.5)" style="opacity: 1; stroke-width: 0px; fill: rgb(248, 156, 116); fill-opacity: 1;" d="M6,0A6,6 0 1,1 0,-6A6,6 0 0,1 6,0Z"/><path class="point" transform="translate(1729.14,172.5)" style="opacity: 1; stroke-width: 0px; fill: rgb(248, 156, 116); fill-opacity: 1;" d="M6,0A6,6 0 1,1 0,-6A6,6 0 0,1 6,0Z"/><path class="point" transform="translate(1955.23,172.5)" style="opacity: 1; stroke-width: 0px; fill: rgb(248, 156, 116); fill-opacity: 1;" d="M6,0A6,6 0 1,1 0,-6A6,6 0 0,1 6,0Z"/><path class="point" transform="translate(2181.32,172.5)" style="opacity: 1; stroke-width: 0px; fill: rgb(248, 156, 116); fill-opacity: 1;" d="M6,0A6,6 0 1,1 0,-6A6,6 0 0,1 6,0Z"/><path class="point" transform="translate(2407.41,172.5)" style="opacity: 1; stroke-width: 0px; fill: rgb(248, 156, 116); fill-opacity: 1;" d="M6,0A6,6 0 1,1 0,-6A6,6 0 0,1 6,0Z"/><path class="point" transform="translate(2633.5,172.5)" style="opacity: 1; stroke-width: 0px; fill: rgb(248, 156, 116); fill-opacity: 1;" d="M6,0A6,6 0 1,1 0,-6A6,6 0 0,1 6,0Z"/></g><g class="text"><g class="textpoint" transform="translate(0,-11.5)"><text x="146.5" y="172.5" style="font-family: TOBESTRIPPEDOpen SansTOBESTRIPPED, verdana, arial, sans-serif; font-size: 12px; fill: rgb(42, 63, 95); fill-opacity: 1; white-space: pre;" text-anchor="middle">Frodo Receives Ring</text></g><g class="textpoint" transform="translate(0,-11.5)"><text x="372.59" y="172.5" style="font-family: TOBESTRIPPEDOpen SansTOBESTRIPPED, verdana, arial, sans-serif; font-size: 12px; fill: rgb(42, 63, 95); fill-opacity: 1; white-space: pre;" text-anchor="middle">Council of Elrond</text></g><g class="textpoint" transform="translate(0,-11.5)"><text x="598.68" y="172.5" style="font-family: TOBESTRIPPEDOpen SansTOBESTRIPPED, verdana, arial, sans-serif; font-size: 12px; fill: rgb(42, 63, 95); fill-opacity: 1; white-space: pre;" text-anchor="middle">Journey South</text></g><g class="textpoint" transform="translate(0,-11.5)"><text x="824.77" y="172.5" style="font-family: TOBESTRIPPEDOpen SansTOBESTRIPPED, verdana, arial, sans-serif; font-size: 12px; fill: rgb(42, 63, 95); fill-opacity: 1; white-space: pre;" text-anchor="middle">Boromir Tempted (LOC11)</text></g><g class="textpoint" transform="translate(0,-11.5)"><text x="1050.86" y="172.5" style="font-family: TOBESTRIPPEDOpen SansTOBESTRIPPED, verdana, arial, sans-serif; font-size: 12px; fill: rgb(42, 63, 95); fill-opacity: 1; white-space: pre;" text-anchor="middle">Frodo &amp; Sam Journey East</text></g><g class="textpoint" transform="translate(0,-11.5)"><text x="1276.95" y="172.5" style="font-family: TOBESTRIPPEDOpen SansTOBESTRIPPED, verdana, arial, sans-serif; font-size: 12px; fill: rgb(42, 63, 95); fill-opacity: 1; white-space: pre;" text-anchor="middle">Gollum Guides</text></g><g class="textpoint" transform="translate(0,-11.5)"><text x="1503.05" y="172.5" style="font-family: TOBESTRIPPEDOpen SansTOBESTRIPPED, verdana, arial, sans-serif; font-size: 12px; fill: rgb(42, 63, 95); fill-opacity: 1; white-space: pre;" text-anchor="middle">Captured by Faramir</text></g><g class="textpoint" transform="translate(0,-11.5)"><text x="1729.14" y="172.5" style="font-family: TOBESTRIPPEDOpen SansTOBESTRIPPED, verdana, arial, sans-serif; font-size: 12px; fill: rgb(42, 63, 95); fill-opacity: 1; white-space: pre;" text-anchor="middle">Cirith Ungol (LOC12)</text></g><g class="textpoint" transform="translate(0,-11.5)"><text x="1955.23" y="172.5" style="font-family: TOBESTRIPPEDOpen SansTOBESTRIPPED, verdana, arial, sans-serif; font-size: 12px; fill: rgb(42, 63, 95); fill-opacity: 1; white-space: pre;" text-anchor="middle">Sam Bears Ring (briefly)</text></g><g class="textpoint" transform="translate(0,-11.5)"><text x="2181.32" y="172.5" style="font-family: TOBESTRIPPEDOpen SansTOBESTRIPPED, verdana, arial, sans-serif; font-size: 12px; fill: rgb(42, 63, 95); fill-opacity: 1; white-space: pre;" text-anchor="middle">Mount Doom (LOC07)</text></g><g class="textpoint" transform="translate(0,-11.5)"><text x="2407.41" y="172.5" style="font-family: TOBESTRIPPEDOpen SansTOBESTRIPPED, verdana, arial, sans-serif; font-size: 12px; fill: rgb(42, 63, 95); fill-opacity: 1; white-space: pre;" text-anchor="middle">Gollum Takes Ring</text></g><g class="textpoint" transform="translate(0,-11.5)"><text x="2633.5" y="172.5" style="font-family: TOBESTRIPPEDOpen SansTOBESTRIPPED, verdana, arial, sans-serif; font-size: 12px; fill: rgb(42, 63, 95); fill-opacity: 1; white-space: pre;" text-anchor="middle">Ring Destroyed</text></g></g></g></g></g></g><path class="xlines-above crisp" style="fill: none;" d="M0,0"/><path class="ylines-above crisp" style="fill: none;" d="M0,0"/><g class="overlines-above"/><g class="xaxislayer-above"><g class="xtick"><text text-anchor="middle" x="0" y="458" style="font-family: TOBESTRIPPEDOpen SansTOBESTRIPPED, verdana, arial, sans-serif; font-size: 12px; fill: rgb(42, 63, 95); fill-opacity: 1; white-space: pre; opacity: 1;" transform="translate(226.5,0)">1</text></g><g class="xtick"><text text-anchor="middle" x="0" y="458" style="font-family: TOBESTRIPPEDOpen SansTOBESTRIPPED, verdana, arial, sans-serif; font-size: 12px; fill: rgb(42, 63, 95); fill-opacity: 1; white-space: pre; opacity: 1;" transform="translate(452.59,0)">2</text></g><g class="xtick"><text text-anchor="middle" x="0" y="458" style="font-family: TOBESTRIPPEDOpen SansTOBESTRIPPED, verdana, arial, sans-serif; font-size: 12px; fill: rgb(42, 63, 95); fill-opacity: 1; white-space: pre; opacity: 1;" transform="translate(678.68,0)">3</text></g><g class="xtick"><text text-anchor="middle" x="0" y="458" style="font-family: TOBESTRIPPEDOpen SansTOBESTRIPPED, verdana, arial, sans-serif; font-size: 12px; fill: rgb(42, 63, 95); fill-opacity: 1; white-space: pre; opacity: 1;" transform="translate(904.77,0)">4</text></g><g class="xtick"><text text-anchor="middle" x="0" y="458" style="font-family: TOBESTRIPPEDOpen SansTOBESTRIPPED, verdana, arial, sans-serif; font-size: 12px; fill: rgb(42, 63, 95); fill-opacity: 1; white-space: pre; opacity: 1;" transform="translate(1130.86,0)">5</text></g><g class="xtick"><text text-anchor="middle" x="0" y="458" style="font-family: TOBESTRIPPEDOpen SansTOBESTRIPPED, verdana, arial, sans-serif; font-size: 12px; fill: rgb(42, 63, 95); fill-opacity: 1; white-space: pre; opacity: 1;" transform="translate(1356.95,0)">6</text></g><g class="xtick"><text text-anchor="middle" x="0" y="458" style="font-family: TOBESTRIPPEDOpen SansTOBESTRIPPED, verdana, arial, sans-serif; font-size: 12px; fill: rgb(42, 63, 95); fill-opacity: 1; white-space: pre; opacity: 1;" transform="translate(1583.05,0)">7</text></g><g class="xtick"><text text-anchor="middle" x="0" y="458" style="font-family: TOBESTRIPPEDOpen SansTOBESTRIPPED, verdana, arial, sans-serif; font-size: 12px; fill: rgb(42, 63, 95); fill-opacity: 1; white-space: pre; opacity: 1;" transform="translate(1809.14,0)">8</text></g><g class="xtick"><text text-anchor="middle" x="0" y="458" style="font-family: TOBESTRIPPEDOpen SansTOBESTRIPPED, verdana, arial, sans-serif; font-size: 12px; fill: rgb(42, 63, 95); fill-opacity: 1; white-space: pre; opacity: 1;" transform="translate(2035.23,0)">9</text></g><g class="xtick"><text text-anchor="middle" x="0" y="458" style="font-family: TOBESTRIPPEDOpen SansTOBESTRIPPED, verdana, arial, sans-serif; font-size: 12px; fill: rgb(42, 63, 95); fill-opacity: 1; white-space: pre; opacity: 1;" transform="translate(2261.32,0)">10</text></g><g class="xtick"><text text-anchor="middle" x="0" y="458" style="font-family: TOBESTRIPPEDOpen SansTOBESTRIPPED, verdana, arial, sans-serif; font-size: 12px; fill: rgb(42, 63, 95); fill-opacity: 1; white-space: pre; opacity: 1;" transform="translate(2487.41,0)">11</text></g><g class="xtick"><text text-anchor="middle" x="0" y="458" style="font-family: TOBESTRIPPEDOpen SansTOBESTRIPPED, verdana, arial, sans-serif; font-size: 12px; fill: rgb(42, 63, 95); fill-opacity: 1; white-space: pre; opacity: 1;" transform="translate(2713.5,0)">12</text></g></g><g class="yaxislayer-above"/><g class="overaxes-above"/></g></g><g class="polarlayer"/><g class="smithlayer"/><g class="ternarylayer"/><g class="geolayer"/><g class="funnelarealayer"/><g class="pielayer"/><g class="iciclelayer"/><g class="treemaplayer"/><g class="sunburstlayer"/><g class="glimages"/><defs id="topdefs-88d319"><g class="clips"/></defs><g class="layer-above"><g class="imagelayer"/><g class="shapelayer"/></g><g class="infolayer"><g class="g-gtitle"><text class="gtitle" style="opacity: 1; font-family: TOBESTRIPPEDOpen SansTOBESTRIPPED, verdana, arial, sans-serif; font-size: 17px; fill: rgb(42, 63, 95); fill-opacity: 1; white-space: pre;" x="147.0115" y="50" text-anchor="start" dy="0em">Conceptual Journey of the One Ring (Key Moments/Bearers)</text></g><g class="g-xtitle"><text class="xtitle" style="opacity: 1; font-family: TOBESTRIPPEDOpen SansTOBESTRIPPED, verdana, arial, sans-serif; font-size: 14px; fill: rgb(42, 63, 95); fill-opacity: 1; white-space: pre;" x="1470" y="485.83347778320314" text-anchor="middle">Sequence Step</text></g><g class="g-ytitle"/></g></svg>