<svg class="main-svg" xmlns="http://www.w3.org/2000/svg" xmlns:xlink="http://www.w3.org/1999/xlink" width="600" height="900" style="" viewBox="0 0 600 900"><rect x="0" y="0" width="600" height="900" style="fill: rgb(255, 255, 255); fill-opacity: 1;"/><defs id="defs-035c8f"><g class="clips"><clipPath id="clip035c8fxyplot" class="plotclip"><rect width="580" height="850"/></clipPath><clipPath class="axesclip" id="clip035c8fx"><rect x="10" y="0" width="580" height="900"/></clipPath><clipPath class="axesclip" id="clip035c8fy"><rect x="0" y="40" width="600" height="850"/></clipPath><clipPath class="axesclip" id="clip035c8fxy"><rect x="10" y="40" width="580" height="850"/></clipPath></g><g class="gradients"/><g class="patterns"/></defs><g class="bglayer"><rect class="bg" x="10" y="40" width="580" height="850" style="fill: rgb(248, 248, 248); fill-opacity: 1; stroke-width: 0px;"/></g><g class="layer-below"><g class="imagelayer"/><g class="shapelayer"/></g><g class="cartesianlayer"><g class="subplot xy"><g class="layer-subplot"><g class="shapelayer"/><g class="imagelayer"/></g><g class="minor-gridlayer"><g class="x"/><g class="y"/></g><g class="gridlayer"><g class="x"/><g class="y"/></g><g class="zerolinelayer"/><g class="layer-between"><g class="shapelayer"/><g class="imagelayer"/></g><path class="xlines-below"/><path class="ylines-below"/><g class="overlines-below"/><g class="xaxislayer-below"/><g class="yaxislayer-below"/><g class="overaxes-below"/><g class="overplot"><g class="xy" transform="translate(10,40)" clip-path="url(#clip035c8fxyplot)"><g class="scatterlayer mlayer"><g class="trace scatter trace598232" style="stroke-miterlimit: 2; opacity: 1;"><g class="fills"/><g class="errorbars"/><g class="lines"><path class="js-line" style="vector-effect: none; fill: none; stroke: rgb(140, 140, 140); stroke-opacity: 0.7; stroke-width: 1px; opacity: 1;" d="M227.93,143.54L332.95,327.28"/><path class="js-line" style="vector-effect: none; fill: none; stroke: rgb(140, 140, 140); stroke-opacity: 0.7; stroke-width: 1px; opacity: 1;" d="M227.93,143.54L119.18,612.22"/><path class="js-line" style="vector-effect: none; fill: none; stroke: rgb(140, 140, 140); stroke-opacity: 0.7; stroke-width: 1px; opacity: 1;" d="M227.93,143.54L81.49,189.43"/><path class="js-line" style="vector-effect: none; fill: none; stroke: rgb(140, 140, 140); stroke-opacity: 0.7; stroke-width: 1px; opacity: 1;" d="M227.93,143.54L244.44,275.39"/><path class="js-line" style="vector-effect: none; fill: none; stroke: rgb(140, 140, 140); stroke-opacity: 0.7; stroke-width: 1px; opacity: 1;" d="M227.93,143.54L51.71,65.21"/><path class="js-line" style="vector-effect: none; fill: none; stroke: rgb(140, 140, 140); stroke-opacity: 0.7; stroke-width: 1px; opacity: 1;" d="M227.93,143.54L444.68,620.45"/><path class="js-line" style="vector-effect: none; fill: none; stroke: rgb(140, 140, 140); stroke-opacity: 0.7; stroke-width: 1px; opacity: 1;" d="M227.93,143.54L136.59,577.48"/><path class="js-line" style="vector-effect: none; fill: none; stroke: rgb(140, 140, 140); stroke-opacity: 0.7; stroke-width: 1px; opacity: 1;" d="M227.93,143.54L190.57,329.56"/><path class="js-line" style="vector-effect: none; fill: none; stroke: rgb(140, 140, 140); stroke-opacity: 0.7; stroke-width: 1px; opacity: 1;" d="M227.93,143.54L201.94,447.94"/><path class="js-line" style="vector-effect: none; fill: none; stroke: rgb(140, 140, 140); stroke-opacity: 0.7; stroke-width: 1px; opacity: 1;" d="M227.93,143.54L190.48,216.38"/><path class="js-line" style="vector-effect: none; fill: none; stroke: rgb(140, 140, 140); stroke-opacity: 0.7; stroke-width: 1px; opacity: 1;" d="M227.93,143.54L227.07,679.5"/><path class="js-line" style="vector-effect: none; fill: none; stroke: rgb(140, 140, 140); stroke-opacity: 0.7; stroke-width: 1px; opacity: 1;" d="M332.95,327.28L119.18,612.22"/><path class="js-line" style="vector-effect: none; fill: none; stroke: rgb(140, 140, 140); stroke-opacity: 0.7; stroke-width: 1px; opacity: 1;" d="M332.95,327.28L81.49,189.43"/><path class="js-line" style="vector-effect: none; fill: none; stroke: rgb(140, 140, 140); stroke-opacity: 0.7; stroke-width: 1px; opacity: 1;" d="M332.95,327.28L244.44,275.39"/><path class="js-line" style="vector-effect: none; fill: none; stroke: rgb(140, 140, 140); stroke-opacity: 0.7; stroke-width: 1px; opacity: 1;" d="M332.95,327.28L51.71,65.21"/><path class="js-line" style="vector-effect: none; fill: none; stroke: rgb(140, 140, 140); stroke-opacity: 0.7; stroke-width: 1px; opacity: 1;" d="M332.95,327.28L444.68,620.45"/><path class="js-line" style="vector-effect: none; fill: none; stroke: rgb(140, 140, 140); stroke-opacity: 0.7; stroke-width: 1px; opacity: 1;" d="M332.95,327.28L136.59,577.48"/><path class="js-line" style="vector-effect: none; fill: none; stroke: rgb(140, 140, 140); stroke-opacity: 0.7; stroke-width: 1px; opacity: 1;" d="M332.95,327.28L190.57,329.56"/><path class="js-line" style="vector-effect: none; fill: none; stroke: rgb(140, 140, 140); stroke-opacity: 0.7; stroke-width: 1px; opacity: 1;" d="M332.95,327.28L190.48,216.38"/><path class="js-line" style="vector-effect: none; fill: none; stroke: rgb(140, 140, 140); stroke-opacity: 0.7; stroke-width: 1px; opacity: 1;" d="M332.95,327.28L227.07,679.5"/><path class="js-line" style="vector-effect: none; fill: none; stroke: rgb(140, 140, 140); stroke-opacity: 0.7; stroke-width: 1px; opacity: 1;" d="M119.18,612.22L81.49,189.43"/><path class="js-line" style="vector-effect: none; fill: none; stroke: rgb(140, 140, 140); stroke-opacity: 0.7; stroke-width: 1px; opacity: 1;" d="M119.18,612.22L244.44,275.39"/><path class="js-line" style="vector-effect: none; fill: none; stroke: rgb(140, 140, 140); stroke-opacity: 0.7; stroke-width: 1px; opacity: 1;" d="M119.18,612.22L51.71,65.21"/><path class="js-line" style="vector-effect: none; fill: none; stroke: rgb(140, 140, 140); stroke-opacity: 0.7; stroke-width: 1px; opacity: 1;" d="M119.18,612.22L444.68,620.45"/><path class="js-line" style="vector-effect: none; fill: none; stroke: rgb(140, 140, 140); stroke-opacity: 0.7; stroke-width: 1px; opacity: 1;" d="M119.18,612.22L136.59,577.48"/><path class="js-line" style="vector-effect: none; fill: none; stroke: rgb(140, 140, 140); stroke-opacity: 0.7; stroke-width: 1px; opacity: 1;" d="M119.18,612.22L190.57,329.56"/><path class="js-line" style="vector-effect: none; fill: none; stroke: rgb(140, 140, 140); stroke-opacity: 0.7; stroke-width: 1px; opacity: 1;" d="M119.18,612.22L201.94,447.94"/><path class="js-line" style="vector-effect: none; fill: none; stroke: rgb(140, 140, 140); stroke-opacity: 0.7; stroke-width: 1px; opacity: 1;" d="M119.18,612.22L305.74,759.52"/><path class="js-line" style="vector-effect: none; fill: none; stroke: rgb(140, 140, 140); stroke-opacity: 0.7; stroke-width: 1px; opacity: 1;" d="M119.18,612.22L325.73,601.97"/><path class="js-line" style="vector-effect: none; fill: none; stroke: rgb(140, 140, 140); stroke-opacity: 0.7; stroke-width: 1px; opacity: 1;" d="M119.18,612.22L71.92,106.12"/><path class="js-line" style="vector-effect: none; fill: none; stroke: rgb(140, 140, 140); stroke-opacity: 0.7; stroke-width: 1px; opacity: 1;" d="M119.18,612.22L544.26,213.64"/><path class="js-line" style="vector-effect: none; fill: none; stroke: rgb(140, 140, 140); stroke-opacity: 0.7; stroke-width: 1px; opacity: 1;" d="M119.18,612.22L309.3,601.06"/><path class="js-line" style="vector-effect: none; fill: none; stroke: rgb(140, 140, 140); stroke-opacity: 0.7; stroke-width: 1px; opacity: 1;" d="M119.18,612.22L250.84,802.15"/><path class="js-line" style="vector-effect: none; fill: none; stroke: rgb(140, 140, 140); stroke-opacity: 0.7; stroke-width: 1px; opacity: 1;" d="M81.49,189.43L244.44,275.39"/><path class="js-line" style="vector-effect: none; fill: none; stroke: rgb(140, 140, 140); stroke-opacity: 0.7; stroke-width: 1px; opacity: 1;" d="M81.49,189.43L51.71,65.21"/><path class="js-line" style="vector-effect: none; fill: none; stroke: rgb(140, 140, 140); stroke-opacity: 0.7; stroke-width: 1px; opacity: 1;" d="M81.49,189.43L444.68,620.45"/><path class="js-line" style="vector-effect: none; fill: none; stroke: rgb(140, 140, 140); stroke-opacity: 0.7; stroke-width: 1px; opacity: 1;" d="M81.49,189.43L136.59,577.48"/><path class="js-line" style="vector-effect: none; fill: none; stroke: rgb(140, 140, 140); stroke-opacity: 0.7; stroke-width: 1px; opacity: 1;" d="M81.49,189.43L190.57,329.56"/><path class="js-line" style="vector-effect: none; fill: none; stroke: rgb(140, 140, 140); stroke-opacity: 0.7; stroke-width: 1px; opacity: 1;" d="M81.49,189.43L201.94,447.94"/><path class="js-line" style="vector-effect: none; fill: none; stroke: rgb(140, 140, 140); stroke-opacity: 0.7; stroke-width: 1px; opacity: 1;" d="M81.49,189.43L305.74,759.52"/><path class="js-line" style="vector-effect: none; fill: none; stroke: rgb(140, 140, 140); stroke-opacity: 0.7; stroke-width: 1px; opacity: 1;" d="M81.49,189.43L325.73,601.97"/><path class="js-line" style="vector-effect: none; fill: none; stroke: rgb(140, 140, 140); stroke-opacity: 0.7; stroke-width: 1px; opacity: 1;" d="M81.49,189.43L71.92,106.12"/><path class="js-line" style="vector-effect: none; fill: none; stroke: rgb(140, 140, 140); stroke-opacity: 0.7; stroke-width: 1px; opacity: 1;" d="M244.44,275.39L51.71,65.21"/><path class="js-line" style="vector-effect: none; fill: none; stroke: rgb(140, 140, 140); stroke-opacity: 0.7; stroke-width: 1px; opacity: 1;" d="M244.44,275.39L444.68,620.45"/><path class="js-line" style="vector-effect: none; fill: none; stroke: rgb(140, 140, 140); stroke-opacity: 0.7; stroke-width: 1px; opacity: 1;" d="M244.44,275.39L136.59,577.48"/><path class="js-line" style="vector-effect: none; fill: none; stroke: rgb(140, 140, 140); stroke-opacity: 0.7; stroke-width: 1px; opacity: 1;" d="M244.44,275.39L190.57,329.56"/><path class="js-line" style="vector-effect: none; fill: none; stroke: rgb(140, 140, 140); stroke-opacity: 0.7; stroke-width: 1px; opacity: 1;" d="M244.44,275.39L201.94,447.94"/><path class="js-line" style="vector-effect: none; fill: none; stroke: rgb(140, 140, 140); stroke-opacity: 0.7; stroke-width: 1px; opacity: 1;" d="M244.44,275.39L305.74,759.52"/><path class="js-line" style="vector-effect: none; fill: none; stroke: rgb(140, 140, 140); stroke-opacity: 0.7; stroke-width: 1px; opacity: 1;" d="M244.44,275.39L325.73,601.97"/><path class="js-line" style="vector-effect: none; fill: none; stroke: rgb(140, 140, 140); stroke-opacity: 0.7; stroke-width: 1px; opacity: 1;" d="M244.44,275.39L71.92,106.12"/><path class="js-line" style="vector-effect: none; fill: none; stroke: rgb(140, 140, 140); stroke-opacity: 0.7; stroke-width: 1px; opacity: 1;" d="M51.71,65.21L444.68,620.45"/><path class="js-line" style="vector-effect: none; fill: none; stroke: rgb(140, 140, 140); stroke-opacity: 0.7; stroke-width: 1px; opacity: 1;" d="M51.71,65.21L136.59,577.48"/><path class="js-line" style="vector-effect: none; fill: none; stroke: rgb(140, 140, 140); stroke-opacity: 0.7; stroke-width: 1px; opacity: 1;" d="M51.71,65.21L190.57,329.56"/><path class="js-line" style="vector-effect: none; fill: none; stroke: rgb(140, 140, 140); stroke-opacity: 0.7; stroke-width: 1px; opacity: 1;" d="M51.71,65.21L201.94,447.94"/><path class="js-line" style="vector-effect: none; fill: none; stroke: rgb(140, 140, 140); stroke-opacity: 0.7; stroke-width: 1px; opacity: 1;" d="M51.71,65.21L305.74,759.52"/><path class="js-line" style="vector-effect: none; fill: none; stroke: rgb(140, 140, 140); stroke-opacity: 0.7; stroke-width: 1px; opacity: 1;" d="M51.71,65.21L325.73,601.97"/><path class="js-line" style="vector-effect: none; fill: none; stroke: rgb(140, 140, 140); stroke-opacity: 0.7; stroke-width: 1px; opacity: 1;" d="M51.71,65.21L71.92,106.12"/><path class="js-line" style="vector-effect: none; fill: none; stroke: rgb(140, 140, 140); stroke-opacity: 0.7; stroke-width: 1px; opacity: 1;" d="M444.68,620.45L136.59,577.48"/><path class="js-line" style="vector-effect: none; fill: none; stroke: rgb(140, 140, 140); stroke-opacity: 0.7; stroke-width: 1px; opacity: 1;" d="M444.68,620.45L190.57,329.56"/><path class="js-line" style="vector-effect: none; fill: none; stroke: rgb(140, 140, 140); stroke-opacity: 0.7; stroke-width: 1px; opacity: 1;" d="M444.68,620.45L201.94,447.94"/><path class="js-line" style="vector-effect: none; fill: none; stroke: rgb(140, 140, 140); stroke-opacity: 0.7; stroke-width: 1px; opacity: 1;" d="M444.68,620.45L71.92,106.12"/><path class="js-line" style="vector-effect: none; fill: none; stroke: rgb(140, 140, 140); stroke-opacity: 0.7; stroke-width: 1px; opacity: 1;" d="M136.59,577.48L190.57,329.56"/><path class="js-line" style="vector-effect: none; fill: none; stroke: rgb(140, 140, 140); stroke-opacity: 0.7; stroke-width: 1px; opacity: 1;" d="M136.59,577.48L305.74,759.52"/><path class="js-line" style="vector-effect: none; fill: none; stroke: rgb(140, 140, 140); stroke-opacity: 0.7; stroke-width: 1px; opacity: 1;" d="M136.59,577.48L325.73,601.97"/><path class="js-line" style="vector-effect: none; fill: none; stroke: rgb(140, 140, 140); stroke-opacity: 0.7; stroke-width: 1px; opacity: 1;" d="M136.59,577.48L71.92,106.12"/><path class="js-line" style="vector-effect: none; fill: none; stroke: rgb(140, 140, 140); stroke-opacity: 0.7; stroke-width: 1px; opacity: 1;" d="M136.59,577.48L544.26,213.64"/><path class="js-line" style="vector-effect: none; fill: none; stroke: rgb(140, 140, 140); stroke-opacity: 0.7; stroke-width: 1px; opacity: 1;" d="M190.57,329.56L305.74,759.52"/><path class="js-line" style="vector-effect: none; fill: none; stroke: rgb(140, 140, 140); stroke-opacity: 0.7; stroke-width: 1px; opacity: 1;" d="M190.57,329.56L325.73,601.97"/><path class="js-line" style="vector-effect: none; fill: none; stroke: rgb(140, 140, 140); stroke-opacity: 0.7; stroke-width: 1px; opacity: 1;" d="M190.57,329.56L71.92,106.12"/><path class="js-line" style="vector-effect: none; fill: none; stroke: rgb(140, 140, 140); stroke-opacity: 0.7; stroke-width: 1px; opacity: 1;" d="M201.94,447.94L250.84,802.15"/><path class="js-line" style="vector-effect: none; fill: none; stroke: rgb(140, 140, 140); stroke-opacity: 0.7; stroke-width: 1px; opacity: 1;" d="M242.97,381.31L413.97,234.33"/><path class="js-line" style="vector-effect: none; fill: none; stroke: rgb(140, 140, 140); stroke-opacity: 0.7; stroke-width: 1px; opacity: 1;" d="M413.97,234.33L544.26,213.64"/><path class="js-line" style="vector-effect: none; fill: none; stroke: rgb(140, 140, 140); stroke-opacity: 0.7; stroke-width: 1px; opacity: 1;" d="M305.74,759.52L325.73,601.97"/><path class="js-line" style="vector-effect: none; fill: none; stroke: rgb(140, 140, 140); stroke-opacity: 0.7; stroke-width: 1px; opacity: 1;" d="M305.74,759.52L71.92,106.12"/><path class="js-line" style="vector-effect: none; fill: none; stroke: rgb(140, 140, 140); stroke-opacity: 0.7; stroke-width: 1px; opacity: 1;" d="M325.73,601.97L71.92,106.12"/><path class="js-line" style="vector-effect: none; fill: none; stroke: rgb(140, 140, 140); stroke-opacity: 0.7; stroke-width: 1px; opacity: 1;" d="M325.73,601.97L544.26,213.64"/></g><g class="points"/><g class="text"/></g><g class="trace scatter trace5e309a" style="stroke-miterlimit: 2; opacity: 1;"><g class="fills"/><g class="errorbars"/><g class="lines"/><g class="points"><path class="point" transform="translate(227.93,143.54)" style="opacity: 0.7; stroke-width: 1.2px; fill: rgb(255, 255, 0); fill-opacity: 1; stroke: rgb(30, 30, 30); stroke-opacity: 0.9;" d="M14.28,0A14.28,14.28 0 1,1 0,-14.28A14.28,14.28 0 0,1 14.28,0Z"/><path class="point" transform="translate(332.95,327.28)" style="opacity: 0.7; stroke-width: 1.2px; fill: rgb(246, 207, 113); fill-opacity: 1; stroke: rgb(30, 30, 30); stroke-opacity: 0.9;" d="M12.06,0A12.06,12.06 0 1,1 0,-12.06A12.06,12.06 0 0,1 12.06,0Z"/><path class="point" transform="translate(119.18,612.22)" style="opacity: 0.7; stroke-width: 1.2px; fill: rgb(0, 128, 0); fill-opacity: 1; stroke: rgb(30, 30, 30); stroke-opacity: 0.9;" d="M18.72,0A18.72,18.72 0 1,1 0,-18.72A18.72,18.72 0 0,1 18.72,0Z"/><path class="point" transform="translate(81.49,189.43)" style="opacity: 0.7; stroke-width: 1.2px; fill: rgb(246, 207, 113); fill-opacity: 1; stroke: rgb(30, 30, 30); stroke-opacity: 0.9;" d="M19,0A19,19 0 1,1 0,-19A19,19 0 0,1 19,0Z"/><path class="point" transform="translate(244.44,275.39)" style="opacity: 0.7; stroke-width: 1.2px; fill: rgb(246, 207, 113); fill-opacity: 1; stroke: rgb(30, 30, 30); stroke-opacity: 0.9;" d="M18.17,0A18.17,18.17 0 1,1 0,-18.17A18.17,18.17 0 0,1 18.17,0Z"/><path class="point" transform="translate(51.71,65.21)" style="opacity: 0.7; stroke-width: 1.2px; fill: rgb(246, 207, 113); fill-opacity: 1; stroke: rgb(30, 30, 30); stroke-opacity: 0.9;" d="M18.17,0A18.17,18.17 0 1,1 0,-18.17A18.17,18.17 0 0,1 18.17,0Z"/><path class="point" transform="translate(444.68,620.45)" style="opacity: 0.7; stroke-width: 1.2px; fill: rgb(158, 185, 243); fill-opacity: 1; stroke: rgb(30, 30, 30); stroke-opacity: 0.9;" d="M12.06,0A12.06,12.06 0 1,1 0,-12.06A12.06,12.06 0 0,1 12.06,0Z"/><path class="point" transform="translate(136.59,577.48)" style="opacity: 0.7; stroke-width: 1.2px; fill: rgb(246, 207, 113); fill-opacity: 1; stroke: rgb(30, 30, 30); stroke-opacity: 0.9;" d="M12.89,0A12.89,12.89 0 1,1 0,-12.89A12.89,12.89 0 0,1 12.89,0Z"/><path class="point" transform="translate(190.57,329.56)" style="opacity: 0.7; stroke-width: 1.2px; fill: rgb(246, 207, 113); fill-opacity: 1; stroke: rgb(30, 30, 30); stroke-opacity: 0.9;" d="M13.44,0A13.44,13.44 0 1,1 0,-13.44A13.44,13.44 0 0,1 13.44,0Z"/><path class="point" transform="translate(201.94,447.94)" style="opacity: 0.7; stroke-width: 1.2px; fill: rgb(246, 207, 113); fill-opacity: 1; stroke: rgb(30, 30, 30); stroke-opacity: 0.9;" d="M5.94,0A5.94,5.94 0 1,1 0,-5.94A5.94,5.94 0 0,1 5.94,0Z"/><path class="point" transform="translate(250.84,802.15)" style="opacity: 0.7; stroke-width: 1.2px; fill: rgb(246, 207, 113); fill-opacity: 1; stroke: rgb(30, 30, 30); stroke-opacity: 0.9;" d="M4.28,0A4.28,4.28 0 1,1 0,-4.28A4.28,4.28 0 0,1 4.28,0Z"/><path class="point" transform="translate(242.97,381.31)" style="opacity: 0.7; stroke-width: 1.2px; fill: rgb(220, 176, 242); fill-opacity: 1; stroke: rgb(30, 30, 30); stroke-opacity: 0.9;" d="M4,0A4,4 0 1,1 0,-4A4,4 0 0,1 4,0Z"/><path class="point" transform="translate(413.97,234.33)" style="opacity: 0.7; stroke-width: 1.2px; fill: rgb(255, 0, 0); fill-opacity: 1; stroke: rgb(30, 30, 30); stroke-opacity: 0.9;" d="M19.33,0A19.33,19.33 0 1,1 0,-19.33A19.33,19.33 0 0,1 19.33,0Z"/><path class="point" transform="translate(190.48,216.38)" style="opacity: 0.7; stroke-width: 1.2px; fill: rgb(158, 185, 243); fill-opacity: 1; stroke: rgb(30, 30, 30); stroke-opacity: 0.9;" d="M4.83,0A4.83,4.83 0 1,1 0,-4.83A4.83,4.83 0 0,1 4.83,0Z"/><path class="point" transform="translate(305.74,759.52)" style="opacity: 0.7; stroke-width: 1.2px; fill: rgb(246, 207, 113); fill-opacity: 1; stroke: rgb(30, 30, 30); stroke-opacity: 0.9;" d="M7.06,0A7.06,7.06 0 1,1 0,-7.06A7.06,7.06 0 0,1 7.06,0Z"/><path class="point" transform="translate(325.73,601.97)" style="opacity: 0.7; stroke-width: 1.2px; fill: rgb(246, 207, 113); fill-opacity: 1; stroke: rgb(30, 30, 30); stroke-opacity: 0.9;" d="M6.78,0A6.78,6.78 0 1,1 0,-6.78A6.78,6.78 0 0,1 6.78,0Z"/><path class="point" transform="translate(71.92,106.12)" style="opacity: 0.7; stroke-width: 1.2px; fill: rgb(246, 207, 113); fill-opacity: 1; stroke: rgb(30, 30, 30); stroke-opacity: 0.9;" d="M6.22,0A6.22,6.22 0 1,1 0,-6.22A6.22,6.22 0 0,1 6.22,0Z"/><path class="point" transform="translate(544.26,213.64)" style="opacity: 0.7; stroke-width: 1.2px; fill: rgb(220, 176, 242); fill-opacity: 1; stroke: rgb(30, 30, 30); stroke-opacity: 0.9;" d="M5.39,0A5.39,5.39 0 1,1 0,-5.39A5.39,5.39 0 0,1 5.39,0Z"/><path class="point" transform="translate(227.07,679.5)" style="opacity: 0.7; stroke-width: 1.2px; fill: rgb(254, 136, 177); fill-opacity: 1; stroke: rgb(30, 30, 30); stroke-opacity: 0.9;" d="M4.28,0A4.28,4.28 0 1,1 0,-4.28A4.28,4.28 0 0,1 4.28,0Z"/><path class="point" transform="translate(309.3,601.06)" style="opacity: 0.7; stroke-width: 1.2px; fill: rgb(254, 136, 177); fill-opacity: 1; stroke: rgb(30, 30, 30); stroke-opacity: 0.9;" d="M4.28,0A4.28,4.28 0 1,1 0,-4.28A4.28,4.28 0 0,1 4.28,0Z"/></g><g class="text"/></g></g></g></g><path class="xlines-above crisp" style="fill: none;" d="M0,0"/><path class="ylines-above crisp" style="fill: none;" d="M0,0"/><g class="overlines-above"/><g class="xaxislayer-above"/><g class="yaxislayer-above"/><g class="overaxes-above"/></g></g><g class="polarlayer"/><g class="smithlayer"/><g class="ternarylayer"/><g class="geolayer"/><g class="funnelarealayer"/><g class="pielayer"/><g class="iciclelayer"/><g class="treemaplayer"/><g class="sunburstlayer"/><g class="glimages"/><defs id="topdefs-035c8f"><g class="clips"/></defs><g class="layer-above"><g class="imagelayer"/><g class="shapelayer"/></g><g class="infolayer"><g class="g-gtitle"><text class="gtitle" style="opacity: 1; font-family: TOBESTRIPPEDOpen SansTOBESTRIPPED, verdana, arial, sans-serif; font-size: 16px; fill: rgb(42, 63, 95); fill-opacity: 1; white-space: pre;" x="30" y="20" text-anchor="start" dy="0em">Comprehensive Character Interaction Network</text></g><g class="g-xtitle"/><g class="g-ytitle"/></g></svg>