<svg class="main-svg" xmlns="http://www.w3.org/2000/svg" xmlns:xlink="http://www.w3.org/1999/xlink" width="2806.23" height="525" style="" viewBox="0 0 2806.23 525"><rect x="0" y="0" width="2806.23" height="525" style="fill: rgb(255, 255, 255); fill-opacity: 1;"/><defs id="defs-6c5bb1"><g class="clips"><clipPath id="clip6c5bb1xyplot" class="plotclip"><rect width="2646" height="345"/></clipPath><clipPath class="axesclip" id="clip6c5bb1x"><rect x="80" y="0" width="2646" height="525"/></clipPath><clipPath class="axesclip" id="clip6c5bb1y"><rect x="0" y="100" width="2806.23" height="345"/></clipPath><clipPath class="axesclip" id="clip6c5bb1xy"><rect x="80" y="100" width="2646" height="345"/></clipPath></g><g class="gradients"/><g class="patterns"/></defs><g class="bglayer"><rect class="bg" x="80" y="100" width="2646" height="345" style="fill: rgb(229, 236, 246); fill-opacity: 1; stroke-width: 0px;"/></g><g class="layer-below"><g class="imagelayer"/><g class="shapelayer"/></g><g class="cartesianlayer"><g class="subplot xy"><g class="layer-subplot"><g class="shapelayer"/><g class="imagelayer"/></g><g class="minor-gridlayer"><g class="x"/><g class="y"/></g><g class="gridlayer"><g class="x"><path class="xgrid crisp" transform="translate(219.8,0)" d="M0,100v345" style="stroke: rgb(255, 255, 255); stroke-opacity: 1; stroke-width: 1px;"/><path class="xgrid crisp" transform="translate(434.93,0)" d="M0,100v345" style="stroke: rgb(255, 255, 255); stroke-opacity: 1; stroke-width: 1px;"/><path class="xgrid crisp" transform="translate(650.05,0)" d="M0,100v345" style="stroke: rgb(255, 255, 255); stroke-opacity: 1; stroke-width: 1px;"/><path class="xgrid crisp" transform="translate(865.18,0)" d="M0,100v345" style="stroke: rgb(255, 255, 255); stroke-opacity: 1; stroke-width: 1px;"/><path class="xgrid crisp" transform="translate(1080.31,0)" d="M0,100v345" style="stroke: rgb(255, 255, 255); stroke-opacity: 1; stroke-width: 1px;"/><path class="xgrid crisp" transform="translate(1295.44,0)" d="M0,100v345" style="stroke: rgb(255, 255, 255); stroke-opacity: 1; stroke-width: 1px;"/><path class="xgrid crisp" transform="translate(1510.56,0)" d="M0,100v345" style="stroke: rgb(255, 255, 255); stroke-opacity: 1; stroke-width: 1px;"/><path class="xgrid crisp" transform="translate(1725.69,0)" d="M0,100v345" style="stroke: rgb(255, 255, 255); stroke-opacity: 1; stroke-width: 1px;"/><path class="xgrid crisp" transform="translate(1940.82,0)" d="M0,100v345" style="stroke: rgb(255, 255, 255); stroke-opacity: 1; stroke-width: 1px;"/><path class="xgrid crisp" transform="translate(2155.95,0)" d="M0,100v345" style="stroke: rgb(255, 255, 255); stroke-opacity: 1; stroke-width: 1px;"/><path class="xgrid crisp" transform="translate(2371.07,0)" d="M0,100v345" style="stroke: rgb(255, 255, 255); stroke-opacity: 1; stroke-width: 1px;"/><path class="xgrid crisp" transform="translate(2586.2,0)" d="M0,100v345" style="stroke: rgb(255, 255, 255); stroke-opacity: 1; stroke-width: 1px;"/></g><g class="y"/></g><g class="zerolinelayer"/><g class="layer-between"><g class="shapelayer"/><g class="imagelayer"/></g><path class="xlines-below"/><path class="ylines-below"/><g class="overlines-below"/><g class="xaxislayer-below"/><g class="yaxislayer-below"/><g class="overaxes-below"/><g class="overplot"><g class="xy" transform="translate(80,100)" clip-path="url(#clip6c5bb1xyplot)"><g class="scatterlayer mlayer"><g class="trace scatter trace8904ce" style="stroke-miterlimit: 2; opacity: 1;"><g class="fills"/><g class="errorbars"/><g class="lines"><path class="js-line" style="vector-effect: none; fill: none; stroke: rgb(220, 176, 242); stroke-opacity: 1; stroke-dasharray: 3px, 3px; stroke-width: 1px; opacity: 1;" d="M139.8,172.5L2506.2,172.5"/></g><g class="points"><path class="point" transform="translate(139.8,172.5)" style="opacity: 1; stroke-width: 0px; fill: rgb(248, 156, 116); fill-opacity: 1;" d="M6,0A6,6 0 1,1 0,-6A6,6 0 0,1 6,0Z"/><path class="point" transform="translate(354.93,172.5)" style="opacity: 1; stroke-width: 0px; fill: rgb(248, 156, 116); fill-opacity: 1;" d="M6,0A6,6 0 1,1 0,-6A6,6 0 0,1 6,0Z"/><path class="point" transform="translate(570.05,172.5)" style="opacity: 1; stroke-width: 0px; fill: rgb(248, 156, 116); fill-opacity: 1;" d="M6,0A6,6 0 1,1 0,-6A6,6 0 0,1 6,0Z"/><path class="point" transform="translate(785.18,172.5)" style="opacity: 1; stroke-width: 0px; fill: rgb(248, 156, 116); fill-opacity: 1;" d="M6,0A6,6 0 1,1 0,-6A6,6 0 0,1 6,0Z"/><path class="point" transform="translate(1000.31,172.5)" style="opacity: 1; stroke-width: 0px; fill: rgb(248, 156, 116); fill-opacity: 1;" d="M6,0A6,6 0 1,1 0,-6A6,6 0 0,1 6,0Z"/><path class="point" transform="translate(1215.44,172.5)" style="opacity: 1; stroke-width: 0px; fill: rgb(248, 156, 116); fill-opacity: 1;" d="M6,0A6,6 0 1,1 0,-6A6,6 0 0,1 6,0Z"/><path class="point" transform="translate(1430.56,172.5)" style="opacity: 1; stroke-width: 0px; fill: rgb(248, 156, 116); fill-opacity: 1;" d="M6,0A6,6 0 1,1 0,-6A6,6 0 0,1 6,0Z"/><path class="point" transform="translate(1645.69,172.5)" style="opacity: 1; stroke-width: 0px; fill: rgb(248, 156, 116); fill-opacity: 1;" d="M6,0A6,6 0 1,1 0,-6A6,6 0 0,1 6,0Z"/><path class="point" transform="translate(1860.82,172.5)" style="opacity: 1; stroke-width: 0px; fill: rgb(248, 156, 116); fill-opacity: 1;" d="M6,0A6,6 0 1,1 0,-6A6,6 0 0,1 6,0Z"/><path class="point" transform="translate(2075.95,172.5)" style="opacity: 1; stroke-width: 0px; fill: rgb(248, 156, 116); fill-opacity: 1;" d="M6,0A6,6 0 1,1 0,-6A6,6 0 0,1 6,0Z"/><path class="point" transform="translate(2291.07,172.5)" style="opacity: 1; stroke-width: 0px; fill: rgb(248, 156, 116); fill-opacity: 1;" d="M6,0A6,6 0 1,1 0,-6A6,6 0 0,1 6,0Z"/><path class="point" transform="translate(2506.2,172.5)" style="opacity: 1; stroke-width: 0px; fill: rgb(248, 156, 116); fill-opacity: 1;" d="M6,0A6,6 0 1,1 0,-6A6,6 0 0,1 6,0Z"/></g><g class="text"><g class="textpoint" transform="translate(0,-11.5)"><text x="139.8" y="172.5" style="font-family: TOBESTRIPPEDOpen SansTOBESTRIPPED, verdana, arial, sans-serif; font-size: 12px; fill: rgb(42, 63, 95); fill-opacity: 1; white-space: pre;" text-anchor="middle">Frodo Receives Ring</text></g><g class="textpoint" transform="translate(0,-11.5)"><text x="354.93" y="172.5" style="font-family: TOBESTRIPPEDOpen SansTOBESTRIPPED, verdana, arial, sans-serif; font-size: 12px; fill: rgb(42, 63, 95); fill-opacity: 1; white-space: pre;" text-anchor="middle">Council of Elrond</text></g><g class="textpoint" transform="translate(0,-11.5)"><text x="570.05" y="172.5" style="font-family: TOBESTRIPPEDOpen SansTOBESTRIPPED, verdana, arial, sans-serif; font-size: 12px; fill: rgb(42, 63, 95); fill-opacity: 1; white-space: pre;" text-anchor="middle">Journey South</text></g><g class="textpoint" transform="translate(0,-11.5)"><text x="785.18" y="172.5" style="font-family: TOBESTRIPPEDOpen SansTOBESTRIPPED, verdana, arial, sans-serif; font-size: 12px; fill: rgb(42, 63, 95); fill-opacity: 1; white-space: pre;" text-anchor="middle">Boromir Tempted (LOC11)</text></g><g class="textpoint" transform="translate(0,-11.5)"><text x="1000.31" y="172.5" style="font-family: TOBESTRIPPEDOpen SansTOBESTRIPPED, verdana, arial, sans-serif; font-size: 12px; fill: rgb(42, 63, 95); fill-opacity: 1; white-space: pre;" text-anchor="middle">Frodo &amp; Sam Journey East</text></g><g class="textpoint" transform="translate(0,-11.5)"><text x="1215.44" y="172.5" style="font-family: TOBESTRIPPEDOpen SansTOBESTRIPPED, verdana, arial, sans-serif; font-size: 12px; fill: rgb(42, 63, 95); fill-opacity: 1; white-space: pre;" text-anchor="middle">Gollum Guides</text></g><g class="textpoint" transform="translate(0,-11.5)"><text x="1430.56" y="172.5" style="font-family: TOBESTRIPPEDOpen SansTOBESTRIPPED, verdana, arial, sans-serif; font-size: 12px; fill: rgb(42, 63, 95); fill-opacity: 1; white-space: pre;" text-anchor="middle">Captured by Faramir</text></g><g class="textpoint" transform="translate(0,-11.5)"><text x="1645.69" y="172.5" style="font-family: TOBESTRIPPEDOpen SansTOBESTRIPPED, verdana, arial, sans-serif; font-size: 12px; fill: rgb(42, 63, 95); fill-opacity: 1; white-space: pre;" text-anchor="middle">Cirith Ungol (LOC12)</text></g><g class="textpoint" transform="translate(0,-11.5)"><text x="1860.82" y="172.5" style="font-family: TOBESTRIPPEDOpen SansTOBESTRIPPED, verdana, arial, sans-serif; font-size: 12px; fill: rgb(42, 63, 95); fill-opacity: 1; white-space: pre;" text-anchor="middle">Sam Bears Ring (briefly)</text></g><g class="textpoint" transform="translate(0,-11.5)"><text x="2075.95" y="172.5" style="font-family: TOBESTRIPPEDOpen SansTOBESTRIPPED, verdana, arial, sans-serif; font-size: 12px; fill: rgb(42, 63, 95); fill-opacity: 1; white-space: pre;" text-anchor="middle">Mount Doom (LOC07)</text></g><g class="textpoint" transform="translate(0,-11.5)"><text x="2291.07" y="172.5" style="font-family: TOBESTRIPPEDOpen SansTOBESTRIPPED, verdana, arial, sans-serif; font-size: 12px; fill: rgb(42, 63, 95); fill-opacity: 1; white-space: pre;" text-anchor="middle">Gollum Takes Ring</text></g><g class="textpoint" transform="translate(0,-11.5)"><text x="2506.2" y="172.5" style="font-family: TOBESTRIPPEDOpen SansTOBESTRIPPED, verdana, arial, sans-serif; font-size: 12px; fill: rgb(42, 63, 95); fill-opacity: 1; white-space: pre;" text-anchor="middle">Ring Destroyed</text></g></g></g></g></g></g><path class="xlines-above crisp" style="fill: none;" d="M0,0"/><path class="ylines-above crisp" style="fill: none;" d="M0,0"/><g class="overlines-above"/><g class="xaxislayer-above"><g class="xtick"><text text-anchor="middle" x="0" y="458" style="font-family: TOBESTRIPPEDOpen SansTOBESTRIPPED, verdana, arial, sans-serif; font-size: 12px; fill: rgb(42, 63, 95); fill-opacity: 1; white-space: pre; opacity: 1;" transform="translate(219.8,0)">1</text></g><g class="xtick"><text text-anchor="middle" x="0" y="458" style="font-family: TOBESTRIPPEDOpen SansTOBESTRIPPED, verdana, arial, sans-serif; font-size: 12px; fill: rgb(42, 63, 95); fill-opacity: 1; white-space: pre; opacity: 1;" transform="translate(434.93,0)">2</text></g><g class="xtick"><text text-anchor="middle" x="0" y="458" style="font-family: TOBESTRIPPEDOpen SansTOBESTRIPPED, verdana, arial, sans-serif; font-size: 12px; fill: rgb(42, 63, 95); fill-opacity: 1; white-space: pre; opacity: 1;" transform="translate(650.05,0)">3</text></g><g class="xtick"><text text-anchor="middle" x="0" y="458" style="font-family: TOBESTRIPPEDOpen SansTOBESTRIPPED, verdana, arial, sans-serif; font-size: 12px; fill: rgb(42, 63, 95); fill-opacity: 1; white-space: pre; opacity: 1;" transform="translate(865.18,0)">4</text></g><g class="xtick"><text text-anchor="middle" x="0" y="458" style="font-family: TOBESTRIPPEDOpen SansTOBESTRIPPED, verdana, arial, sans-serif; font-size: 12px; fill: rgb(42, 63, 95); fill-opacity: 1; white-space: pre; opacity: 1;" transform="translate(1080.31,0)">5</text></g><g class="xtick"><text text-anchor="middle" x="0" y="458" style="font-family: TOBESTRIPPEDOpen SansTOBESTRIPPED, verdana, arial, sans-serif; font-size: 12px; fill: rgb(42, 63, 95); fill-opacity: 1; white-space: pre; opacity: 1;" transform="translate(1295.44,0)">6</text></g><g class="xtick"><text text-anchor="middle" x="0" y="458" style="font-family: TOBESTRIPPEDOpen SansTOBESTRIPPED, verdana, arial, sans-serif; font-size: 12px; fill: rgb(42, 63, 95); fill-opacity: 1; white-space: pre; opacity: 1;" transform="translate(1510.56,0)">7</text></g><g class="xtick"><text text-anchor="middle" x="0" y="458" style="font-family: TOBESTRIPPEDOpen SansTOBESTRIPPED, verdana, arial, sans-serif; font-size: 12px; fill: rgb(42, 63, 95); fill-opacity: 1; white-space: pre; opacity: 1;" transform="translate(1725.69,0)">8</text></g><g class="xtick"><text text-anchor="middle" x="0" y="458" style="font-family: TOBESTRIPPEDOpen SansTOBESTRIPPED, verdana, arial, sans-serif; font-size: 12px; fill: rgb(42, 63, 95); fill-opacity: 1; white-space: pre; opacity: 1;" transform="translate(1940.82,0)">9</text></g><g class="xtick"><text text-anchor="middle" x="0" y="458" style="font-family: TOBESTRIPPEDOpen SansTOBESTRIPPED, verdana, arial, sans-serif; font-size: 12px; fill: rgb(42, 63, 95); fill-opacity: 1; white-space: pre; opacity: 1;" transform="translate(2155.95,0)">10</text></g><g class="xtick"><text text-anchor="middle" x="0" y="458" style="font-family: TOBESTRIPPEDOpen SansTOBESTRIPPED, verdana, arial, sans-serif; font-size: 12px; fill: rgb(42, 63, 95); fill-opacity: 1; white-space: pre; opacity: 1;" transform="translate(2371.07,0)">11</text></g><g class="xtick"><text text-anchor="middle" x="0" y="458" style="font-family: TOBESTRIPPEDOpen SansTOBESTRIPPED, verdana, arial, sans-serif; font-size: 12px; fill: rgb(42, 63, 95); fill-opacity: 1; white-space: pre; opacity: 1;" transform="translate(2586.2,0)">12</text></g></g><g class="yaxislayer-above"/><g class="overaxes-above"/></g></g><g class="polarlayer"/><g class="smithlayer"/><g class="ternarylayer"/><g class="geolayer"/><g class="funnelarealayer"/><g class="pielayer"/><g class="iciclelayer"/><g class="treemaplayer"/><g class="sunburstlayer"/><g class="glimages"/><defs id="topdefs-6c5bb1"><g class="clips"/></defs><g class="layer-above"><g class="imagelayer"/><g class="shapelayer"/></g><g class="infolayer"><g class="g-gtitle"><text class="gtitle" style="opacity: 1; font-family: TOBESTRIPPEDOpen SansTOBESTRIPPED, verdana, arial, sans-serif; font-size: 17px; fill: rgb(42, 63, 95); fill-opacity: 1; white-space: pre;" x="140.3115" y="50" text-anchor="start" dy="0em">Conceptual Journey of the One Ring (Key Moments/Bearers)</text></g><g class="g-xtitle"><text class="xtitle" style="opacity: 1; font-family: TOBESTRIPPEDOpen SansTOBESTRIPPED, verdana, arial, sans-serif; font-size: 14px; fill: rgb(42, 63, 95); fill-opacity: 1; white-space: pre;" x="1403" y="485.83347778320314" text-anchor="middle">Sequence Step</text></g><g class="g-ytitle"/></g></svg>