<svg class="main-svg" xmlns="http://www.w3.org/2000/svg" xmlns:xlink="http://www.w3.org/1999/xlink" width="2806.23" height="525" style="" viewBox="0 0 2806.23 525"><rect x="0" y="0" width="2806.23" height="525" style="fill: rgb(255, 255, 255); fill-opacity: 1;"/><defs id="defs-3c590d"><g class="clips"><clipPath id="clip3c590dxyplot" class="plotclip"><rect width="2481" height="345"/></clipPath><clipPath class="axesclip" id="clip3c590dx"><rect x="80" y="0" width="2481" height="525"/></clipPath><clipPath class="axesclip" id="clip3c590dy"><rect x="0" y="100" width="2806.23" height="345"/></clipPath><clipPath class="axesclip" id="clip3c590dxy"><rect x="80" y="100" width="2481" height="345"/></clipPath></g><g class="gradients"/><g class="patterns"/></defs><g class="bglayer"><rect class="bg" x="80" y="100" width="2481" height="345" style="fill: rgb(229, 236, 246); fill-opacity: 1; stroke-width: 0px;"/></g><g class="layer-below"><g class="imagelayer"/><g class="shapelayer"/></g><g class="cartesianlayer"><g class="subplot xy"><g class="layer-subplot"><g class="shapelayer"/><g class="imagelayer"/></g><g class="minor-gridlayer"><g class="x"/><g class="y"/></g><g class="gridlayer"><g class="x"><path class="xgrid crisp" transform="translate(209.05,0)" d="M0,100v345" style="stroke: rgb(255, 255, 255); stroke-opacity: 1; stroke-width: 1px;"/><path class="xgrid crisp" transform="translate(579.53,0)" d="M0,100v345" style="stroke: rgb(255, 255, 255); stroke-opacity: 1; stroke-width: 1px;"/><path class="xgrid crisp" transform="translate(950.02,0)" d="M0,100v345" style="stroke: rgb(255, 255, 255); stroke-opacity: 1; stroke-width: 1px;"/><path class="xgrid crisp" transform="translate(1320.5,0)" d="M0,100v345" style="stroke: rgb(255, 255, 255); stroke-opacity: 1; stroke-width: 1px;"/><path class="xgrid crisp" transform="translate(1690.98,0)" d="M0,100v345" style="stroke: rgb(255, 255, 255); stroke-opacity: 1; stroke-width: 1px;"/><path class="xgrid crisp" transform="translate(2061.4700000000003,0)" d="M0,100v345" style="stroke: rgb(255, 255, 255); stroke-opacity: 1; stroke-width: 1px;"/><path class="xgrid crisp" transform="translate(2431.95,0)" d="M0,100v345" style="stroke: rgb(255, 255, 255); stroke-opacity: 1; stroke-width: 1px;"/></g><g class="y"><path class="ygrid crisp" transform="translate(0,389.36)" d="M80,0h2481" style="stroke: rgb(255, 255, 255); stroke-opacity: 1; stroke-width: 1px;"/><path class="ygrid crisp" transform="translate(0,322.58000000000004)" d="M80,0h2481" style="stroke: rgb(255, 255, 255); stroke-opacity: 1; stroke-width: 1px;"/><path class="ygrid crisp" transform="translate(0,255.81)" d="M80,0h2481" style="stroke: rgb(255, 255, 255); stroke-opacity: 1; stroke-width: 1px;"/><path class="ygrid crisp" transform="translate(0,189.03)" d="M80,0h2481" style="stroke: rgb(255, 255, 255); stroke-opacity: 1; stroke-width: 1px;"/><path class="ygrid crisp" transform="translate(0,122.25)" d="M80,0h2481" style="stroke: rgb(255, 255, 255); stroke-opacity: 1; stroke-width: 1px;"/></g></g><g class="zerolinelayer"/><g class="layer-between"><g class="shapelayer"/><g class="imagelayer"/></g><path class="xlines-below"/><path class="ylines-below"/><g class="overlines-below"/><g class="xaxislayer-below"/><g class="yaxislayer-below"/><g class="overaxes-below"/><g class="overplot"><g class="xy" transform="translate(80,100)" clip-path="url(#clip3c590dxyplot)"><g class="scatterlayer mlayer"><g class="trace scatter tracef22a68" style="stroke-miterlimit: 2; opacity: 1;"><g class="fills"/><g class="errorbars"/><g class="lines"><path class="js-line" style="vector-effect: none; fill: none; stroke: rgb(246, 207, 113); stroke-opacity: 1; stroke-width: 2px; opacity: 1;" d="M129.05,322.75L870.02,55.64L1610.98,289.36L2351.95,189.19"/></g><g class="points"><path class="point" transform="translate(129.05,322.75)" style="opacity: 1; stroke-width: 0px; fill: rgb(102, 197, 204); fill-opacity: 1;" d="M4,0A4,4 0 1,1 0,-4A4,4 0 0,1 4,0Z"/><path class="point" transform="translate(870.02,55.64)" style="opacity: 1; stroke-width: 0px; fill: rgb(102, 197, 204); fill-opacity: 1;" d="M4,0A4,4 0 1,1 0,-4A4,4 0 0,1 4,0Z"/><path class="point" transform="translate(1610.98,289.36)" style="opacity: 1; stroke-width: 0px; fill: rgb(102, 197, 204); fill-opacity: 1;" d="M4,0A4,4 0 1,1 0,-4A4,4 0 0,1 4,0Z"/><path class="point" transform="translate(2351.95,189.19)" style="opacity: 1; stroke-width: 0px; fill: rgb(102, 197, 204); fill-opacity: 1;" d="M4,0A4,4 0 1,1 0,-4A4,4 0 0,1 4,0Z"/></g><g class="text"/></g><g class="trace scatter tracec20068" style="stroke-miterlimit: 2; opacity: 1;"><g class="fills"/><g class="errorbars"/><g class="lines"><path class="js-line" style="vector-effect: none; fill: none; stroke: rgb(248, 156, 116); stroke-opacity: 1; stroke-width: 2px; opacity: 1;" d="M129.05,189.19L870.02,38.94L1610.98,22.25"/></g><g class="points"><path class="point" transform="translate(129.05,189.19)" style="opacity: 1; stroke-width: 0px; fill: rgb(246, 207, 113); fill-opacity: 1;" d="M4,0A4,4 0 1,1 0,-4A4,4 0 0,1 4,0Z"/><path class="point" transform="translate(870.02,38.94)" style="opacity: 1; stroke-width: 0px; fill: rgb(246, 207, 113); fill-opacity: 1;" d="M4,0A4,4 0 1,1 0,-4A4,4 0 0,1 4,0Z"/><path class="point" transform="translate(1610.98,22.25)" style="opacity: 1; stroke-width: 0px; fill: rgb(246, 207, 113); fill-opacity: 1;" d="M4,0A4,4 0 1,1 0,-4A4,4 0 0,1 4,0Z"/></g><g class="text"/></g></g></g></g><path class="xlines-above crisp" style="fill: none;" d="M0,0"/><path class="ylines-above crisp" style="fill: none;" d="M0,0"/><g class="overlines-above"/><g class="xaxislayer-above"><g class="xtick"><text text-anchor="middle" x="0" y="458" style="font-family: TOBESTRIPPEDOpen SansTOBESTRIPPED, verdana, arial, sans-serif; font-size: 12px; fill: rgb(42, 63, 95); fill-opacity: 1; white-space: pre; opacity: 1;" transform="translate(209.05,0)">1</text></g><g class="xtick"><text text-anchor="middle" x="0" y="458" style="font-family: TOBESTRIPPEDOpen SansTOBESTRIPPED, verdana, arial, sans-serif; font-size: 12px; fill: rgb(42, 63, 95); fill-opacity: 1; white-space: pre; opacity: 1;" transform="translate(579.53,0)">1.5</text></g><g class="xtick"><text text-anchor="middle" x="0" y="458" style="font-family: TOBESTRIPPEDOpen SansTOBESTRIPPED, verdana, arial, sans-serif; font-size: 12px; fill: rgb(42, 63, 95); fill-opacity: 1; white-space: pre; opacity: 1;" transform="translate(950.02,0)">2</text></g><g class="xtick"><text text-anchor="middle" x="0" y="458" style="font-family: TOBESTRIPPEDOpen SansTOBESTRIPPED, verdana, arial, sans-serif; font-size: 12px; fill: rgb(42, 63, 95); fill-opacity: 1; white-space: pre; opacity: 1;" transform="translate(1320.5,0)">2.5</text></g><g class="xtick"><text text-anchor="middle" x="0" y="458" style="font-family: TOBESTRIPPEDOpen SansTOBESTRIPPED, verdana, arial, sans-serif; font-size: 12px; fill: rgb(42, 63, 95); fill-opacity: 1; white-space: pre; opacity: 1;" transform="translate(1690.98,0)">3</text></g><g class="xtick"><text text-anchor="middle" x="0" y="458" style="font-family: TOBESTRIPPEDOpen SansTOBESTRIPPED, verdana, arial, sans-serif; font-size: 12px; fill: rgb(42, 63, 95); fill-opacity: 1; white-space: pre; opacity: 1;" transform="translate(2061.4700000000003,0)">3.5</text></g><g class="xtick"><text text-anchor="middle" x="0" y="458" style="font-family: TOBESTRIPPEDOpen SansTOBESTRIPPED, verdana, arial, sans-serif; font-size: 12px; fill: rgb(42, 63, 95); fill-opacity: 1; white-space: pre; opacity: 1;" transform="translate(2431.95,0)">4</text></g></g><g class="yaxislayer-above"><g class="ytick"><text text-anchor="end" x="79" y="4.199999999999999" style="font-family: TOBESTRIPPEDOpen SansTOBESTRIPPED, verdana, arial, sans-serif; font-size: 12px; fill: rgb(42, 63, 95); fill-opacity: 1; white-space: pre; opacity: 1;" transform="translate(0,389.36)">2</text></g><g class="ytick"><text text-anchor="end" x="79" y="4.199999999999999" style="font-family: TOBESTRIPPEDOpen SansTOBESTRIPPED, verdana, arial, sans-serif; font-size: 12px; fill: rgb(42, 63, 95); fill-opacity: 1; white-space: pre; opacity: 1;" transform="translate(0,322.58000000000004)">4</text></g><g class="ytick"><text text-anchor="end" x="79" y="4.199999999999999" style="font-family: TOBESTRIPPEDOpen SansTOBESTRIPPED, verdana, arial, sans-serif; font-size: 12px; fill: rgb(42, 63, 95); fill-opacity: 1; white-space: pre; opacity: 1;" transform="translate(0,255.81)">6</text></g><g class="ytick"><text text-anchor="end" x="79" y="4.199999999999999" style="font-family: TOBESTRIPPEDOpen SansTOBESTRIPPED, verdana, arial, sans-serif; font-size: 12px; fill: rgb(42, 63, 95); fill-opacity: 1; white-space: pre; opacity: 1;" transform="translate(0,189.03)">8</text></g><g class="ytick"><text text-anchor="end" x="79" y="4.199999999999999" style="font-family: TOBESTRIPPEDOpen SansTOBESTRIPPED, verdana, arial, sans-serif; font-size: 12px; fill: rgb(42, 63, 95); fill-opacity: 1; white-space: pre; opacity: 1;" transform="translate(0,122.25)">10</text></g></g><g class="overaxes-above"/></g></g><g class="polarlayer"/><g class="smithlayer"/><g class="ternarylayer"/><g class="geolayer"/><g class="funnelarealayer"/><g class="pielayer"/><g class="iciclelayer"/><g class="treemaplayer"/><g class="sunburstlayer"/><g class="glimages"/><defs id="topdefs-3c590d"><g class="clips"/><clipPath id="legend3c590d"><rect width="183" height="48" x="0" y="0"/></clipPath></defs><g class="layer-above"><g class="imagelayer"/><g class="shapelayer"/></g><g class="infolayer"><g class="legend" pointer-events="all" transform="translate(2610.62,100)"><rect class="bg" shape-rendering="crispEdges" style="stroke: rgb(68, 68, 68); stroke-opacity: 1; fill: rgb(255, 255, 255); fill-opacity: 1; stroke-width: 0px;" width="183" height="48" x="0" y="0"/><g class="scrollbox" transform="" clip-path="url(#legend3c590d)"><g class="groups"><g class="traces" style="opacity: 1;" transform="translate(0,14.5)"><text class="legendtext" text-anchor="start" style="font-family: TOBESTRIPPEDOpen SansTOBESTRIPPED, verdana, arial, sans-serif; font-size: 12px; fill: rgb(42, 63, 95); fill-opacity: 1; white-space: pre;" x="40" y="4.680000000000001">Fellowship (JOU01)</text><g class="layers" style="opacity: 1;"><g class="legendfill"/><g class="legendlines"><path class="js-line" d="M5,0h30" style="fill: none; stroke: rgb(246, 207, 113); stroke-opacity: 1; stroke-width: 2px;"/></g><g class="legendsymbols"><g class="legendpoints"><path class="scatterpts" transform="translate(20,0)" style="opacity: 1; stroke-width: 0px; fill: rgb(102, 197, 204); fill-opacity: 1;" d="M4,0A4,4 0 1,1 0,-4A4,4 0 0,1 4,0Z"/></g></g></g><rect class="legendtoggle" style="fill: rgb(0, 0, 0); fill-opacity: 0;" x="0" y="-9.5" width="177.81666564941406" height="19"/></g><g class="traces" style="opacity: 1;" transform="translate(0,33.5)"><text class="legendtext" text-anchor="start" style="font-family: TOBESTRIPPEDOpen SansTOBESTRIPPED, verdana, arial, sans-serif; font-size: 12px; fill: rgb(42, 63, 95); fill-opacity: 1; white-space: pre;" x="40" y="4.680000000000001">Frodo &amp; Sam (JOU02)</text><g class="layers" style="opacity: 1;"><g class="legendfill"/><g class="legendlines"><path class="js-line" d="M5,0h30" style="fill: none; stroke: rgb(248, 156, 116); stroke-opacity: 1; stroke-width: 2px;"/></g><g class="legendsymbols"><g class="legendpoints"><path class="scatterpts" transform="translate(20,0)" style="opacity: 1; stroke-width: 0px; fill: rgb(246, 207, 113); fill-opacity: 1;" d="M4,0A4,4 0 1,1 0,-4A4,4 0 0,1 4,0Z"/></g></g></g><rect class="legendtoggle" style="fill: rgb(0, 0, 0); fill-opacity: 0;" x="0" y="-9.5" width="177.81666564941406" height="19"/></g></g></g><rect class="scrollbar" rx="20" ry="3" width="0" height="0" style="fill: rgb(128, 139, 164); fill-opacity: 1;" x="0" y="0"/></g><g class="g-gtitle"><text class="gtitle" style="opacity: 1; font-family: TOBESTRIPPEDOpen SansTOBESTRIPPED, verdana, arial, sans-serif; font-size: 17px; fill: rgb(42, 63, 95); fill-opacity: 1; white-space: pre;" x="140.3115" y="50" text-anchor="start" dy="0em">Journey Risk Profiles</text></g><g class="g-xtitle"><text class="xtitle" style="opacity: 1; font-family: TOBESTRIPPEDOpen SansTOBESTRIPPED, verdana, arial, sans-serif; font-size: 14px; fill: rgb(42, 63, 95); fill-opacity: 1; white-space: pre;" x="1320.5" y="485.83347778320314" text-anchor="middle">Sequence Step in Journey</text></g><g class="g-ytitle"><text class="ytitle" transform="rotate(-90,42.78359375,272.5)" style="opacity: 1; font-family: TOBESTRIPPEDOpen SansTOBESTRIPPED, verdana, arial, sans-serif; font-size: 14px; fill: rgb(42, 63, 95); fill-opacity: 1; white-space: pre;" x="42.78359375" y="272.5" text-anchor="middle">Estimated Risk Factor</text></g></g></svg>