<svg class="main-svg" xmlns="http://www.w3.org/2000/svg" xmlns:xlink="http://www.w3.org/1999/xlink" width="2806.23" height="525" style="" viewBox="0 0 2806.23 525"><rect x="0" y="0" width="2806.23" height="525" style="fill: rgb(255, 255, 255); fill-opacity: 1;"/><defs id="defs-0d76db"><g class="clips"><clipPath id="clip0d76dbxyplot" class="plotclip"><rect width="2646" height="345"/></clipPath><clipPath class="axesclip" id="clip0d76dbx"><rect x="80" y="0" width="2646" height="525"/></clipPath><clipPath class="axesclip" id="clip0d76dby"><rect x="0" y="100" width="2806.23" height="345"/></clipPath><clipPath class="axesclip" id="clip0d76dbxy"><rect x="80" y="100" width="2646" height="345"/></clipPath></g><g class="gradients"/><g class="patterns"/></defs><g class="bglayer"><rect class="bg" x="80" y="100" width="2646" height="345" style="fill: rgb(229, 236, 246); fill-opacity: 1; stroke-width: 0px;"/></g><g class="layer-below"><g class="imagelayer"/><g class="shapelayer"/></g><g class="cartesianlayer"><g class="subplot xy"><g class="layer-subplot"><g class="shapelayer"/><g class="imagelayer"/></g><g class="minor-gridlayer"><g class="x"/><g class="y"/></g><g class="gridlayer"><g class="x"><path class="xgrid crisp" transform="translate(590.88,0)" d="M0,100v345" style="stroke: rgb(255, 255, 255); stroke-opacity: 1; stroke-width: 1px;"/><path class="xgrid crisp" transform="translate(1090.6399999999999,0)" d="M0,100v345" style="stroke: rgb(255, 255, 255); stroke-opacity: 1; stroke-width: 1px;"/><path class="xgrid crisp" transform="translate(1590.41,0)" d="M0,100v345" style="stroke: rgb(255, 255, 255); stroke-opacity: 1; stroke-width: 1px;"/><path class="xgrid crisp" transform="translate(2090.1800000000003,0)" d="M0,100v345" style="stroke: rgb(255, 255, 255); stroke-opacity: 1; stroke-width: 1px;"/><path class="xgrid crisp" transform="translate(2589.95,0)" d="M0,100v345" style="stroke: rgb(255, 255, 255); stroke-opacity: 1; stroke-width: 1px;"/></g><g class="y"><path class="ygrid crisp" transform="translate(0,363.4)" d="M80,0h2646" style="stroke: rgb(255, 255, 255); stroke-opacity: 1; stroke-width: 1px;"/><path class="ygrid crisp" transform="translate(0,302.8)" d="M80,0h2646" style="stroke: rgb(255, 255, 255); stroke-opacity: 1; stroke-width: 1px;"/><path class="ygrid crisp" transform="translate(0,242.2)" d="M80,0h2646" style="stroke: rgb(255, 255, 255); stroke-opacity: 1; stroke-width: 1px;"/><path class="ygrid crisp" transform="translate(0,181.6)" d="M80,0h2646" style="stroke: rgb(255, 255, 255); stroke-opacity: 1; stroke-width: 1px;"/><path class="ygrid crisp" transform="translate(0,121)" d="M80,0h2646" style="stroke: rgb(255, 255, 255); stroke-opacity: 1; stroke-width: 1px;"/></g></g><g class="zerolinelayer"><path class="xzl zl crisp" transform="translate(91.11,0)" d="M0,100v345" style="stroke: rgb(255, 255, 255); stroke-opacity: 1; stroke-width: 2px;"/><path class="yzl zl crisp" transform="translate(0,424)" d="M80,0h2646" style="stroke: rgb(255, 255, 255); stroke-opacity: 1; stroke-width: 2px;"/></g><g class="layer-between"><g class="shapelayer"/><g class="imagelayer"/></g><path class="xlines-below"/><path class="ylines-below"/><g class="overlines-below"/><g class="xaxislayer-below"/><g class="yaxislayer-below"/><g class="overaxes-below"/><g class="overplot"><g class="xy" transform="translate(80,100)" clip-path="url(#clip0d76dbxyplot)"><g class="scatterlayer mlayer"><g class="trace scatter trace1269de" style="stroke-miterlimit: 2; opacity: 1;"><g class="fills"/><g class="errorbars"/><g class="lines"/><g class="points"><path class="point" transform="translate(136.05,324)" style="opacity: 1; stroke-width: 0px; fill: rgb(102, 197, 204); fill-opacity: 1;" d="M3,0A3,3 0 1,1 0,-3A3,3 0 0,1 3,0Z"/><path class="point" transform="translate(260.99,21)" style="opacity: 1; stroke-width: 0px; fill: rgb(102, 197, 204); fill-opacity: 1;" d="M3,0A3,3 0 1,1 0,-3A3,3 0 0,1 3,0Z"/><path class="point" transform="translate(2260.07,324)" style="opacity: 1; stroke-width: 0px; fill: rgb(102, 197, 204); fill-opacity: 1;" d="M3,0A3,3 0 1,1 0,-3A3,3 0 0,1 3,0Z"/><path class="point" transform="translate(510.88,324)" style="opacity: 1; stroke-width: 0px; fill: rgb(102, 197, 204); fill-opacity: 1;" d="M3,0A3,3 0 1,1 0,-3A3,3 0 0,1 3,0Z"/><path class="point" transform="translate(1760.3,21)" style="opacity: 1; stroke-width: 0px; fill: rgb(102, 197, 204); fill-opacity: 1;" d="M3,0A3,3 0 1,1 0,-3A3,3 0 0,1 3,0Z"/><path class="point" transform="translate(2135.12,21)" style="opacity: 1; stroke-width: 0px; fill: rgb(102, 197, 204); fill-opacity: 1;" d="M3,0A3,3 0 1,1 0,-3A3,3 0 0,1 3,0Z"/><path class="point" transform="translate(2509.95,324)" style="opacity: 1; stroke-width: 0px; fill: rgb(102, 197, 204); fill-opacity: 1;" d="M3,0A3,3 0 1,1 0,-3A3,3 0 0,1 3,0Z"/><path class="point" transform="translate(2010.18,324)" style="opacity: 1; stroke-width: 0px; fill: rgb(102, 197, 204); fill-opacity: 1;" d="M3,0A3,3 0 1,1 0,-3A3,3 0 0,1 3,0Z"/><path class="point" transform="translate(2509.95,324)" style="opacity: 1; stroke-width: 0px; fill: rgb(102, 197, 204); fill-opacity: 1;" d="M3,0A3,3 0 1,1 0,-3A3,3 0 0,1 3,0Z"/><path class="point" transform="translate(1510.41,324)" style="opacity: 1; stroke-width: 0px; fill: rgb(102, 197, 204); fill-opacity: 1;" d="M3,0A3,3 0 1,1 0,-3A3,3 0 0,1 3,0Z"/><path class="point" transform="translate(1260.53,324)" style="opacity: 1; stroke-width: 0px; fill: rgb(102, 197, 204); fill-opacity: 1;" d="M3,0A3,3 0 1,1 0,-3A3,3 0 0,1 3,0Z"/><path class="point" transform="translate(2385.01,324)" style="opacity: 1; stroke-width: 0px; fill: rgb(102, 197, 204); fill-opacity: 1;" d="M3,0A3,3 0 1,1 0,-3A3,3 0 0,1 3,0Z"/><path class="point" transform="translate(1010.64,324)" style="opacity: 1; stroke-width: 0px; fill: rgb(102, 197, 204); fill-opacity: 1;" d="M3,0A3,3 0 1,1 0,-3A3,3 0 0,1 3,0Z"/><path class="point" transform="translate(2260.07,21)" style="opacity: 1; stroke-width: 0px; fill: rgb(102, 197, 204); fill-opacity: 1;" d="M3,0A3,3 0 1,1 0,-3A3,3 0 0,1 3,0Z"/><path class="point" transform="translate(2135.12,324)" style="opacity: 1; stroke-width: 0px; fill: rgb(102, 197, 204); fill-opacity: 1;" d="M3,0A3,3 0 1,1 0,-3A3,3 0 0,1 3,0Z"/></g><g class="text"><g class="textpoint" transform="translate(0,-7.75)"><text x="136.05" y="324" style="font-family: TOBESTRIPPEDOpen SansTOBESTRIPPED, verdana, arial, sans-serif; font-size: 12px; fill: rgb(42, 63, 95); fill-opacity: 1; white-space: pre;" text-anchor="middle">The Shire</text></g><g class="textpoint" transform="translate(0,-7.75)"><text x="260.99" y="21" style="font-family: TOBESTRIPPEDOpen SansTOBESTRIPPED, verdana, arial, sans-serif; font-size: 12px; fill: rgb(42, 63, 95); fill-opacity: 1; white-space: pre;" text-anchor="middle">Rivendell</text></g><g class="textpoint" transform="translate(0,-7.75)"><text x="2260.07" y="324" style="font-family: TOBESTRIPPEDOpen SansTOBESTRIPPED, verdana, arial, sans-serif; font-size: 12px; fill: rgb(42, 63, 95); fill-opacity: 1; white-space: pre;" text-anchor="middle">Moria (Khazad-d没m)</text></g><g class="textpoint" transform="translate(0,-7.75)"><text x="510.88" y="324" style="font-family: TOBESTRIPPEDOpen SansTOBESTRIPPED, verdana, arial, sans-serif; font-size: 12px; fill: rgb(42, 63, 95); fill-opacity: 1; white-space: pre;" text-anchor="middle">Lothl贸rien</text></g><g class="textpoint" transform="translate(0,-7.75)"><text x="1760.3" y="21" style="font-family: TOBESTRIPPEDOpen SansTOBESTRIPPED, verdana, arial, sans-serif; font-size: 12px; fill: rgb(42, 63, 95); fill-opacity: 1; white-space: pre;" text-anchor="middle">Helm's Deep</text></g><g class="textpoint" transform="translate(0,-7.75)"><text x="2135.12" y="21" style="font-family: TOBESTRIPPEDOpen SansTOBESTRIPPED, verdana, arial, sans-serif; font-size: 12px; fill: rgb(42, 63, 95); fill-opacity: 1; white-space: pre;" text-anchor="middle">Minas Tirith</text></g><g class="textpoint" transform="translate(0,-7.75)"><text x="2509.95" y="324" style="font-family: TOBESTRIPPEDOpen SansTOBESTRIPPED, verdana, arial, sans-serif; font-size: 12px; fill: rgb(42, 63, 95); fill-opacity: 1; white-space: pre;" text-anchor="middle">Mount Doom (Orodruin)</text></g><g class="textpoint" transform="translate(0,-7.75)"><text x="2010.18" y="324" style="font-family: TOBESTRIPPEDOpen SansTOBESTRIPPED, verdana, arial, sans-serif; font-size: 12px; fill: rgb(42, 63, 95); fill-opacity: 1; white-space: pre;" text-anchor="middle">Isengard (Orthanc)</text></g><g class="textpoint" transform="translate(0,-7.75)"><text x="2509.95" y="324" style="font-family: TOBESTRIPPEDOpen SansTOBESTRIPPED, verdana, arial, sans-serif; font-size: 12px; fill: rgb(42, 63, 95); fill-opacity: 1; white-space: pre;" text-anchor="middle">Barad-d没r</text></g><g class="textpoint" transform="translate(0,-7.75)"><text x="1510.41" y="324" style="font-family: TOBESTRIPPEDOpen SansTOBESTRIPPED, verdana, arial, sans-serif; font-size: 12px; fill: rgb(42, 63, 95); fill-opacity: 1; white-space: pre;" text-anchor="middle">Weathertop (Amon S没l)</text></g><g class="textpoint" transform="translate(0,-7.75)"><text x="1260.53" y="324" style="font-family: TOBESTRIPPEDOpen SansTOBESTRIPPED, verdana, arial, sans-serif; font-size: 12px; fill: rgb(42, 63, 95); fill-opacity: 1; white-space: pre;" text-anchor="middle">Amon Hen</text></g><g class="textpoint" transform="translate(0,-7.75)"><text x="2385.01" y="324" style="font-family: TOBESTRIPPEDOpen SansTOBESTRIPPED, verdana, arial, sans-serif; font-size: 12px; fill: rgb(42, 63, 95); fill-opacity: 1; white-space: pre;" text-anchor="middle">Cirith Ungol</text></g><g class="textpoint" transform="translate(0,-7.75)"><text x="1010.64" y="324" style="font-family: TOBESTRIPPEDOpen SansTOBESTRIPPED, verdana, arial, sans-serif; font-size: 12px; fill: rgb(42, 63, 95); fill-opacity: 1; white-space: pre;" text-anchor="middle">Edoras</text></g><g class="textpoint" transform="translate(0,-7.75)"><text x="2260.07" y="21" style="font-family: TOBESTRIPPEDOpen SansTOBESTRIPPED, verdana, arial, sans-serif; font-size: 12px; fill: rgb(42, 63, 95); fill-opacity: 1; white-space: pre;" text-anchor="middle">Black Gate (Morannon)</text></g><g class="textpoint" transform="translate(0,-7.75)"><text x="2135.12" y="324" style="font-family: TOBESTRIPPEDOpen SansTOBESTRIPPED, verdana, arial, sans-serif; font-size: 12px; fill: rgb(42, 63, 95); fill-opacity: 1; white-space: pre;" text-anchor="middle">Paths of the Dead</text></g></g></g></g></g></g><path class="xlines-above crisp" style="fill: none;" d="M0,0"/><path class="ylines-above crisp" style="fill: none;" d="M0,0"/><g class="overlines-above"/><g class="xaxislayer-above"><g class="xtick"><text text-anchor="middle" x="0" y="458" style="font-family: TOBESTRIPPEDOpen SansTOBESTRIPPED, verdana, arial, sans-serif; font-size: 12px; fill: rgb(42, 63, 95); fill-opacity: 1; white-space: pre; opacity: 1;" transform="translate(91.11,0)">0</text></g><g class="xtick"><text text-anchor="middle" x="0" y="458" style="font-family: TOBESTRIPPEDOpen SansTOBESTRIPPED, verdana, arial, sans-serif; font-size: 12px; fill: rgb(42, 63, 95); fill-opacity: 1; white-space: pre; opacity: 1;" transform="translate(590.88,0)">2</text></g><g class="xtick"><text text-anchor="middle" x="0" y="458" style="font-family: TOBESTRIPPEDOpen SansTOBESTRIPPED, verdana, arial, sans-serif; font-size: 12px; fill: rgb(42, 63, 95); fill-opacity: 1; white-space: pre; opacity: 1;" transform="translate(1090.6399999999999,0)">4</text></g><g class="xtick"><text text-anchor="middle" x="0" y="458" style="font-family: TOBESTRIPPEDOpen SansTOBESTRIPPED, verdana, arial, sans-serif; font-size: 12px; fill: rgb(42, 63, 95); fill-opacity: 1; white-space: pre; opacity: 1;" transform="translate(1590.41,0)">6</text></g><g class="xtick"><text text-anchor="middle" x="0" y="458" style="font-family: TOBESTRIPPEDOpen SansTOBESTRIPPED, verdana, arial, sans-serif; font-size: 12px; fill: rgb(42, 63, 95); fill-opacity: 1; white-space: pre; opacity: 1;" transform="translate(2090.1800000000003,0)">8</text></g><g class="xtick"><text text-anchor="middle" x="0" y="458" style="font-family: TOBESTRIPPEDOpen SansTOBESTRIPPED, verdana, arial, sans-serif; font-size: 12px; fill: rgb(42, 63, 95); fill-opacity: 1; white-space: pre; opacity: 1;" transform="translate(2589.95,0)">10</text></g></g><g class="yaxislayer-above"><g class="ytick"><text text-anchor="end" x="79" y="4.199999999999999" style="font-family: TOBESTRIPPEDOpen SansTOBESTRIPPED, verdana, arial, sans-serif; font-size: 12px; fill: rgb(42, 63, 95); fill-opacity: 1; white-space: pre; opacity: 1;" transform="translate(0,424)">0</text></g><g class="ytick"><text text-anchor="end" x="79" y="4.199999999999999" style="font-family: TOBESTRIPPEDOpen SansTOBESTRIPPED, verdana, arial, sans-serif; font-size: 12px; fill: rgb(42, 63, 95); fill-opacity: 1; white-space: pre; opacity: 1;" transform="translate(0,363.4)">0.2</text></g><g class="ytick"><text text-anchor="end" x="79" y="4.199999999999999" style="font-family: TOBESTRIPPEDOpen SansTOBESTRIPPED, verdana, arial, sans-serif; font-size: 12px; fill: rgb(42, 63, 95); fill-opacity: 1; white-space: pre; opacity: 1;" transform="translate(0,302.8)">0.4</text></g><g class="ytick"><text text-anchor="end" x="79" y="4.199999999999999" style="font-family: TOBESTRIPPEDOpen SansTOBESTRIPPED, verdana, arial, sans-serif; font-size: 12px; fill: rgb(42, 63, 95); fill-opacity: 1; white-space: pre; opacity: 1;" transform="translate(0,242.2)">0.6</text></g><g class="ytick"><text text-anchor="end" x="79" y="4.199999999999999" style="font-family: TOBESTRIPPEDOpen SansTOBESTRIPPED, verdana, arial, sans-serif; font-size: 12px; fill: rgb(42, 63, 95); fill-opacity: 1; white-space: pre; opacity: 1;" transform="translate(0,181.6)">0.8</text></g><g class="ytick"><text text-anchor="end" x="79" y="4.199999999999999" style="font-family: TOBESTRIPPEDOpen SansTOBESTRIPPED, verdana, arial, sans-serif; font-size: 12px; fill: rgb(42, 63, 95); fill-opacity: 1; white-space: pre; opacity: 1;" transform="translate(0,121)">1</text></g></g><g class="overaxes-above"/></g></g><g class="polarlayer"/><g class="smithlayer"/><g class="ternarylayer"/><g class="geolayer"/><g class="funnelarealayer"/><g class="pielayer"/><g class="iciclelayer"/><g class="treemaplayer"/><g class="sunburstlayer"/><g class="glimages"/><defs id="topdefs-0d76db"><g class="clips"/></defs><g class="layer-above"><g class="imagelayer"/><g class="shapelayer"/></g><g class="infolayer"><g class="g-gtitle"><text class="gtitle" style="opacity: 1; font-family: TOBESTRIPPEDOpen SansTOBESTRIPPED, verdana, arial, sans-serif; font-size: 17px; fill: rgb(42, 63, 95); fill-opacity: 1; white-space: pre;" x="140.3115" y="50" text-anchor="start" dy="0em">Location Risk Factor vs. Number of Major Events (Battles/Councils)</text></g><g class="g-xtitle"><text class="xtitle" style="opacity: 1; font-family: TOBESTRIPPEDOpen SansTOBESTRIPPED, verdana, arial, sans-serif; font-size: 14px; fill: rgb(42, 63, 95); fill-opacity: 1; white-space: pre;" x="1403" y="485.83347778320314" text-anchor="middle">Estimated Risk Factor</text></g><g class="g-ytitle"><text class="ytitle" transform="rotate(-90,38.383203125,272.5)" style="opacity: 1; font-family: TOBESTRIPPEDOpen SansTOBESTRIPPED, verdana, arial, sans-serif; font-size: 14px; fill: rgb(42, 63, 95); fill-opacity: 1; white-space: pre;" x="38.383203125" y="272.5" text-anchor="middle">Number of Major Events</text></g></g></svg>