<svg class="main-svg" xmlns="http://www.w3.org/2000/svg" xmlns:xlink="http://www.w3.org/1999/xlink" width="800" height="900" style="" viewBox="0 0 800 900"><rect x="0" y="0" width="800" height="900" style="fill: rgb(255, 255, 255); fill-opacity: 1;"/><defs id="defs-63a290"><g class="clips"><clipPath id="clip63a290xyplot" class="plotclip"><rect width="790" height="840"/></clipPath><clipPath class="axesclip" id="clip63a290x"><rect x="5" y="0" width="790" height="900"/></clipPath><clipPath class="axesclip" id="clip63a290y"><rect x="0" y="40" width="800" height="840"/></clipPath><clipPath class="axesclip" id="clip63a290xy"><rect x="5" y="40" width="790" height="840"/></clipPath></g><g class="gradients"/><g class="patterns"/></defs><g class="bglayer"><rect class="bg" x="5" y="40" width="790" height="840" style="fill: rgb(229, 236, 246); fill-opacity: 1; stroke-width: 0px;"/></g><g class="layer-below"><g class="imagelayer"/><g class="shapelayer"/></g><g class="cartesianlayer"><g class="subplot xy"><g class="layer-subplot"><g class="shapelayer"/><g class="imagelayer"/></g><g class="minor-gridlayer"><g class="x"/><g class="y"/></g><g class="gridlayer"><g class="x"/><g class="y"/></g><g class="zerolinelayer"/><g class="layer-between"><g class="shapelayer"/><g class="imagelayer"/></g><path class="xlines-below"/><path class="ylines-below"/><g class="overlines-below"/><g class="xaxislayer-below"/><g class="yaxislayer-below"/><g class="overaxes-below"/><g class="overplot"><g class="xy" transform="translate(5,40)" clip-path="url(#clip63a290xyplot)"><g class="scatterlayer mlayer"><g class="trace scatter traceb1081b" style="stroke-miterlimit: 2; opacity: 1;"><g class="fills"/><g class="errorbars"/><g class="lines"><path class="js-line" style="vector-effect: none; fill: none; stroke: rgb(170, 170, 170); stroke-opacity: 1; stroke-width: 1px; opacity: 1;" d="M48.88,515.04L354.34,788.63"/><path class="js-line" style="vector-effect: none; fill: none; stroke: rgb(170, 170, 170); stroke-opacity: 1; stroke-width: 1px; opacity: 1;" d="M48.88,515.04L118.53,51.38"/><path class="js-line" style="vector-effect: none; fill: none; stroke: rgb(170, 170, 170); stroke-opacity: 1; stroke-width: 1px; opacity: 1;" d="M48.88,515.04L741.13,562.96"/><path class="js-line" style="vector-effect: none; fill: none; stroke: rgb(170, 170, 170); stroke-opacity: 1; stroke-width: 1px; opacity: 1;" d="M354.34,788.63L603.27,191.58"/><path class="js-line" style="vector-effect: none; fill: none; stroke: rgb(170, 170, 170); stroke-opacity: 1; stroke-width: 1px; opacity: 1;" d="M118.53,51.38L603.27,191.58"/><path class="js-line" style="vector-effect: none; fill: none; stroke: rgb(170, 170, 170); stroke-opacity: 1; stroke-width: 1px; opacity: 1;" d="M741.13,562.96L603.27,191.58"/></g><g class="points"/><g class="text"/></g><g class="trace scatter tracee98860" style="stroke-miterlimit: 2; opacity: 1;"><g class="fills"/><g class="errorbars"/><g class="lines"/><g class="points"><path class="point" transform="translate(48.88,515.04)" style="opacity: 1; stroke-width: 1px; fill: rgb(102, 197, 204); fill-opacity: 1; stroke: rgb(68, 68, 68); stroke-opacity: 1;" d="M7.5,0A7.5,7.5 0 1,1 0,-7.5A7.5,7.5 0 0,1 7.5,0Z"/><path class="point" transform="translate(354.34,788.63)" style="opacity: 1; stroke-width: 1px; fill: rgb(246, 207, 113); fill-opacity: 1; stroke: rgb(68, 68, 68); stroke-opacity: 1;" d="M7.5,0A7.5,7.5 0 1,1 0,-7.5A7.5,7.5 0 0,1 7.5,0Z"/><path class="point" transform="translate(118.53,51.38)" style="opacity: 1; stroke-width: 1px; fill: rgb(248, 156, 116); fill-opacity: 1; stroke: rgb(68, 68, 68); stroke-opacity: 1;" d="M7.5,0A7.5,7.5 0 1,1 0,-7.5A7.5,7.5 0 0,1 7.5,0Z"/><path class="point" transform="translate(741.13,562.96)" style="opacity: 1; stroke-width: 1px; fill: rgb(220, 176, 242); fill-opacity: 1; stroke: rgb(68, 68, 68); stroke-opacity: 1;" d="M7.5,0A7.5,7.5 0 1,1 0,-7.5A7.5,7.5 0 0,1 7.5,0Z"/><path class="point" transform="translate(603.27,191.58)" style="opacity: 1; stroke-width: 1px; fill: rgb(135, 197, 95); fill-opacity: 1; stroke: rgb(68, 68, 68); stroke-opacity: 1;" d="M7.5,0A7.5,7.5 0 1,1 0,-7.5A7.5,7.5 0 0,1 7.5,0Z"/></g><g class="text"><g class="textpoint" transform="translate(0,19.375)"><text x="48.88" y="515.04" style="font-family: TOBESTRIPPEDOpen SansTOBESTRIPPED, verdana, arial, sans-serif; font-size: 12px; fill: rgb(42, 63, 95); fill-opacity: 1; white-space: pre;" text-anchor="middle">Palantír of Orthanc</text></g><g class="textpoint" transform="translate(0,19.375)"><text x="354.34" y="788.63" style="font-family: TOBESTRIPPEDOpen SansTOBESTRIPPED, verdana, arial, sans-serif; font-size: 12px; fill: rgb(42, 63, 95); fill-opacity: 1; white-space: pre;" text-anchor="middle">Saruman</text></g><g class="textpoint" transform="translate(0,19.375)"><text x="118.53" y="51.38" style="font-family: TOBESTRIPPEDOpen SansTOBESTRIPPED, verdana, arial, sans-serif; font-size: 12px; fill: rgb(42, 63, 95); fill-opacity: 1; white-space: pre;" text-anchor="middle">Peregrin Took</text></g><g class="textpoint" transform="translate(0,19.375)"><text x="741.13" y="562.96" style="font-family: TOBESTRIPPEDOpen SansTOBESTRIPPED, verdana, arial, sans-serif; font-size: 12px; fill: rgb(42, 63, 95); fill-opacity: 1; white-space: pre;" text-anchor="middle">Aragorn II Elessar</text></g><g class="textpoint" transform="translate(0,19.375)"><text x="603.27" y="191.58" style="font-family: TOBESTRIPPEDOpen SansTOBESTRIPPED, verdana, arial, sans-serif; font-size: 12px; fill: rgb(42, 63, 95); fill-opacity: 1; white-space: pre;" text-anchor="middle">Sauron</text></g></g></g></g></g></g><path class="xlines-above crisp" style="fill: none;" d="M0,0"/><path class="ylines-above crisp" style="fill: none;" d="M0,0"/><g class="overlines-above"/><g class="xaxislayer-above"/><g class="yaxislayer-above"/><g class="overaxes-above"/></g></g><g class="polarlayer"/><g class="smithlayer"/><g class="ternarylayer"/><g class="geolayer"/><g class="funnelarealayer"/><g class="pielayer"/><g class="iciclelayer"/><g class="treemaplayer"/><g class="sunburstlayer"/><g class="glimages"/><defs id="topdefs-63a290"><g class="clips"/></defs><g class="layer-above"><g class="imagelayer"/><g class="shapelayer"/></g><g class="infolayer"><g class="g-gtitle"><text class="gtitle" style="opacity: 1; font-family: TOBESTRIPPEDOpen SansTOBESTRIPPED, verdana, arial, sans-serif; font-size: 16px; fill: rgb(42, 63, 95); fill-opacity: 1; white-space: pre;" x="40" y="20" text-anchor="start" dy="0em">Palantír User Network (Orthanc Stone &amp; Sauron)</text></g><g class="g-xtitle"/><g class="g-ytitle"/></g></svg>