<svg class="main-svg" xmlns="http://www.w3.org/2000/svg" xmlns:xlink="http://www.w3.org/1999/xlink" width="800" height="1040" style="" viewBox="0 0 800 1040"><rect x="0" y="0" width="800" height="1040" style="fill: rgb(255, 255, 255); fill-opacity: 1;"/><defs id="defs-48c487"><g class="clips"><clipPath id="clip48c487polar-for-traces"><path d="M302.5,0A302.5,302.5 0,1,0 -302.5,-3.704556567420743e-14A302.5,302.5 0,1,0 302.5,7.409113134841487e-14Z" transform="translate(302.5,302.5)"/></clipPath></g><g class="gradients"/><g class="patterns"/></defs><g class="bglayer"/><g class="layer-below"><g class="imagelayer"/><g class="shapelayer"/></g><g class="cartesianlayer"/><g class="polarlayer"><g class="polar"><g class="polarsublayer draglayer"/><g class="polarsublayer plotbg"><path d="M302.5,0A302.5,302.5 0,1,0 -302.5,-3.704556567420743e-14A302.5,302.5 0,1,0 302.5,7.409113134841487e-14Z" transform="translate(382.5,530)" style="fill: rgb(229, 236, 246); fill-opacity: 1;"/></g><g class="polarsublayer backplot"><g class="maplayer"/></g><g class="polarsublayer angular-grid" style="fill: none;"><path class="angularaxisgrid" d="M382.5,530L685,530" style="stroke: rgb(255, 255, 255); stroke-opacity: 1; stroke-width: 1px;"/><path class="angularaxisgrid" d="M382.5,530L475.9776407984216,242.30540382071604" style="stroke: rgb(255, 255, 255); stroke-opacity: 1; stroke-width: 1px;"/><path class="angularaxisgrid" d="M382.5,530L137.77235920157844,352.1949611815269" style="stroke: rgb(255, 255, 255); stroke-opacity: 1; stroke-width: 1px;"/><path class="angularaxisgrid" d="M382.5,530L137.77235920157838,707.8050388184731" style="stroke: rgb(255, 255, 255); stroke-opacity: 1; stroke-width: 1px;"/><path class="angularaxisgrid" d="M382.5,530L475.97764079842153,817.694596179284" style="stroke: rgb(255, 255, 255); stroke-opacity: 1; stroke-width: 1px;"/></g><g class="polarsublayer radial-grid" style="fill: none;" transform="translate(382.5,530)"><path class="xgrid" d="M60.5,0A60.5,60.5 0,1,0 -60.5,-7.409113134841488e-15A60.5,60.5 0,1,0 60.5,1.4818226269682975e-14Z" style="stroke: rgb(255, 255, 255); stroke-opacity: 1; stroke-width: 1px;"/><path class="xgrid" d="M121,0A121,121 0,1,0 -121,-1.4818226269682975e-14A121,121 0,1,0 121,2.963645253936595e-14Z" style="stroke: rgb(255, 255, 255); stroke-opacity: 1; stroke-width: 1px;"/><path class="xgrid" d="M181.5,0A181.5,181.5 0,1,0 -181.5,-2.222733940452446e-14A181.5,181.5 0,1,0 181.5,4.445467880904892e-14Z" style="stroke: rgb(255, 255, 255); stroke-opacity: 1; stroke-width: 1px;"/><path class="xgrid" d="M242,0A242,242 0,1,0 -242,-2.963645253936595e-14A242,242 0,1,0 242,5.92729050787319e-14Z" style="stroke: rgb(255, 255, 255); stroke-opacity: 1; stroke-width: 1px;"/></g><g class="polarsublayer frontplot" transform="translate(80,227.50000000000003)"><g class="barlayer"/><g class="scatterlayer"><g class="trace scatter trace26fe7b" style="stroke-miterlimit: 2; opacity: 0.6;"><g class="fills" clip-path="url(#clip48c487polar-for-traces)"><g><path class="js-fill" d="M363,302.5L319.33,250.71L131.19,178.04L265.79,329.17L303.43,305.38L363,302.5Z" style="fill: rgb(127, 60, 141); fill-opacity: 1; stroke-width: 0px;"/></g></g><g class="errorbars"/><g class="lines"><path class="js-line" style="vector-effect: none; fill: none; stroke: rgb(127, 60, 141); stroke-opacity: 1; stroke-width: 2px; opacity: 1;" d="M363,302.5L319.33,250.71L131.19,178.04L265.79,329.17L303.43,305.38L363,302.5" clip-path="url(#clip48c487polar-for-traces)"/></g><g class="points"><path class="point" transform="translate(363,302.5)" style="opacity: 1; stroke-width: 0px; fill: rgb(127, 60, 141); fill-opacity: 1;" d="M3,0A3,3 0 1,1 0,-3A3,3 0 0,1 3,0Z"/><path class="point" transform="translate(319.33,250.71)" style="opacity: 1; stroke-width: 0px; fill: rgb(127, 60, 141); fill-opacity: 1;" d="M3,0A3,3 0 1,1 0,-3A3,3 0 0,1 3,0Z"/><path class="point" transform="translate(131.19,178.04)" style="opacity: 1; stroke-width: 0px; fill: rgb(127, 60, 141); fill-opacity: 1;" d="M3,0A3,3 0 1,1 0,-3A3,3 0 0,1 3,0Z"/><path class="point" transform="translate(265.79,329.17)" style="opacity: 1; stroke-width: 0px; fill: rgb(127, 60, 141); fill-opacity: 1;" d="M3,0A3,3 0 1,1 0,-3A3,3 0 0,1 3,0Z"/><path class="point" transform="translate(303.43,305.38)" style="opacity: 1; stroke-width: 0px; fill: rgb(127, 60, 141); fill-opacity: 1;" d="M3,0A3,3 0 1,1 0,-3A3,3 0 0,1 3,0Z"/><path class="point" transform="translate(363,302.5)" style="opacity: 1; stroke-width: 0px; fill: rgb(127, 60, 141); fill-opacity: 1;" d="M3,0A3,3 0 1,1 0,-3A3,3 0 0,1 3,0Z"/></g><g class="text"/></g><g class="trace scatter trace0a8415" style="stroke-miterlimit: 2; opacity: 0.6;"><g class="fills" clip-path="url(#clip48c487polar-for-traces)"><g><path class="js-fill" d="M458.79,302.5L386.01,45.49L253.55,266.94L265.79,329.17L303.43,305.38L458.79,302.5Z" style="fill: rgb(17, 165, 121); fill-opacity: 1; stroke-width: 0px;"/></g></g><g class="errorbars"/><g class="lines"><path class="js-line" style="vector-effect: none; fill: none; stroke: rgb(17, 165, 121); stroke-opacity: 1; stroke-width: 2px; opacity: 1;" d="M458.79,302.5L386.01,45.49L253.55,266.94L265.79,329.17L303.43,305.38L458.79,302.5" clip-path="url(#clip48c487polar-for-traces)"/></g><g class="points"><path class="point" transform="translate(458.79,302.5)" style="opacity: 1; stroke-width: 0px; fill: rgb(17, 165, 121); fill-opacity: 1;" d="M3,0A3,3 0 1,1 0,-3A3,3 0 0,1 3,0Z"/><path class="point" transform="translate(386.01,45.49)" style="opacity: 1; stroke-width: 0px; fill: rgb(17, 165, 121); fill-opacity: 1;" d="M3,0A3,3 0 1,1 0,-3A3,3 0 0,1 3,0Z"/><path class="point" transform="translate(253.55,266.94)" style="opacity: 1; stroke-width: 0px; fill: rgb(17, 165, 121); fill-opacity: 1;" d="M3,0A3,3 0 1,1 0,-3A3,3 0 0,1 3,0Z"/><path class="point" transform="translate(265.79,329.17)" style="opacity: 1; stroke-width: 0px; fill: rgb(17, 165, 121); fill-opacity: 1;" d="M3,0A3,3 0 1,1 0,-3A3,3 0 0,1 3,0Z"/><path class="point" transform="translate(303.43,305.38)" style="opacity: 1; stroke-width: 0px; fill: rgb(17, 165, 121); fill-opacity: 1;" d="M3,0A3,3 0 1,1 0,-3A3,3 0 0,1 3,0Z"/><path class="point" transform="translate(458.79,302.5)" style="opacity: 1; stroke-width: 0px; fill: rgb(17, 165, 121); fill-opacity: 1;" d="M3,0A3,3 0 1,1 0,-3A3,3 0 0,1 3,0Z"/></g><g class="text"/></g><g class="trace scatter trace6ad4cb" style="stroke-miterlimit: 2; opacity: 0.6;"><g class="fills" clip-path="url(#clip48c487polar-for-traces)"><g><path class="js-fill" d="M465.85,302.5L319.33,250.71L253.55,266.94L143.43,418.07L314.65,339.9L465.85,302.5Z" style="fill: rgb(57, 105, 172); fill-opacity: 1; stroke-width: 0px;"/></g></g><g class="errorbars"/><g class="lines"><path class="js-line" style="vector-effect: none; fill: none; stroke: rgb(57, 105, 172); stroke-opacity: 1; stroke-width: 2px; opacity: 1;" d="M465.85,302.5L319.33,250.71L253.55,266.94L143.43,418.07L314.65,339.9L465.85,302.5" clip-path="url(#clip48c487polar-for-traces)"/></g><g class="points"><path class="point" transform="translate(465.85,302.5)" style="opacity: 1; stroke-width: 0px; fill: rgb(57, 105, 172); fill-opacity: 1;" d="M3,0A3,3 0 1,1 0,-3A3,3 0 0,1 3,0Z"/><path class="point" transform="translate(319.33,250.71)" style="opacity: 1; stroke-width: 0px; fill: rgb(57, 105, 172); fill-opacity: 1;" d="M3,0A3,3 0 1,1 0,-3A3,3 0 0,1 3,0Z"/><path class="point" transform="translate(253.55,266.94)" style="opacity: 1; stroke-width: 0px; fill: rgb(57, 105, 172); fill-opacity: 1;" d="M3,0A3,3 0 1,1 0,-3A3,3 0 0,1 3,0Z"/><path class="point" transform="translate(143.43,418.07)" style="opacity: 1; stroke-width: 0px; fill: rgb(57, 105, 172); fill-opacity: 1;" d="M3,0A3,3 0 1,1 0,-3A3,3 0 0,1 3,0Z"/><path class="point" transform="translate(314.65,339.9)" style="opacity: 1; stroke-width: 0px; fill: rgb(57, 105, 172); fill-opacity: 1;" d="M3,0A3,3 0 1,1 0,-3A3,3 0 0,1 3,0Z"/><path class="point" transform="translate(465.85,302.5)" style="opacity: 1; stroke-width: 0px; fill: rgb(57, 105, 172); fill-opacity: 1;" d="M3,0A3,3 0 1,1 0,-3A3,3 0 0,1 3,0Z"/></g><g class="text"/></g><g class="trace scatter trace3a8e04" style="stroke-miterlimit: 2; opacity: 0.6;"><g class="fills" clip-path="url(#clip48c487polar-for-traces)"><g><path class="js-fill" d="M423.5,302.5L339.89,187.42L229.08,249.16L96.52,452.15L303.43,305.38L423.5,302.5Z" style="fill: rgb(231, 63, 116); fill-opacity: 1; stroke-width: 0px;"/></g></g><g class="errorbars"/><g class="lines"><path class="js-line" style="vector-effect: none; fill: none; stroke: rgb(231, 63, 116); stroke-opacity: 1; stroke-width: 2px; opacity: 1;" d="M423.5,302.5L339.89,187.42L229.08,249.16L96.52,452.15L303.43,305.38L423.5,302.5" clip-path="url(#clip48c487polar-for-traces)"/></g><g class="points"><path class="point" transform="translate(423.5,302.5)" style="opacity: 1; stroke-width: 0px; fill: rgb(231, 63, 116); fill-opacity: 1;" d="M3,0A3,3 0 1,1 0,-3A3,3 0 0,1 3,0Z"/><path class="point" transform="translate(339.89,187.42)" style="opacity: 1; stroke-width: 0px; fill: rgb(231, 63, 116); fill-opacity: 1;" d="M3,0A3,3 0 1,1 0,-3A3,3 0 0,1 3,0Z"/><path class="point" transform="translate(229.08,249.16)" style="opacity: 1; stroke-width: 0px; fill: rgb(231, 63, 116); fill-opacity: 1;" d="M3,0A3,3 0 1,1 0,-3A3,3 0 0,1 3,0Z"/><path class="point" transform="translate(96.52,452.15)" style="opacity: 1; stroke-width: 0px; fill: rgb(231, 63, 116); fill-opacity: 1;" d="M3,0A3,3 0 1,1 0,-3A3,3 0 0,1 3,0Z"/><path class="point" transform="translate(303.43,305.38)" style="opacity: 1; stroke-width: 0px; fill: rgb(231, 63, 116); fill-opacity: 1;" d="M3,0A3,3 0 1,1 0,-3A3,3 0 0,1 3,0Z"/><path class="point" transform="translate(423.5,302.5)" style="opacity: 1; stroke-width: 0px; fill: rgb(231, 63, 116); fill-opacity: 1;" d="M3,0A3,3 0 1,1 0,-3A3,3 0 0,1 3,0Z"/></g><g class="text"/></g><g class="trace scatter trace6e301c" style="stroke-miterlimit: 2; opacity: 0.6;"><g class="fills" clip-path="url(#clip48c487polar-for-traces)"><g><path class="js-fill" d="M506.69,302.5L339.89,187.42L229.08,249.16L302.5,302.5L384.29,554.23L506.69,302.5Z" style="fill: rgb(128, 186, 90); fill-opacity: 1; stroke-width: 0px;"/></g></g><g class="errorbars"/><g class="lines"><path class="js-line" style="vector-effect: none; fill: none; stroke: rgb(128, 186, 90); stroke-opacity: 1; stroke-width: 2px; opacity: 1;" d="M506.69,302.5L339.89,187.42L229.08,249.16L302.5,302.5L384.29,554.23L506.69,302.5" clip-path="url(#clip48c487polar-for-traces)"/></g><g class="points"><path class="point" transform="translate(506.69,302.5)" style="opacity: 1; stroke-width: 0px; fill: rgb(128, 186, 90); fill-opacity: 1;" d="M3,0A3,3 0 1,1 0,-3A3,3 0 0,1 3,0Z"/><path class="point" transform="translate(339.89,187.42)" style="opacity: 1; stroke-width: 0px; fill: rgb(128, 186, 90); fill-opacity: 1;" d="M3,0A3,3 0 1,1 0,-3A3,3 0 0,1 3,0Z"/><path class="point" transform="translate(229.08,249.16)" style="opacity: 1; stroke-width: 0px; fill: rgb(128, 186, 90); fill-opacity: 1;" d="M3,0A3,3 0 1,1 0,-3A3,3 0 0,1 3,0Z"/><path class="point" transform="translate(302.5,302.5)" style="opacity: 1; stroke-width: 0px; fill: rgb(128, 186, 90); fill-opacity: 1;" d="M3,0A3,3 0 1,1 0,-3A3,3 0 0,1 3,0Z"/><path class="point" transform="translate(384.29,554.23)" style="opacity: 1; stroke-width: 0px; fill: rgb(128, 186, 90); fill-opacity: 1;" d="M3,0A3,3 0 1,1 0,-3A3,3 0 0,1 3,0Z"/><path class="point" transform="translate(506.69,302.5)" style="opacity: 1; stroke-width: 0px; fill: rgb(128, 186, 90); fill-opacity: 1;" d="M3,0A3,3 0 1,1 0,-3A3,3 0 0,1 3,0Z"/></g><g class="text"/></g></g></g><g class="polarsublayer angular-line"><path style="fill: none; stroke: rgb(255, 255, 255); stroke-opacity: 1;" d="M302.5,0A302.5,302.5 0,1,0 -302.5,-3.704556567420743e-14A302.5,302.5 0,1,0 302.5,7.409113134841487e-14Z" transform="translate(382.5,530)" stroke-width="1"/></g><g class="polarsublayer radial-line"><line style="fill: none; stroke: rgb(255, 255, 255); stroke-opacity: 1;" x1="0" y1="0" x2="302.5" y2="0" transform="translate(382.5,530)" stroke-width="1"/></g><g class="polarsublayer angular-axis"><g class="angularaxistick"><text text-anchor="start" x="2.9000000000000004" y="4.199999999999999" style="font-family: TOBESTRIPPEDOpen SansTOBESTRIPPED, verdana, arial, sans-serif; font-size: 12px; fill: rgb(42, 63, 95); fill-opacity: 1; white-space: pre; opacity: 1;" transform="translate(685,530)">Stealth</text></g><g class="angularaxistick"><text text-anchor="start" x="0.8961492836873477" y="-3.742728159989535" style="font-family: TOBESTRIPPEDOpen SansTOBESTRIPPED, verdana, arial, sans-serif; font-size: 12px; fill: rgb(42, 63, 95); fill-opacity: 1; white-space: pre; opacity: 1;" transform="translate(475.9776407984216,242.30540382071604)">Archery</text></g><g class="angularaxistick"><text text-anchor="end" x="-2.3461492836873474" y="0.2826095392246697" style="font-family: TOBESTRIPPEDOpen SansTOBESTRIPPED, verdana, arial, sans-serif; font-size: 12px; fill: rgb(42, 63, 95); fill-opacity: 1; white-space: pre; opacity: 1;" transform="translate(137.77235920157844,352.1949611815269)">Mining/Craft</text></g><g class="angularaxistick"><text text-anchor="end" x="-2.346149283687348" y="12.155871635532627" style="font-family: TOBESTRIPPEDOpen SansTOBESTRIPPED, verdana, arial, sans-serif; font-size: 12px; fill: rgb(42, 63, 95); fill-opacity: 1; white-space: pre; opacity: 1;" transform="translate(137.77235920157838,707.8050388184731)">Melee (Sword)</text></g><g class="angularaxistick"><text text-anchor="start" x="0.896149283687347" y="15.468613469172567" style="font-family: TOBESTRIPPEDOpen SansTOBESTRIPPED, verdana, arial, sans-serif; font-size: 12px; fill: rgb(42, 63, 95); fill-opacity: 1; white-space: pre; opacity: 1;" transform="translate(475.97764079842153,817.694596179284)">Magic/Staff</text></g></g><g class="polarsublayer radial-axis" transform="translate(382.5,530)"><g class="xtick"><text text-anchor="middle" x="0" y="14.9" style="font-family: TOBESTRIPPEDOpen SansTOBESTRIPPED, verdana, arial, sans-serif; font-size: 12px; fill: rgb(42, 63, 95); fill-opacity: 1; white-space: pre; opacity: 1;" transform="">0</text></g><g class="xtick"><text text-anchor="middle" x="0" y="14.9" style="font-family: TOBESTRIPPEDOpen SansTOBESTRIPPED, verdana, arial, sans-serif; font-size: 12px; fill: rgb(42, 63, 95); fill-opacity: 1; white-space: pre; opacity: 1;" transform="translate(60.5,0)">2</text></g><g class="xtick"><text text-anchor="middle" x="0" y="14.9" style="font-family: TOBESTRIPPEDOpen SansTOBESTRIPPED, verdana, arial, sans-serif; font-size: 12px; fill: rgb(42, 63, 95); fill-opacity: 1; white-space: pre; opacity: 1;" transform="translate(121,0)">4</text></g><g class="xtick"><text text-anchor="middle" x="0" y="14.9" style="font-family: TOBESTRIPPEDOpen SansTOBESTRIPPED, verdana, arial, sans-serif; font-size: 12px; fill: rgb(42, 63, 95); fill-opacity: 1; white-space: pre; opacity: 1;" transform="translate(181.5,0)">6</text></g><g class="xtick"><text text-anchor="middle" x="0" y="14.9" style="font-family: TOBESTRIPPEDOpen SansTOBESTRIPPED, verdana, arial, sans-serif; font-size: 12px; fill: rgb(42, 63, 95); fill-opacity: 1; white-space: pre; opacity: 1;" transform="translate(242,0)">8</text></g><g class="xtick"><text text-anchor="middle" x="0" y="14.9" style="font-family: TOBESTRIPPEDOpen SansTOBESTRIPPED, verdana, arial, sans-serif; font-size: 12px; fill: rgb(42, 63, 95); fill-opacity: 1; white-space: pre; opacity: 1;" transform="translate(302.5,0)">10</text></g></g></g></g><g class="smithlayer"/><g class="ternarylayer"/><g class="geolayer"/><g class="funnelarealayer"/><g class="pielayer"/><g class="iciclelayer"/><g class="treemaplayer"/><g class="sunburstlayer"/><g class="glimages"/><defs id="topdefs-48c487"><g class="clips"/><clipPath id="legend48c487"><rect width="91" height="105" x="0" y="0"/></clipPath></defs><g class="layer-above"><g class="imagelayer"/><g class="shapelayer"/></g><g class="infolayer"><g class="legend" pointer-events="all" transform="translate(697.1,100)"><rect class="bg" shape-rendering="crispEdges" style="stroke: rgb(68, 68, 68); stroke-opacity: 1; fill: rgb(255, 255, 255); fill-opacity: 1; stroke-width: 0px;" width="91" height="105" x="0" y="0"/><g class="scrollbox" transform="" clip-path="url(#legend48c487)"><g class="groups"><g class="traces" style="opacity: 1;" transform="translate(0,14.5)"><text class="legendtext" text-anchor="start" style="font-family: TOBESTRIPPEDOpen SansTOBESTRIPPED, verdana, arial, sans-serif; font-size: 12px; fill: rgb(42, 63, 95); fill-opacity: 1; white-space: pre;" x="40" y="4.680000000000001">Dwarf</text><g class="layers" style="opacity: 0.6;"><g class="legendfill"><path class="js-fill" d="M5,0h30v6h-30z" style="stroke-width: 0px; fill: rgb(127, 60, 141); fill-opacity: 1;"/></g><g class="legendlines"><path class="js-line" d="M5,0h30" style="fill: none; stroke: rgb(127, 60, 141); stroke-opacity: 1; stroke-width: 2px;"/></g><g class="legendsymbols"><g class="legendpoints"><path class="scatterpts" transform="translate(20,0)" style="opacity: 1; stroke-width: 0px; fill: rgb(127, 60, 141); fill-opacity: 1;" d="M3,0A3,3 0 1,1 0,-3A3,3 0 0,1 3,0Z"/></g></g></g><rect class="legendtoggle" style="fill: rgb(0, 0, 0); fill-opacity: 0;" x="0" y="-9.5" width="85.05000305175781" height="19"/></g><g class="traces" style="opacity: 1;" transform="translate(0,33.5)"><text class="legendtext" text-anchor="start" style="font-family: TOBESTRIPPEDOpen SansTOBESTRIPPED, verdana, arial, sans-serif; font-size: 12px; fill: rgb(42, 63, 95); fill-opacity: 1; white-space: pre;" x="40" y="4.680000000000001">Elf</text><g class="layers" style="opacity: 0.6;"><g class="legendfill"><path class="js-fill" d="M5,0h30v6h-30z" style="stroke-width: 0px; fill: rgb(17, 165, 121); fill-opacity: 1;"/></g><g class="legendlines"><path class="js-line" d="M5,0h30" style="fill: none; stroke: rgb(17, 165, 121); stroke-opacity: 1; stroke-width: 2px;"/></g><g class="legendsymbols"><g class="legendpoints"><path class="scatterpts" transform="translate(20,0)" style="opacity: 1; stroke-width: 0px; fill: rgb(17, 165, 121); fill-opacity: 1;" d="M3,0A3,3 0 1,1 0,-3A3,3 0 0,1 3,0Z"/></g></g></g><rect class="legendtoggle" style="fill: rgb(0, 0, 0); fill-opacity: 0;" x="0" y="-9.5" width="85.05000305175781" height="19"/></g><g class="traces" style="opacity: 1;" transform="translate(0,52.5)"><text class="legendtext" text-anchor="start" style="font-family: TOBESTRIPPEDOpen SansTOBESTRIPPED, verdana, arial, sans-serif; font-size: 12px; fill: rgb(42, 63, 95); fill-opacity: 1; white-space: pre;" x="40" y="4.680000000000001">Hobbit</text><g class="layers" style="opacity: 0.6;"><g class="legendfill"><path class="js-fill" d="M5,0h30v6h-30z" style="stroke-width: 0px; fill: rgb(57, 105, 172); fill-opacity: 1;"/></g><g class="legendlines"><path class="js-line" d="M5,0h30" style="fill: none; stroke: rgb(57, 105, 172); stroke-opacity: 1; stroke-width: 2px;"/></g><g class="legendsymbols"><g class="legendpoints"><path class="scatterpts" transform="translate(20,0)" style="opacity: 1; stroke-width: 0px; fill: rgb(57, 105, 172); fill-opacity: 1;" d="M3,0A3,3 0 1,1 0,-3A3,3 0 0,1 3,0Z"/></g></g></g><rect class="legendtoggle" style="fill: rgb(0, 0, 0); fill-opacity: 0;" x="0" y="-9.5" width="85.05000305175781" height="19"/></g><g class="traces" style="opacity: 1;" transform="translate(0,71.5)"><text class="legendtext" text-anchor="start" style="font-family: TOBESTRIPPEDOpen SansTOBESTRIPPED, verdana, arial, sans-serif; font-size: 12px; fill: rgb(42, 63, 95); fill-opacity: 1; white-space: pre;" x="40" y="4.680000000000001">Man</text><g class="layers" style="opacity: 0.6;"><g class="legendfill"><path class="js-fill" d="M5,0h30v6h-30z" style="stroke-width: 0px; fill: rgb(231, 63, 116); fill-opacity: 1;"/></g><g class="legendlines"><path class="js-line" d="M5,0h30" style="fill: none; stroke: rgb(231, 63, 116); stroke-opacity: 1; stroke-width: 2px;"/></g><g class="legendsymbols"><g class="legendpoints"><path class="scatterpts" transform="translate(20,0)" style="opacity: 1; stroke-width: 0px; fill: rgb(231, 63, 116); fill-opacity: 1;" d="M3,0A3,3 0 1,1 0,-3A3,3 0 0,1 3,0Z"/></g></g></g><rect class="legendtoggle" style="fill: rgb(0, 0, 0); fill-opacity: 0;" x="0" y="-9.5" width="85.05000305175781" height="19"/></g><g class="traces" style="opacity: 1;" transform="translate(0,90.5)"><text class="legendtext" text-anchor="start" style="font-family: TOBESTRIPPEDOpen SansTOBESTRIPPED, verdana, arial, sans-serif; font-size: 12px; fill: rgb(42, 63, 95); fill-opacity: 1; white-space: pre;" x="40" y="4.680000000000001">Wizard</text><g class="layers" style="opacity: 0.6;"><g class="legendfill"><path class="js-fill" d="M5,0h30v6h-30z" style="stroke-width: 0px; fill: rgb(128, 186, 90); fill-opacity: 1;"/></g><g class="legendlines"><path class="js-line" d="M5,0h30" style="fill: none; stroke: rgb(128, 186, 90); stroke-opacity: 1; stroke-width: 2px;"/></g><g class="legendsymbols"><g class="legendpoints"><path class="scatterpts" transform="translate(20,0)" style="opacity: 1; stroke-width: 0px; fill: rgb(128, 186, 90); fill-opacity: 1;" d="M3,0A3,3 0 1,1 0,-3A3,3 0 0,1 3,0Z"/></g></g></g><rect class="legendtoggle" style="fill: rgb(0, 0, 0); fill-opacity: 0;" x="0" y="-9.5" width="85.05000305175781" height="19"/></g></g></g><rect class="scrollbar" rx="20" ry="3" width="0" height="0" style="fill: rgb(128, 139, 164); fill-opacity: 1;" x="0" y="0"/></g><g class="g-gtitle"><text class="gtitle" style="opacity: 1; font-family: TOBESTRIPPEDOpen SansTOBESTRIPPED, verdana, arial, sans-serif; font-size: 17px; fill: rgb(42, 63, 95); fill-opacity: 1; white-space: pre;" x="40" y="50" text-anchor="start" dy="0em">Representative Skills by Race (Averages)</text></g><g class="g-polartitle"/></g></svg>