<svg class="main-svg" xmlns="http://www.w3.org/2000/svg" xmlns:xlink="http://www.w3.org/1999/xlink" width="2940.23" height="525" style="" viewBox="0 0 2940.23 525"><rect x="0" y="0" width="2940.23" height="525" style="fill: rgb(255, 255, 255); fill-opacity: 1;"/><defs id="defs-114c50"><g class="clips"><clipPath id="clip114c50polar-for-traces"><path d="M172.5,0A172.5,172.5 0,1,0 -172.5,-2.112515728529184e-14A172.5,172.5 0,1,0 172.5,4.225031457058368e-14Z" transform="translate(172.5,172.5)"/></clipPath></g><g class="gradients"/><g class="patterns"/></defs><g class="bglayer"/><g class="layer-below"><g class="imagelayer"/><g class="shapelayer"/></g><g class="cartesianlayer"/><g class="polarlayer"><g class="polar"><g class="polarsublayer draglayer"/><g class="polarsublayer plotbg"><path d="M172.5,0A172.5,172.5 0,1,0 -172.5,-2.112515728529184e-14A172.5,172.5 0,1,0 172.5,4.225031457058368e-14Z" transform="translate(1433,272.5)" style="fill: rgb(229, 236, 246); fill-opacity: 1;"/></g><g class="polarsublayer backplot"><g class="maplayer"/></g><g class="polarsublayer angular-grid" style="fill: none;"><path class="angularaxisgrid" d="M1433,272.5L1605.5,272.5" style="stroke: rgb(255, 255, 255); stroke-opacity: 1; stroke-width: 1px;"/><path class="angularaxisgrid" d="M1433,272.5L1486.3054315296783,108.44275093908601" style="stroke: rgb(255, 255, 255); stroke-opacity: 1; stroke-width: 1px;"/><path class="angularaxisgrid" d="M1433,272.5L1293.4445684703217,171.10704397954837" style="stroke: rgb(255, 255, 255); stroke-opacity: 1; stroke-width: 1px;"/><path class="angularaxisgrid" d="M1433,272.5L1293.4445684703217,373.8929560204516" style="stroke: rgb(255, 255, 255); stroke-opacity: 1; stroke-width: 1px;"/><path class="angularaxisgrid" d="M1433,272.5L1486.3054315296783,436.557249060914" style="stroke: rgb(255, 255, 255); stroke-opacity: 1; stroke-width: 1px;"/></g><g class="polarsublayer radial-grid" style="fill: none;" transform="translate(1433,272.5)"><path class="xgrid" d="M34.5,0A34.5,34.5 0,1,0 -34.5,-4.225031457058369e-15A34.5,34.5 0,1,0 34.5,8.450062914116738e-15Z" style="stroke: rgb(255, 255, 255); stroke-opacity: 1; stroke-width: 1px;"/><path class="xgrid" d="M69,0A69,69 0,1,0 -69,-8.450062914116738e-15A69,69 0,1,0 69,1.6900125828233476e-14Z" style="stroke: rgb(255, 255, 255); stroke-opacity: 1; stroke-width: 1px;"/><path class="xgrid" d="M103.5,0A103.5,103.5 0,1,0 -103.5,-1.2675094371175105e-14A103.5,103.5 0,1,0 103.5,2.535018874235021e-14Z" style="stroke: rgb(255, 255, 255); stroke-opacity: 1; stroke-width: 1px;"/><path class="xgrid" d="M138,0A138,138 0,1,0 -138,-1.6900125828233476e-14A138,138 0,1,0 138,3.380025165646695e-14Z" style="stroke: rgb(255, 255, 255); stroke-opacity: 1; stroke-width: 1px;"/></g><g class="polarsublayer frontplot" transform="translate(1260.5,100)"><g class="barlayer"/><g class="scatterlayer"><g class="trace scatter tracee40467" style="stroke-miterlimit: 2; opacity: 1;"><g class="fills" clip-path="url(#clip114c50polar-for-traces)"><g><path class="js-fill" d="M172.5,172.5L172.5,172.5L74.81,101.52L172.5,172.5L172.5,172.5L172.5,172.5Z" style="fill: rgb(102, 197, 204); fill-opacity: 0.5; stroke-width: 0px;"/></g></g><g class="errorbars"/><g class="lines"><path class="js-line" style="vector-effect: none; fill: none; stroke: rgb(102, 197, 204); stroke-opacity: 1; stroke-width: 2px; opacity: 1;" d="M172.5,172.5L172.5,172.5L74.81,101.52L172.5,172.5L172.5,172.5L172.5,172.5" clip-path="url(#clip114c50polar-for-traces)"/></g><g class="points"><path class="point" transform="translate(172.5,172.5)" style="opacity: 1; stroke-width: 0px; fill: rgb(102, 197, 204); fill-opacity: 1;" d="M3,0A3,3 0 1,1 0,-3A3,3 0 0,1 3,0Z"/><path class="point" transform="translate(172.5,172.5)" style="opacity: 1; stroke-width: 0px; fill: rgb(102, 197, 204); fill-opacity: 1;" d="M3,0A3,3 0 1,1 0,-3A3,3 0 0,1 3,0Z"/><path class="point" transform="translate(74.81,101.52)" style="opacity: 1; stroke-width: 0px; fill: rgb(102, 197, 204); fill-opacity: 1;" d="M3,0A3,3 0 1,1 0,-3A3,3 0 0,1 3,0Z"/><path class="point" transform="translate(172.5,172.5)" style="opacity: 1; stroke-width: 0px; fill: rgb(102, 197, 204); fill-opacity: 1;" d="M3,0A3,3 0 1,1 0,-3A3,3 0 0,1 3,0Z"/><path class="point" transform="translate(172.5,172.5)" style="opacity: 1; stroke-width: 0px; fill: rgb(102, 197, 204); fill-opacity: 1;" d="M3,0A3,3 0 1,1 0,-3A3,3 0 0,1 3,0Z"/><path class="point" transform="translate(172.5,172.5)" style="opacity: 1; stroke-width: 0px; fill: rgb(102, 197, 204); fill-opacity: 1;" d="M3,0A3,3 0 1,1 0,-3A3,3 0 0,1 3,0Z"/></g><g class="text"/></g><g class="trace scatter tracecb444e" style="stroke-miterlimit: 2; opacity: 1;"><g class="fills" clip-path="url(#clip114c50polar-for-traces)"><g><path class="js-fill" d="M172.5,172.5L211.24,53.29L172.5,172.5L172.5,172.5L172.5,172.5L172.5,172.5Z" style="fill: rgb(246, 207, 113); fill-opacity: 0.5; stroke-width: 0px;"/></g></g><g class="errorbars"/><g class="lines"><path class="js-line" style="vector-effect: none; fill: none; stroke: rgb(246, 207, 113); stroke-opacity: 1; stroke-width: 2px; opacity: 1;" d="M172.5,172.5L211.24,53.29L172.5,172.5L172.5,172.5L172.5,172.5L172.5,172.5" clip-path="url(#clip114c50polar-for-traces)"/></g><g class="points"><path class="point" transform="translate(172.5,172.5)" style="opacity: 1; stroke-width: 0px; fill: rgb(246, 207, 113); fill-opacity: 1;" d="M3,0A3,3 0 1,1 0,-3A3,3 0 0,1 3,0Z"/><path class="point" transform="translate(211.24,53.29)" style="opacity: 1; stroke-width: 0px; fill: rgb(246, 207, 113); fill-opacity: 1;" d="M3,0A3,3 0 1,1 0,-3A3,3 0 0,1 3,0Z"/><path class="point" transform="translate(172.5,172.5)" style="opacity: 1; stroke-width: 0px; fill: rgb(246, 207, 113); fill-opacity: 1;" d="M3,0A3,3 0 1,1 0,-3A3,3 0 0,1 3,0Z"/><path class="point" transform="translate(172.5,172.5)" style="opacity: 1; stroke-width: 0px; fill: rgb(246, 207, 113); fill-opacity: 1;" d="M3,0A3,3 0 1,1 0,-3A3,3 0 0,1 3,0Z"/><path class="point" transform="translate(172.5,172.5)" style="opacity: 1; stroke-width: 0px; fill: rgb(246, 207, 113); fill-opacity: 1;" d="M3,0A3,3 0 1,1 0,-3A3,3 0 0,1 3,0Z"/><path class="point" transform="translate(172.5,172.5)" style="opacity: 1; stroke-width: 0px; fill: rgb(246, 207, 113); fill-opacity: 1;" d="M3,0A3,3 0 1,1 0,-3A3,3 0 0,1 3,0Z"/></g><g class="text"/></g><g class="trace scatter trace66c803" style="stroke-miterlimit: 2; opacity: 1;"><g class="fills" clip-path="url(#clip114c50polar-for-traces)"><g><path class="js-fill" d="M300.15,172.5L172.5,172.5L172.5,172.5L172.5,172.5L172.5,172.5L300.15,172.5Z" style="fill: rgb(248, 156, 116); fill-opacity: 0.5; stroke-width: 0px;"/></g></g><g class="errorbars"/><g class="lines"><path class="js-line" style="vector-effect: none; fill: none; stroke: rgb(248, 156, 116); stroke-opacity: 1; stroke-width: 2px; opacity: 1;" d="M300.15,172.5L172.5,172.5L172.5,172.5L172.5,172.5L172.5,172.5L300.15,172.5" clip-path="url(#clip114c50polar-for-traces)"/></g><g class="points"><path class="point" transform="translate(300.15,172.5)" style="opacity: 1; stroke-width: 0px; fill: rgb(248, 156, 116); fill-opacity: 1;" d="M3,0A3,3 0 1,1 0,-3A3,3 0 0,1 3,0Z"/><path class="point" transform="translate(172.5,172.5)" style="opacity: 1; stroke-width: 0px; fill: rgb(248, 156, 116); fill-opacity: 1;" d="M3,0A3,3 0 1,1 0,-3A3,3 0 0,1 3,0Z"/><path class="point" transform="translate(172.5,172.5)" style="opacity: 1; stroke-width: 0px; fill: rgb(248, 156, 116); fill-opacity: 1;" d="M3,0A3,3 0 1,1 0,-3A3,3 0 0,1 3,0Z"/><path class="point" transform="translate(172.5,172.5)" style="opacity: 1; stroke-width: 0px; fill: rgb(248, 156, 116); fill-opacity: 1;" d="M3,0A3,3 0 1,1 0,-3A3,3 0 0,1 3,0Z"/><path class="point" transform="translate(172.5,172.5)" style="opacity: 1; stroke-width: 0px; fill: rgb(248, 156, 116); fill-opacity: 1;" d="M3,0A3,3 0 1,1 0,-3A3,3 0 0,1 3,0Z"/><path class="point" transform="translate(300.15,172.5)" style="opacity: 1; stroke-width: 0px; fill: rgb(248, 156, 116); fill-opacity: 1;" d="M3,0A3,3 0 1,1 0,-3A3,3 0 0,1 3,0Z"/></g><g class="text"/></g><g class="trace scatter trace661e13" style="stroke-miterlimit: 2; opacity: 1;"><g class="fills" clip-path="url(#clip114c50polar-for-traces)"><g><path class="js-fill" d="M172.5,172.5L172.5,172.5L172.5,172.5L55.04,257.84L172.5,172.5L172.5,172.5Z" style="fill: rgb(135, 197, 95); fill-opacity: 0.5; stroke-width: 0px;"/></g></g><g class="errorbars"/><g class="lines"><path class="js-line" style="vector-effect: none; fill: none; stroke: rgb(135, 197, 95); stroke-opacity: 1; stroke-width: 2px; opacity: 1;" d="M172.5,172.5L172.5,172.5L172.5,172.5L55.04,257.84L172.5,172.5L172.5,172.5" clip-path="url(#clip114c50polar-for-traces)"/></g><g class="points"><path class="point" transform="translate(172.5,172.5)" style="opacity: 1; stroke-width: 0px; fill: rgb(135, 197, 95); fill-opacity: 1;" d="M3,0A3,3 0 1,1 0,-3A3,3 0 0,1 3,0Z"/><path class="point" transform="translate(172.5,172.5)" style="opacity: 1; stroke-width: 0px; fill: rgb(135, 197, 95); fill-opacity: 1;" d="M3,0A3,3 0 1,1 0,-3A3,3 0 0,1 3,0Z"/><path class="point" transform="translate(172.5,172.5)" style="opacity: 1; stroke-width: 0px; fill: rgb(135, 197, 95); fill-opacity: 1;" d="M3,0A3,3 0 1,1 0,-3A3,3 0 0,1 3,0Z"/><path class="point" transform="translate(55.04,257.84)" style="opacity: 1; stroke-width: 0px; fill: rgb(135, 197, 95); fill-opacity: 1;" d="M3,0A3,3 0 1,1 0,-3A3,3 0 0,1 3,0Z"/><path class="point" transform="translate(172.5,172.5)" style="opacity: 1; stroke-width: 0px; fill: rgb(135, 197, 95); fill-opacity: 1;" d="M3,0A3,3 0 1,1 0,-3A3,3 0 0,1 3,0Z"/><path class="point" transform="translate(172.5,172.5)" style="opacity: 1; stroke-width: 0px; fill: rgb(135, 197, 95); fill-opacity: 1;" d="M3,0A3,3 0 1,1 0,-3A3,3 0 0,1 3,0Z"/></g><g class="text"/></g></g></g><g class="polarsublayer angular-line"><path style="fill: none; stroke: rgb(255, 255, 255); stroke-opacity: 1;" d="M172.5,0A172.5,172.5 0,1,0 -172.5,-2.112515728529184e-14A172.5,172.5 0,1,0 172.5,4.225031457058368e-14Z" transform="translate(1433,272.5)" stroke-width="1"/></g><g class="polarsublayer radial-line"><line style="fill: none; stroke: rgb(255, 255, 255); stroke-opacity: 1;" x1="0" y1="0" x2="172.5" y2="0" transform="translate(1433,272.5)" stroke-width="1"/></g><g class="polarsublayer angular-axis"><g class="angularaxistick"><text text-anchor="start" x="2.9000000000000004" y="4.199999999999999" style="font-family: TOBESTRIPPEDOpen SansTOBESTRIPPED, verdana, arial, sans-serif; font-size: 12px; fill: rgb(42, 63, 95); fill-opacity: 1; white-space: pre; opacity: 1;" transform="translate(1605.5,272.5)">Stealth</text></g><g class="angularaxistick"><text text-anchor="start" x="0.8961492836873477" y="-3.742728159989535" style="font-family: TOBESTRIPPEDOpen SansTOBESTRIPPED, verdana, arial, sans-serif; font-size: 12px; fill: rgb(42, 63, 95); fill-opacity: 1; white-space: pre; opacity: 1;" transform="translate(1486.3054315296783,108.44275093908601)">Archery</text></g><g class="angularaxistick"><text text-anchor="end" x="-2.3461492836873474" y="0.2826095392246697" style="font-family: TOBESTRIPPEDOpen SansTOBESTRIPPED, verdana, arial, sans-serif; font-size: 12px; fill: rgb(42, 63, 95); fill-opacity: 1; white-space: pre; opacity: 1;" transform="translate(1293.4445684703217,171.10704397954837)">Mining/Craft</text></g><g class="angularaxistick"><text text-anchor="end" x="-2.346149283687348" y="12.155871635532627" style="font-family: TOBESTRIPPEDOpen SansTOBESTRIPPED, verdana, arial, sans-serif; font-size: 12px; fill: rgb(42, 63, 95); fill-opacity: 1; white-space: pre; opacity: 1;" transform="translate(1293.4445684703217,373.8929560204516)">Melee (Sword)</text></g><g class="angularaxistick"><text text-anchor="start" x="0.896149283687347" y="15.468613469172567" style="font-family: TOBESTRIPPEDOpen SansTOBESTRIPPED, verdana, arial, sans-serif; font-size: 12px; fill: rgb(42, 63, 95); fill-opacity: 1; white-space: pre; opacity: 1;" transform="translate(1486.3054315296783,436.557249060914)">Magic/Staff</text></g></g><g class="polarsublayer radial-axis" transform="translate(1433,272.5)"><g class="xtick"><text text-anchor="middle" x="0" y="14.9" style="font-family: TOBESTRIPPEDOpen SansTOBESTRIPPED, verdana, arial, sans-serif; font-size: 12px; fill: rgb(42, 63, 95); fill-opacity: 1; white-space: pre; opacity: 1;" transform="">0</text></g><g class="xtick"><text text-anchor="middle" x="0" y="14.9" style="font-family: TOBESTRIPPEDOpen SansTOBESTRIPPED, verdana, arial, sans-serif; font-size: 12px; fill: rgb(42, 63, 95); fill-opacity: 1; white-space: pre; opacity: 1;" transform="translate(34.5,0)">2</text></g><g class="xtick"><text text-anchor="middle" x="0" y="14.9" style="font-family: TOBESTRIPPEDOpen SansTOBESTRIPPED, verdana, arial, sans-serif; font-size: 12px; fill: rgb(42, 63, 95); fill-opacity: 1; white-space: pre; opacity: 1;" transform="translate(69,0)">4</text></g><g class="xtick"><text text-anchor="middle" x="0" y="14.9" style="font-family: TOBESTRIPPEDOpen SansTOBESTRIPPED, verdana, arial, sans-serif; font-size: 12px; fill: rgb(42, 63, 95); fill-opacity: 1; white-space: pre; opacity: 1;" transform="translate(103.5,0)">6</text></g><g class="xtick"><text text-anchor="middle" x="0" y="14.9" style="font-family: TOBESTRIPPEDOpen SansTOBESTRIPPED, verdana, arial, sans-serif; font-size: 12px; fill: rgb(42, 63, 95); fill-opacity: 1; white-space: pre; opacity: 1;" transform="translate(138,0)">8</text></g><g class="xtick"><text text-anchor="middle" x="0" y="14.9" style="font-family: TOBESTRIPPEDOpen SansTOBESTRIPPED, verdana, arial, sans-serif; font-size: 12px; fill: rgb(42, 63, 95); fill-opacity: 1; white-space: pre; opacity: 1;" transform="translate(172.5,0)">10</text></g></g></g></g><g class="smithlayer"/><g class="ternarylayer"/><g class="geolayer"/><g class="funnelarealayer"/><g class="pielayer"/><g class="iciclelayer"/><g class="treemaplayer"/><g class="sunburstlayer"/><g class="glimages"/><defs id="topdefs-114c50"><g class="clips"/><clipPath id="legend114c50"><rect width="88" height="86" x="0" y="0"/></clipPath></defs><g class="layer-above"><g class="imagelayer"/><g class="shapelayer"/></g><g class="infolayer"><g class="legend" pointer-events="all" transform="translate(2840.12,100)"><rect class="bg" shape-rendering="crispEdges" style="stroke: rgb(68, 68, 68); stroke-opacity: 1; fill: rgb(255, 255, 255); fill-opacity: 1; stroke-width: 0px;" width="88" height="86" x="0" y="0"/><g class="scrollbox" transform="" clip-path="url(#legend114c50)"><g class="groups"><g class="traces" style="opacity: 1;" transform="translate(0,14.5)"><text class="legendtext" text-anchor="start" style="font-family: TOBESTRIPPEDOpen SansTOBESTRIPPED, verdana, arial, sans-serif; font-size: 12px; fill: rgb(42, 63, 95); fill-opacity: 1; white-space: pre;" x="40" y="4.680000000000001">Dwarf</text><g class="layers" style="opacity: 1;"><g class="legendfill"><path class="js-fill" d="M5,0h30v6h-30z" style="stroke-width: 0px; fill: rgb(102, 197, 204); fill-opacity: 0.5;"/></g><g class="legendlines"><path class="js-line" d="M5,0h30" style="fill: none; stroke: rgb(102, 197, 204); stroke-opacity: 1; stroke-width: 2px;"/></g><g class="legendsymbols"><g class="legendpoints"><path class="scatterpts" transform="translate(20,0)" style="opacity: 1; stroke-width: 0px; fill: rgb(102, 197, 204); fill-opacity: 1;" d="M3,0A3,3 0 1,1 0,-3A3,3 0 0,1 3,0Z"/></g></g></g><rect class="legendtoggle" style="fill: rgb(0, 0, 0); fill-opacity: 0;" x="0" y="-9.5" width="82.41667175292969" height="19"/></g><g class="traces" style="opacity: 1;" transform="translate(0,33.5)"><text class="legendtext" text-anchor="start" style="font-family: TOBESTRIPPEDOpen SansTOBESTRIPPED, verdana, arial, sans-serif; font-size: 12px; fill: rgb(42, 63, 95); fill-opacity: 1; white-space: pre;" x="40" y="4.680000000000001">Elf</text><g class="layers" style="opacity: 1;"><g class="legendfill"><path class="js-fill" d="M5,0h30v6h-30z" style="stroke-width: 0px; fill: rgb(246, 207, 113); fill-opacity: 0.5;"/></g><g class="legendlines"><path class="js-line" d="M5,0h30" style="fill: none; stroke: rgb(246, 207, 113); stroke-opacity: 1; stroke-width: 2px;"/></g><g class="legendsymbols"><g class="legendpoints"><path class="scatterpts" transform="translate(20,0)" style="opacity: 1; stroke-width: 0px; fill: rgb(246, 207, 113); fill-opacity: 1;" d="M3,0A3,3 0 1,1 0,-3A3,3 0 0,1 3,0Z"/></g></g></g><rect class="legendtoggle" style="fill: rgb(0, 0, 0); fill-opacity: 0;" x="0" y="-9.5" width="82.41667175292969" height="19"/></g><g class="traces" style="opacity: 1;" transform="translate(0,52.5)"><text class="legendtext" text-anchor="start" style="font-family: TOBESTRIPPEDOpen SansTOBESTRIPPED, verdana, arial, sans-serif; font-size: 12px; fill: rgb(42, 63, 95); fill-opacity: 1; white-space: pre;" x="40" y="4.680000000000001">Hobbit</text><g class="layers" style="opacity: 1;"><g class="legendfill"><path class="js-fill" d="M5,0h30v6h-30z" style="stroke-width: 0px; fill: rgb(248, 156, 116); fill-opacity: 0.5;"/></g><g class="legendlines"><path class="js-line" d="M5,0h30" style="fill: none; stroke: rgb(248, 156, 116); stroke-opacity: 1; stroke-width: 2px;"/></g><g class="legendsymbols"><g class="legendpoints"><path class="scatterpts" transform="translate(20,0)" style="opacity: 1; stroke-width: 0px; fill: rgb(248, 156, 116); fill-opacity: 1;" d="M3,0A3,3 0 1,1 0,-3A3,3 0 0,1 3,0Z"/></g></g></g><rect class="legendtoggle" style="fill: rgb(0, 0, 0); fill-opacity: 0;" x="0" y="-9.5" width="82.41667175292969" height="19"/></g><g class="traces" style="opacity: 1;" transform="translate(0,71.5)"><text class="legendtext" text-anchor="start" style="font-family: TOBESTRIPPEDOpen SansTOBESTRIPPED, verdana, arial, sans-serif; font-size: 12px; fill: rgb(42, 63, 95); fill-opacity: 1; white-space: pre;" x="40" y="4.680000000000001">Man</text><g class="layers" style="opacity: 1;"><g class="legendfill"><path class="js-fill" d="M5,0h30v6h-30z" style="stroke-width: 0px; fill: rgb(135, 197, 95); fill-opacity: 0.5;"/></g><g class="legendlines"><path class="js-line" d="M5,0h30" style="fill: none; stroke: rgb(135, 197, 95); stroke-opacity: 1; stroke-width: 2px;"/></g><g class="legendsymbols"><g class="legendpoints"><path class="scatterpts" transform="translate(20,0)" style="opacity: 1; stroke-width: 0px; fill: rgb(135, 197, 95); fill-opacity: 1;" d="M3,0A3,3 0 1,1 0,-3A3,3 0 0,1 3,0Z"/></g></g></g><rect class="legendtoggle" style="fill: rgb(0, 0, 0); fill-opacity: 0;" x="0" y="-9.5" width="82.41667175292969" height="19"/></g></g></g><rect class="scrollbar" rx="20" ry="3" width="0" height="0" style="fill: rgb(128, 139, 164); fill-opacity: 1;" x="0" y="0"/></g><g class="g-gtitle"><text class="gtitle" style="opacity: 1; font-family: TOBESTRIPPEDOpen SansTOBESTRIPPED, verdana, arial, sans-serif; font-size: 17px; fill: rgb(42, 63, 95); fill-opacity: 1; white-space: pre;" x="147.0115" y="50" text-anchor="start" dy="0em">Representative Skills by Race (Averages)</text></g><g class="g-polartitle"/></g></svg>